<?xml version="1.0" standalone="no"?>
<!DOCTYPE svg PUBLIC "-//W3C//DTD SVG 1.1//EN" "http://www.w3.org/Graphics/SVG/1.1/DTD/svg11.dtd" >
<svg>
<metadata>
Created by FontForge 20110222 at Sat Dec  7 16:38:41 2013
 By deploy user
</metadata>
<defs>
<font id="Aller" horiz-adv-x="600" >
  <font-face 
    font-family="Aller"
    font-weight="400"
    font-stretch="normal"
    units-per-em="1000"
    panose-1="2 0 5 3 3 0 0 2 0 4"
    ascent="800"
    descent="-200"
    x-height="513"
    cap-height="723"
    bbox="-183 -249 1443 963"
    underline-thickness="50"
    underline-position="-50"
    unicode-range="U+0020-FB04"
  />
<missing-glyph horiz-adv-x="500" 
 />
    <glyph glyph-name="ff" unicode="ff" horiz-adv-x="685" 
d="M115 435h-84q-4 16 -4 39q0 22 4 39h84v31q0 95 47 144.5t136 49.5q26 0 48 -3.5t39 -8.5q-3 -26 -10 -44.5t-15 -35.5q-9 3 -22 5.5t-31 2.5q-21 0 -38.5 -4.5t-29.5 -17t-18.5 -34.5t-6.5 -57v-28h216v36q0 95 47.5 144.5t138.5 49.5q25 0 44 -2.5t36 -7.5
q-2 -25 -5.5 -43t-9.5 -37q-10 2 -23.5 4.5t-32.5 2.5q-22 0 -39.5 -4.5t-30 -17t-19.5 -35t-7 -57.5v-33h131q3 -20 3 -41q0 -19 -3 -37h-131v-435q-11 -2 -24.5 -3t-24.5 -1t-25 1t-25 3v435h-216v-435q-11 -2 -24.5 -3t-24.5 -1t-25 1t-25 3v435z" />
    <glyph glyph-name="fi" unicode="fi" horiz-adv-x="603" 
d="M115 435h-84q-4 16 -4 39q0 22 4 39h84v36q0 95 56.5 144.5t155.5 49.5q40 0 72.5 -5t73.5 -19q0 -23 -7 -43.5t-17 -37.5q-30 12 -54.5 17t-59.5 5q-26 0 -48 -4.5t-38 -17t-25.5 -35t-9.5 -57.5v-33h309v-513q-11 -2 -24.5 -3t-24.5 -1t-24.5 1t-24.5 3v435h-211v-435
q-11 -2 -24.5 -3t-24.5 -1t-25 1t-25 3v435z" />
    <glyph glyph-name="fl" unicode="fl" horiz-adv-x="633" 
d="M115 434h-85q-3 19 -3 40q0 19 3 39h85v36q0 95 58 144.5t170 49.5q51 0 90.5 -5.5t77.5 -12.5v-541q0 -39 4 -61t11.5 -33.5t19.5 -14t27 -2.5q10 0 21 1t19 3q6 -17 8 -36.5t2 -39.5q-15 -5 -34.5 -6.5t-36.5 -1.5q-33 0 -59 7.5t-44 27t-27 52.5t-9 83v491
q-17 4 -38 5.5t-38 1.5q-27 0 -50 -5t-39.5 -17.5t-25.5 -35t-9 -57.5v-33h122q3 -21 3 -41t-3 -38h-122v-434q-11 -2 -24.5 -2.5t-24.5 -0.5t-24.5 0.5t-24.5 2.5v434z" />
    <glyph glyph-name="ffi" unicode="ffi" horiz-adv-x="915" 
d="M430 549q0 95 56.5 144.5t155.5 49.5q40 0 72.5 -5t73.5 -19q0 -23 -7 -43.5t-16 -37.5q-31 12 -55.5 17t-59.5 5q-26 0 -48 -4.5t-38 -17t-25.5 -35t-9.5 -57.5v-33h309v-513q-11 -2 -24.5 -3t-24.5 -1t-24.5 1t-24.5 3v435h-211v-435q-11 -2 -24.5 -3t-24.5 -1t-25 1
t-25 3v435h-216v-435q-11 -2 -24.5 -3t-24.5 -1t-25 1t-25 3v435h-84q-4 16 -4 39q0 22 4 39h84v31q0 95 47 144.5t136 49.5q26 0 48 -3.5t39 -8.5q-3 -26 -10 -44t-15 -36q-9 3 -22 5.5t-31 2.5q-21 0 -38.5 -4.5t-29.5 -17t-18.5 -34.5t-6.5 -57v-28h216v36z" />
    <glyph glyph-name="ffl" unicode="ffl" horiz-adv-x="948" 
d="M430 434h-217v-434q-11 -2 -24.5 -2.5t-24.5 -0.5t-24.5 0.5t-24.5 2.5v434h-85q-3 19 -3 40q0 19 3 39h85v30q0 95 47 144.5t136 49.5q26 0 48 -3t39 -8q-4 -26 -10.5 -44.5t-14.5 -35.5q-10 2 -23 5t-30 3q-21 0 -38.5 -5t-29.5 -18t-19 -35t-7 -56v-27h217v36
q0 95 58 144.5t170 49.5q51 0 90.5 -5.5t77.5 -12.5v-541q0 -39 4 -61t11.5 -33.5t19.5 -14t27 -2.5q10 0 21 1t19 3q6 -17 8 -37.5t2 -38.5q-14 -5 -34 -6.5t-37 -1.5q-33 0 -59 7.5t-44 27t-27 52.5t-9 83v491q-17 4 -38 5.5t-38 1.5q-27 0 -50 -5t-39.5 -17.5t-25.5 -35
t-9 -57.5v-33h122q3 -21 3 -41t-3 -38h-122v-434q-11 -2 -24.5 -2.5t-24.5 -0.5t-24.5 0.5t-24.5 2.5v434z" />
    <glyph glyph-name=".notdef" horiz-adv-x="500" 
 />
    <glyph glyph-name=".null" horiz-adv-x="0" 
 />
    <glyph glyph-name="nonmarkingreturn" horiz-adv-x="500" 
 />
    <glyph glyph-name="space" unicode=" " horiz-adv-x="237" 
 />
    <glyph glyph-name="percent" unicode="%" horiz-adv-x="1050" 
d="M718 708q12 2 24.5 3t24.5 1q13 0 26.5 -1t25.5 -3l-483 -707q-14 -2 -26 -3t-24 -1q-28 0 -51 4zM908 201q0 66 -22.5 102.5t-73.5 36.5q-49 0 -72.5 -36.5t-23.5 -102.5q0 -67 22.5 -103.5t73.5 -36.5q49 0 72.5 36.5t23.5 103.5zM624 201q0 43 11.5 81.5t34.5 67.5
t58.5 46t83.5 17t83 -17t58.5 -46t35 -67.5t11.5 -81.5q0 -44 -11.5 -82.5t-35 -67t-58.5 -45.5t-83 -17t-83.5 17t-58.5 45.5t-34.5 67t-11.5 82.5zM328 507q0 66 -22.5 102.5t-73.5 36.5q-49 0 -72.5 -36.5t-23.5 -102.5q0 -67 22.5 -103.5t73.5 -36.5q49 0 72.5 36.5
t23.5 103.5zM44 507q0 43 11.5 81.5t34.5 67.5t58.5 46t83.5 17t83 -17t58.5 -46t35 -67.5t11.5 -81.5q0 -44 -11.5 -82.5t-35 -67t-58.5 -45.5t-83 -17t-83.5 17t-58.5 45.5t-34.5 67t-11.5 82.5z" />
    <glyph glyph-name="ampersand" unicode="&#x26;" horiz-adv-x="761" 
d="M185 555q0 -43 28.5 -68.5t91.5 -25.5h218l92 126h8v-126h130q4 -17 4 -39q0 -11 -1 -21.5t-3 -20.5h-130v-148q0 -61 -21 -107t-60 -76.5t-93.5 -45.5t-120.5 -15q-53 0 -102 12t-86.5 38t-59.5 67t-22 99q0 33 9.5 65t27 59.5t41 48t50.5 31.5q-43 19 -72.5 54.5
t-29.5 95.5q0 44 17 76.5t46 54t68.5 32t83.5 10.5q26 0 58 -4t67 -16q-1 -23 -6 -40.5t-16 -34.5q-26 8 -50 11.5t-47 3.5q-33 0 -55.5 -8.5t-37 -22t-21 -30.5t-6.5 -35zM336 78q58 0 95.5 15t58.5 40t29 58t8 68v119h-203q-36 0 -65 -12.5t-49 -34.5t-31 -50.5t-11 -60.5
q0 -69 43 -105.5t125 -36.5z" />
    <glyph glyph-name="quotesingle" unicode="'" horiz-adv-x="223" 
d="M64 719q11 2 23.5 3t24.5 1t24 -1t23 -3v-274q-23 -3 -47 -3q-26 0 -48 3v274z" />
    <glyph glyph-name="parenleft" unicode="(" horiz-adv-x="319" 
d="M171 -167q-23 34 -44.5 82.5t-38.5 108.5t-27.5 130.5t-10.5 149.5t10.5 150t27.5 131t38.5 108t44.5 83q8 2 20.5 3t26.5 1t27 -1t24 -3q-12 -21 -32 -61.5t-39.5 -100t-33.5 -137t-14 -173.5q0 -95 14 -173t33.5 -137t39.5 -99.5t32 -61.5q-11 -2 -25 -3t-28 -1
q-13 0 -25 1t-20 3z" />
    <glyph glyph-name="parenright" unicode=")" horiz-adv-x="319" 
d="M50 -167q12 21 32 61.5t39.5 99.5t33.5 137t14 173q0 96 -14 173.5t-33.5 137t-39.5 100t-32 61.5q11 2 24 3t27 1t26.5 -1t20.5 -3q22 -35 44 -83t39 -108t27.5 -131t10.5 -150t-10.5 -149.5t-27.5 -130.5t-39 -108.5t-44 -82.5q-8 -2 -20 -3t-25 -1q-14 0 -28 1t-25 3z
" />
    <glyph glyph-name="asterisk" unicode="*" horiz-adv-x="485" 
d="M212 719q15 3 30 3t32 -3l8 -130q-11 -2 -20.5 -2.5t-19.5 -0.5t-19.5 0.5t-18.5 2.5zM183 576q-6 -40 -23 -74l-122 48q4 31 20 59zM168 481q16 -8 32 -19.5t31 -25.5l-83 -101q-14 8 -26.5 16.5t-23.5 20.5zM427 609q16 -28 20 -59l-122 -48q-17 34 -23 74zM387 372
q-11 -12 -23.5 -20.5t-26.5 -16.5l-83 101q15 14 31 25.5t32 19.5z" />
    <glyph glyph-name="plus" unicode="+" 
d="M256 307h-166q-4 20 -4 45q0 24 4 44h166v182q11 2 21.5 3t22.5 1q11 0 22 -1t23 -3v-182h165q2 -11 3 -22t1 -22t-1 -22.5t-3 -22.5h-165v-181q-12 -2 -23 -3t-22 -1q-25 0 -44 4v181z" />
    <glyph glyph-name="comma" unicode="," horiz-adv-x="213" 
d="M79 110q12 2 24.5 3.5t23.5 1.5q23 0 51 -5l-63 -223q-12 -2 -24.5 -2.5t-23.5 -0.5q-12 0 -24 0.5t-23 2.5z" />
    <glyph glyph-name="hyphen" unicode="-" horiz-adv-x="361" 
d="M310 326q2 -10 3 -22.5t1 -23.5t-1 -23.5t-3 -21.5h-259q-2 9 -3 21.5t-1 23.5t1 23.5t3 22.5h259z" />
    <glyph glyph-name="period" unicode="." horiz-adv-x="241" 
d="M65 0q-2 14 -3.5 27.5t-1.5 27.5t1.5 28.5t3.5 28.5q14 2 27.5 3t27.5 1t28 -1t28 -3q2 -14 3.5 -28t1.5 -28t-1.5 -28t-3.5 -28q-14 -2 -27.5 -3t-27.5 -1t-28 1t-28 3z" />
    <glyph glyph-name="slash" unicode="/" horiz-adv-x="410" 
d="M278 719q12 2 23.5 3t24.5 1q11 0 23.5 -1t25.5 -3l-244 -719q-12 -2 -24 -3t-25 -1q-11 0 -23 1t-24 3z" />
    <glyph glyph-name="zero" unicode="0" 
d="M302 655q63 0 110.5 -25t79 -69.5t47 -105.5t15.5 -134q0 -72 -16 -133.5t-47.5 -105.5t-79.5 -69t-111 -25t-110 25t-78.5 69t-47 105.5t-15.5 133.5q0 73 16 134t47.5 105.5t79 69.5t110.5 25zM301 567q-69 0 -108 -61t-39 -185t39 -184.5t108 -60.5t107 60.5t38 184.5
t-38 185t-107 61z" />
    <glyph glyph-name="one" unicode="1" 
d="M137 449q-14 17 -22 34t-16 40l266 127h15v-565h143q3 -23 3 -42q0 -21 -3 -43h-391q-4 20 -4 43q0 22 4 42h150v430z" />
    <glyph glyph-name="two" unicode="2" 
d="M63 0l-6 13l196 229q26 31 48.5 58.5t39 53.5t26 51t9.5 52q0 53 -34 81t-97 28q-48 0 -81 -11t-64 -25q-8 20 -15.5 41t-9.5 43q35 15 77.5 28t99.5 13q51 0 93 -11.5t72.5 -34.5t47 -58.5t16.5 -83.5q0 -67 -37 -130t-105 -140l-96 -109h265q2 -11 3 -22t1 -23
q0 -11 -1 -22t-3 -21h-445z" />
    <glyph glyph-name="three" unicode="3" 
d="M226 15q38 0 71.5 8t58 26t39 46.5t14.5 69.5q0 62 -41 92t-107 30q-20 0 -40.5 -1.5t-40.5 -6.5l-8 14l167 263h-257q-4 20 -4 43q0 11 1 23t3 23h405l7 -12l-182 -277q3 1 7 1h8q47 0 81.5 -16.5t57 -43t33.5 -59t11 -64.5q0 -64 -22.5 -110.5t-60.5 -77t-89 -45
t-109 -14.5q-50 0 -94 8t-87 25q3 22 11.5 43t19.5 41q32 -13 67 -21t80 -8z" />
    <glyph glyph-name="four" unicode="4" 
d="M41 78l-8 11l293 574q21 -2 43.5 -10.5t43.5 -22.5l-233 -464h202v190q12 2 24 3t23 1q13 0 25.5 -1t24.5 -3v-190h92q2 -11 3 -22t1 -22t-1 -22.5t-3 -21.5h-92v-137q-13 -2 -24.5 -2.5t-23.5 -0.5t-24.5 0.5t-24.5 2.5v137h-341z" />
    <glyph glyph-name="five" unicode="5" 
d="M511 171q0 -63 -22 -109t-60.5 -76t-91 -44.5t-113.5 -14.5q-38 0 -81.5 7t-79.5 22q3 22 10 42.5t18 41.5q31 -11 61 -17.5t72 -6.5q87 0 134.5 36.5t47.5 113.5q0 28 -8.5 53t-27.5 43.5t-49.5 29t-74.5 10.5q-31 0 -61 -5t-53 -13l-10 9q3 88 6.5 175.5t7.5 176.5h340
q2 -11 2.5 -21.5t0.5 -21.5q0 -12 -0.5 -23.5t-2.5 -22.5h-250l-6 -178q19 4 38.5 5t30.5 1q50 0 91 -14t70 -41.5t45 -67t16 -90.5z" />
    <glyph glyph-name="six" unicode="6" 
d="M66 277q0 88 22.5 166t69 139t118.5 99.5t171 46.5q8 -24 8 -46q0 -10 -1 -20t-3 -18q-63 -6 -111.5 -29.5t-83.5 -60.5t-56.5 -85.5t-30.5 -103.5q22 38 64.5 65.5t106.5 27.5q40 0 78.5 -13.5t68.5 -41.5t48 -71.5t18 -103.5q0 -59 -20.5 -104t-54.5 -75t-77.5 -45.5
t-89.5 -15.5q-57 0 -102.5 16.5t-77 51.5t-48.5 89.5t-17 131.5zM315 374q-29 0 -55 -10t-45 -29.5t-30 -47.5t-11 -64q0 -75 35.5 -112t98.5 -37q30 0 55.5 10t44.5 29t30 47t11 65q0 40 -10.5 68t-28.5 46t-42.5 26.5t-52.5 8.5z" />
    <glyph glyph-name="seven" unicode="7" 
d="M245 -74q-27 6 -49.5 15.5t-43.5 26.5l256 588h-338q-2 10 -3 20.5t-1 21.5q0 12 1 24t3 23h475l4 -7z" />
    <glyph glyph-name="eight" unicode="8" 
d="M398 381q26 -11 52.5 -27t48 -40t35 -56t13.5 -74q0 -53 -21 -90.5t-56 -61t-79.5 -34t-90.5 -10.5q-47 0 -91 10.5t-79 34t-56 61t-21 90.5q0 42 13.5 73.5t35 55.5t47.5 40.5t52 27.5q-48 23 -81.5 63.5t-33.5 101.5q0 39 16.5 71t45 54.5t67.5 35t85 12.5t85 -12.5
t67.5 -35t45 -54.5t16.5 -71q0 -62 -33.5 -102t-82.5 -63zM300 339q-30 -9 -56 -22.5t-44.5 -31.5t-29.5 -41t-11 -51q0 -56 36 -88t105 -32q70 0 105.5 32t35.5 88q0 28 -11 51t-30 41t-44.5 31.5t-55.5 22.5zM300 419q24 7 45 17.5t37 24.5t25.5 33.5t9.5 44.5
q0 45 -29.5 72t-87.5 27t-87.5 -27t-29.5 -72q0 -25 9.5 -44.5t25.5 -33.5t37.5 -24.5t44.5 -17.5z" />
    <glyph glyph-name="nine" unicode="9" 
d="M540 364q0 -88 -22.5 -166t-69 -139t-118.5 -99.5t-171 -46.5q-8 19 -8 47q0 8 1 18.5t3 19.5q61 5 110.5 28.5t85.5 60.5t57.5 85.5t27.5 103.5q-21 -38 -63.5 -66t-106.5 -28q-41 0 -79 13.5t-68 41.5t-48 71.5t-18 103.5q0 59 20.5 104t54.5 75.5t77.5 46t89.5 15.5
q57 0 102.5 -16.5t77 -51.5t48.5 -90t17 -131zM291 267q29 0 55 10t45 29.5t30 47.5t11 63q0 75 -35.5 112.5t-98.5 37.5q-60 0 -100.5 -38.5t-40.5 -113.5q0 -40 10.5 -68t28.5 -46t42.5 -26t52.5 -8z" />
    <glyph glyph-name="colon" unicode=":" horiz-adv-x="241" 
d="M65 403q-2 14 -3.5 27.5t-1.5 27.5t1.5 28.5t3.5 28.5q14 2 27.5 3t27.5 1t28 -1t28 -3q2 -14 3.5 -28t1.5 -28t-1.5 -28t-3.5 -28q-14 -2 -27.5 -3t-27.5 -1t-28 1t-28 3zM65 0q-2 14 -3.5 27.5t-1.5 27.5t1.5 28.5t3.5 28.5q14 2 27.5 3t27.5 1t28 -1t28 -3
q2 -14 3.5 -28t1.5 -28t-1.5 -28t-3.5 -28q-14 -2 -27.5 -3t-27.5 -1t-28 1t-28 3z" />
    <glyph glyph-name="semicolon" unicode=";" horiz-adv-x="260" 
d="M88 110q12 2 24.5 3.5t23.5 1.5q23 0 51 -5l-63 -223q-12 -2 -24.5 -2.5t-23.5 -0.5q-12 0 -24 0.5t-23 2.5zM83 403q-2 14 -3.5 27.5t-1.5 27.5t1.5 28.5t3.5 28.5q14 2 27.5 3t27.5 1t28 -1t28 -3q2 -14 3.5 -28t1.5 -28t-1.5 -28t-3.5 -28q-14 -2 -27.5 -3t-27.5 -1
t-28 1t-28 3z" />
    <glyph glyph-name="less" unicode="&#x3c;" 
d="M511 566q5 -28 5 -46q0 -14 -1 -26.5t-3 -22.5l-328 -127l328 -122q2 -11 3 -23t1 -24q0 -15 -1 -28t-4 -25l-416 169q-6 25 -6 55q0 27 6 51z" />
    <glyph glyph-name="equal" unicode="=" 
d="M512 489q2 -10 3 -22.5t1 -23.5t-1 -23.5t-3 -21.5h-424q-2 9 -2.5 21.5t-0.5 23.5t0.5 23.5t2.5 22.5h424zM512 298q2 -10 3 -22.5t1 -23.5t-1 -23.5t-3 -21.5h-424q-2 9 -2.5 21.5t-0.5 23.5t0.5 23.5t2.5 22.5h424z" />
    <glyph glyph-name="greater" unicode="&#x3e;" 
d="M89 122q-2 14 -3 25.5t-1 20.5q0 14 1 26.5t3 22.5l327 127l-327 122q-3 11 -4 23.5t-1 23.5q0 16 1.5 29t3.5 24l417 -169l4 -26t2 -29q0 -27 -6 -51z" />
    <glyph glyph-name="question" unicode="?" horiz-adv-x="488" 
d="M182 376q38 10 68 22.5t51 30t32 40.5t11 55q0 51 -38 80t-109 29q-45 0 -72.5 -6.5t-56.5 -17.5q-9 19 -15.5 39.5t-9.5 43.5q24 8 44.5 13.5t40 8.5t39.5 4.5t43 1.5q118 0 178.5 -53.5t60.5 -141.5q0 -51 -20.5 -87.5t-48 -61t-56.5 -39t-47 -20.5v-103q-23 -4 -49 -4
q-11 0 -23 1t-23 3v162zM173 1q-2 14 -3 27.5t-1 27.5t1 28t3 28q14 2 28 3.5t28 1.5t28 -1.5t28 -3.5q2 -14 3 -27.5t1 -27.5t-1 -28t-3 -28q-13 -2 -27 -3t-28 -1t-30 1t-27 3z" />
    <glyph glyph-name="at" unicode="@" horiz-adv-x="1014" 
d="M959 393q0 -62 -18.5 -122t-54 -108t-85.5 -77.5t-113 -29.5q-70 0 -110 31q-29 -17 -65 -27t-79 -10q-70 0 -112.5 42.5t-42.5 116.5q0 68 23 125.5t62 99t91.5 65t111.5 23.5q40 0 76.5 -6t71.5 -17l-72 -357q10 -8 24.5 -10.5t28.5 -2.5q42 0 74 24.5t54.5 63t34 85
t11.5 91.5q0 127 -75 193t-211 66q-104 0 -185 -36.5t-136.5 -97.5t-84.5 -139t-29 -161q0 -78 22.5 -134t61.5 -91.5t92 -52.5t114 -17q49 0 92 7.5t78 20.5q6 -14 12 -31.5t10 -38.5q-73 -34 -194 -34q-78 0 -147.5 22t-121.5 67.5t-82 114.5t-30 163q0 90 31.5 181.5
t97.5 166t167.5 121.5t241.5 47q76 0 142.5 -20.5t116 -62.5t78 -105.5t28.5 -148.5zM608 436q-13 3 -24 4.5t-23 1.5q-39 0 -72.5 -16.5t-58 -45.5t-38.5 -68t-14 -84q0 -51 22.5 -75t67.5 -24q23 0 42 4t43 15z" />
    <glyph glyph-name="A" unicode="A" horiz-adv-x="617" 
d="M442 166h-273l-49 -166q-13 -2 -26 -3t-26 -1q-14 0 -27.5 1t-24.5 3l234 719q13 2 28 3t31 1q14 0 29 -1t29 -3l233 -719q-12 -2 -27 -3t-29 -1q-13 0 -26.5 1t-25.5 3zM196 255h219l-110 367z" />
    <glyph glyph-name="B" unicode="B" horiz-adv-x="595" 
d="M89 719q25 5 70 8t91 3q57 0 104 -10t80.5 -32.5t52 -58t18.5 -86.5q0 -31 -9.5 -57.5t-25.5 -47t-37 -34t-43 -19.5q28 -3 56.5 -15t51.5 -34t37.5 -55.5t14.5 -81.5q0 -58 -23 -98.5t-62.5 -65.5t-93 -36t-114.5 -11q-38 0 -83 3.5t-85 8.5v719zM190 79q14 -2 35.5 -3
t42.5 -1q36 0 67.5 6t55.5 20.5t38 39t14 62.5q0 37 -13 62.5t-35.5 41t-53.5 22t-67 6.5h-84v-256zM263 419q68 0 104 29.5t36 88.5q0 57 -38.5 85t-104.5 28q-20 0 -38.5 -1t-31.5 -3v-227h73z" />
    <glyph glyph-name="C" unicode="C" horiz-adv-x="618" 
d="M547 105q22 -43 28 -83q-42 -18 -86 -26t-95 -8q-78 0 -140.5 25.5t-105.5 73t-66 115.5t-23 153q0 86 23 155.5t66 118.5t105 75.5t139 26.5q57 0 98 -8t73 -19q-2 -23 -8.5 -42.5t-15.5 -41.5q-15 5 -29 9t-30 7t-35.5 4.5t-44.5 1.5q-109 0 -169.5 -74t-60.5 -213
q0 -71 17 -123t48 -86t74.5 -51t97.5 -17q42 0 76 7t64 20z" />
    <glyph glyph-name="D" unicode="D" horiz-adv-x="699" 
d="M89 719q34 4 82 7.5t94 3.5q189 0 282.5 -96t93.5 -276q0 -188 -95.5 -279t-284.5 -91q-47 0 -93 3.5t-79 8.5v719zM191 84q14 -2 34.5 -3.5t43.5 -1.5q59 0 107.5 13.5t83.5 45.5t54 86.5t19 136.5q0 75 -19 128t-53.5 86.5t-82.5 48.5t-106 15q-19 0 -41.5 -0.5
t-39.5 -3.5v-551z" />
    <glyph glyph-name="E" unicode="E" horiz-adv-x="536" 
d="M88 719h395q3 -20 3 -44q0 -11 -0.5 -23t-2.5 -22h-293v-206h234q2 -10 3 -21.5t1 -22.5t-1 -23t-3 -22h-234v-246h301q3 -20 3 -44q0 -11 -0.5 -23t-2.5 -22h-403v719z" />
    <glyph glyph-name="F" unicode="F" horiz-adv-x="504" 
d="M88 719h376q2 -10 3 -21.5t1 -22.5t-1 -23t-3 -22h-274v-211h229q2 -11 3 -22.5t1 -22.5t-1 -22.5t-3 -22.5h-229v-329q-12 -2 -24.5 -3t-26.5 -1q-13 0 -26.5 1t-24.5 3v719z" />
    <glyph glyph-name="G" unicode="G" horiz-adv-x="681" 
d="M504 372q12 2 25 3t26 1t26 -1t24 -3v-351q-21 -9 -46 -15.5t-52 -10t-54 -5.5t-51 -2q-80 0 -144 25t-108 72.5t-67.5 115.5t-23.5 154t24 155.5t68.5 118.5t106 75.5t136.5 26.5q57 0 99 -7.5t76 -20.5q-2 -23 -8.5 -42.5t-15.5 -41.5q-28 9 -60.5 16t-81.5 7
q-53 0 -96.5 -19t-74 -55.5t-47.5 -90t-17 -122.5q0 -71 17.5 -122.5t49.5 -86t75.5 -51t96.5 -16.5q32 0 56 3.5t41 8.5v281z" />
    <glyph glyph-name="H" unicode="H" horiz-adv-x="686" 
d="M88 719q12 2 25 3t26 1t26 -1t25 -3v-296h306v296q11 2 24 3t26 1t26.5 -1t25.5 -3v-719q-11 -2 -24 -3t-27 -1q-13 0 -26.5 1t-24.5 3v333h-306v-333q-12 -2 -24.5 -3t-26.5 -1q-13 0 -26.5 1t-24.5 3v719z" />
    <glyph glyph-name="I" unicode="I" horiz-adv-x="278" 
d="M88 719q12 2 25 3t26 1t26 -1t25 -3v-719q-12 -2 -24.5 -3t-26.5 -1q-13 0 -26.5 1t-24.5 3v719z" />
    <glyph glyph-name="J" unicode="J" horiz-adv-x="396" 
d="M211 630h-126q-2 10 -3 22t-1 23t1 22.5t3 21.5h228v-519q0 -60 -13 -101t-38 -65.5t-61 -35t-81 -10.5q-24 0 -48 3.5t-44 8.5q0 20 4 42t12 45q12 -3 27.5 -6.5t32.5 -3.5q18 0 36.5 3t34.5 13t26 30t10 54v453z" />
    <glyph glyph-name="K" unicode="K" horiz-adv-x="601" 
d="M220 365l231 354q14 2 27.5 3t24.5 1q13 0 28 -1t31 -3l-228 -345l257 -374q-16 -2 -31.5 -3t-29.5 -1q-12 0 -26 1t-29 3zM88 719q12 2 25 3t26 1t26 -1t25 -3v-719q-12 -2 -25 -3t-26 -1q-14 0 -27 1t-24 3v719z" />
    <glyph glyph-name="L" unicode="L" horiz-adv-x="495" 
d="M88 719q11 2 23.5 3t26.5 1q13 0 26 -1t25 -3v-629h282q2 -11 2.5 -23t0.5 -22q0 -24 -3 -45h-383v719z" />
    <glyph glyph-name="M" unicode="M" horiz-adv-x="816" 
d="M108 719q12 2 27.5 3t29.5 1t30.5 -1t27.5 -3l186 -450l187 450q10 2 25 3t29 1q13 0 29 -1t27 -3l34 -719q-12 -2 -24.5 -3t-25.5 -1t-25.5 1t-23.5 3l-23 559l-176 -410q-20 -3 -41 -3q-19 0 -38 3l-170 413l-23 -562q-11 -2 -23 -3t-23 -1q-13 0 -25 1t-23 3z" />
    <glyph glyph-name="N" unicode="N" horiz-adv-x="680" 
d="M88 719q11 2 23.5 3t23.5 1t23.5 -1t23.5 -3l313 -540v540q12 2 25 3t26 1q11 0 23 -1t23 -3v-719q-11 -2 -23.5 -3t-23.5 -1t-23.5 1t-23.5 3l-314 537v-537q-11 -2 -23.5 -3t-24.5 -1q-13 0 -25.5 1t-22.5 3v719z" />
    <glyph glyph-name="O" unicode="O" horiz-adv-x="729" 
d="M365 -12q-78 0 -135 27.5t-94.5 77t-56 117.5t-18.5 149t18.5 149t56 117.5t94.5 77.5t135 28t135 -28t94.5 -77.5t55.5 -117.5t18 -149t-18 -149t-55.5 -117.5t-94.5 -77t-135 -27.5zM365 76q50 0 86.5 19.5t60.5 56.5t36 89t12 118q0 65 -12 117.5t-36 89t-60.5 56
t-86.5 19.5t-86.5 -19.5t-60.5 -56t-36 -89t-12 -117.5q0 -66 12 -118t36 -89t60.5 -56.5t86.5 -19.5z" />
    <glyph glyph-name="P" unicode="P" horiz-adv-x="566" 
d="M88 720q15 2 35.5 4t43 3.5t45 2.5t43.5 1q55 0 104.5 -11t87 -38t59.5 -71.5t22 -111.5q0 -70 -23.5 -116.5t-62 -74.5t-87.5 -39.5t-100 -11.5q-19 0 -33.5 0.5t-31.5 2.5v-260q-24 -3 -51 -3q-12 0 -25.5 0.5t-25.5 2.5v720zM190 349q16 -2 28 -3t35 -1q31 0 61.5 6.5
t54.5 23.5t38.5 46.5t14.5 76.5q0 41 -12.5 69t-34.5 45t-53 24t-67 7q-37 0 -65 -3v-291z" />
    <glyph glyph-name="Q" unicode="Q" horiz-adv-x="724" 
d="M675 -65q-1 -23 -4.5 -45.5t-12.5 -43.5l-230 43q2 28 6 46t12 40zM362 -12q-78 0 -135 27.5t-94.5 77t-56 117.5t-18.5 149t18.5 149t56 117.5t94.5 77.5t135 28t135 -28t94.5 -77.5t55.5 -117.5t18 -149t-18 -149t-55.5 -117.5t-94.5 -77t-135 -27.5zM362 76
q50 0 86.5 19.5t60.5 56.5t36 89t12 118q0 65 -12 117.5t-36 89t-60.5 56t-86.5 19.5t-86.5 -19.5t-60.5 -56t-36 -89t-12 -117.5q0 -66 12 -118t36 -89t60.5 -56.5t86.5 -19.5z" />
    <glyph glyph-name="R" unicode="R" horiz-adv-x="597" 
d="M90 720q22 2 40 4t35.5 3.5t36.5 2.5t42 1q51 0 101 -10t89 -35t63.5 -67.5t24.5 -107.5q0 -39 -13 -71t-33 -57t-45.5 -43.5t-49.5 -30.5l-12 -6l209 -303q-27 -3 -61 -3q-27 0 -54 3l-230 333v4l8 2q27 7 57 19t55.5 31.5t42.5 47t17 66.5q0 72 -42.5 107t-114.5 35
q-17 0 -31.5 -1t-32.5 -3v-641q-11 -1 -24.5 -2t-25.5 -1t-26 0.5t-26 2.5v720z" />
    <glyph glyph-name="S" unicode="S" horiz-adv-x="545" 
d="M70 109q33 -12 69 -21t88 -9q82 0 122.5 33.5t40.5 90.5q0 28 -8.5 48t-25.5 34.5t-42.5 26.5t-59.5 26l-57 23q-29 12 -53 26.5t-41.5 35.5t-27.5 48.5t-10 65.5q0 91 62 142.5t174 51.5q48 0 91 -8t76 -20q-5 -42 -22 -83q-27 10 -62.5 18t-80.5 8q-63 0 -97 -25.5
t-34 -76.5q0 -21 8.5 -37.5t22.5 -29t33 -22.5t40 -18l56 -22q40 -16 71 -33.5t53 -41t33.5 -55.5t11.5 -75q0 -103 -71 -162.5t-199 -59.5q-31 0 -56 2t-46.5 6t-41.5 10t-41 13q2 22 9 45t15 45z" />
    <glyph glyph-name="T" unicode="T" horiz-adv-x="526" 
d="M212 630h-187q-2 10 -3 22t-1 23t1 22.5t3 21.5h476q2 -10 3 -21t1 -22t-1 -23.5t-3 -22.5h-187v-630q-23 -3 -50 -3q-28 0 -52 3v630z" />
    <glyph glyph-name="U" unicode="U" horiz-adv-x="674" 
d="M81 719q24 3 52 3q27 0 50 -3v-408q0 -62 8 -106t26 -71.5t47.5 -40.5t72.5 -13t72 13t47 40.5t26 71.5t8 106v408q25 3 51 3q28 0 52 -3v-426q0 -72 -13.5 -129t-44 -96t-79.5 -59.5t-119 -20.5t-119 20.5t-79.5 59.5t-44 96t-13.5 129v426z" />
    <glyph glyph-name="V" unicode="V" horiz-adv-x="629" 
d="M22 719q11 2 26.5 3t29.5 1q13 0 28.5 -1t28.5 -3l182 -615l181 615q27 3 55 3q13 0 27.5 -0.5t26.5 -2.5l-234 -719q-13 -2 -29 -3t-30 -1t-29.5 1t-29.5 3z" />
    <glyph glyph-name="W" unicode="W" horiz-adv-x="921" 
d="M27 719q11 2 27.5 3t30.5 1t28.5 -1t26.5 -3l123 -599l148 599q12 2 26.5 3t27.5 1q12 0 27 -1t26 -3l149 -605l125 605q11 2 23.5 3t24.5 1q14 0 28.5 -1t25.5 -3l-173 -719q-12 -2 -28 -3t-29 -1q-14 0 -31 1t-31 3l-142 563l-144 -563q-14 -2 -30.5 -3t-30.5 -1
q-12 0 -27.5 1t-27.5 3z" />
    <glyph glyph-name="X" unicode="X" horiz-adv-x="609" 
d="M300 376l-171 -376q-29 -3 -53 -3q-25 0 -55 3l178 376l-150 342q15 2 28 2.5t27 0.5q27 0 53 -3zM308 376l143 342q11 1 21 2t21 1h27q11 0 19 -0.5t19 -2.5l-150 -339l179 -379q-30 -3 -55 -3q-22 0 -53 3z" />
    <glyph glyph-name="Y" unicode="Y" horiz-adv-x="592" 
d="M246 263l-228 456q13 2 28 3t30 1q13 0 28.5 -1t27.5 -3l168 -357l166 357q13 2 26 3t27 1t28 -1t27 -3l-225 -456v-263q-13 -2 -26 -3t-26 -1t-26.5 1t-24.5 3v263z" />
    <glyph glyph-name="Z" unicode="Z" horiz-adv-x="566" 
d="M24 9l362 621h-317q-2 9 -3 21t-1 23t1 23t3 22h467l7 -9l-363 -621h337q2 -9 3 -21.5t1 -23.5t-1 -23t-3 -21h-487z" />
    <glyph glyph-name="bracketleft" unicode="[" horiz-adv-x="319" 
d="M50 760h215q2 -11 3 -20.5t1 -20.5t-1 -21t-3 -19h-117v-766h117q2 -10 3 -19.5t1 -20.5t-1 -21t-3 -20h-215v928z" />
    <glyph glyph-name="backslash" unicode="\" horiz-adv-x="412" 
d="M373 0q-12 -2 -24 -3t-23 -1q-13 0 -25.5 1t-24.5 3l-244 719q11 2 24 3t25 1t25 -1t24 -3z" />
    <glyph glyph-name="bracketright" unicode="]" horiz-adv-x="319" 
d="M54 -168q-4 19 -4 41q0 23 4 40h117v765h-117q-2 8 -3 16t-1 16q0 27 4 50h215v-928h-215z" />
    <glyph glyph-name="asciicircum" unicode="^" horiz-adv-x="550" 
d="M223 719q12 2 25.5 3t24.5 1q13 0 26.5 -1t27.5 -3l160 -351q-14 -2 -25.5 -2.5t-22.5 -0.5h-22.5t-22.5 2l-122 268l-117 -268q-11 -2 -23 -2h-23q-10 0 -22 0.5t-26 2.5z" />
    <glyph glyph-name="underscore" unicode="_" horiz-adv-x="505" 
d="M500 -15q4 -17 4 -37q0 -19 -4 -36h-494q-3 10 -4 19t-1 19q0 8 1 17t4 18h494z" />
    <glyph glyph-name="grave" unicode="`" horiz-adv-x="500" 
d="M129 721q15 2 30 3t33 1q16 0 32.5 -1t31.5 -3l115 -127q-23 -4 -47 -4q-15 0 -28.5 1t-24.5 3z" />
    <glyph glyph-name="a" unicode="a" horiz-adv-x="517" 
d="M351 241q-15 2 -38 4t-39 2q-62 0 -94.5 -23t-32.5 -70q0 -30 11 -47t27.5 -26t36.5 -11t38 -2q23 0 47.5 2.5t43.5 7.5v163zM351 338q0 59 -30 82t-87 23q-35 0 -65.5 -5.5t-59.5 -14.5q-19 33 -19 79q34 11 75 17t79 6q100 0 152 -45.5t52 -145.5v-321
q-35 -8 -85 -16.5t-102 -8.5q-49 0 -88.5 9t-67 29t-42.5 51t-15 75q0 43 17.5 75.5t47.5 54t69 32t82 10.5q32 0 52.5 -1.5t34.5 -3.5v19z" />
    <glyph glyph-name="b" unicode="b" horiz-adv-x="590" 
d="M79 733q11 2 24.5 3t24.5 1t25 -1t25 -3v-282q18 30 56 52t92 22q46 0 85 -15t67 -46.5t43.5 -80t15.5 -114.5q0 -132 -74.5 -206.5t-214.5 -74.5q-44 0 -90.5 8.5t-78.5 19.5v717zM178 83q18 -6 38.5 -8.5t42.5 -2.5q37 0 68.5 11.5t54.5 35t36.5 60t13.5 86.5
q0 83 -29 129t-96 46q-23 0 -45.5 -7.5t-41.5 -24t-30.5 -44t-11.5 -66.5v-215z" />
    <glyph glyph-name="c" unicode="c" horiz-adv-x="478" 
d="M422 89q8 -14 14 -35t7 -43q-59 -23 -135 -23q-128 0 -193 72.5t-65 195.5q0 57 16 106t47.5 85t78.5 57t109 21q42 0 74 -5t61 -16q0 -17 -4.5 -39.5t-12.5 -39.5q-49 17 -112 17q-77 0 -115 -51t-38 -135q0 -96 43 -140.5t118 -44.5q30 0 55.5 4t51.5 14z" />
    <glyph glyph-name="d" unicode="d" horiz-adv-x="586" 
d="M409 733q11 2 25 3t24 1q11 0 24.5 -1t24.5 -3v-719q-38 -11 -85 -18.5t-105 -7.5q-54 0 -102.5 13.5t-84.5 44.5t-57 80t-21 121q0 62 18.5 113t52.5 87.5t81.5 56.5t105.5 20q26 0 52.5 -4t46.5 -10v223zM409 426q-20 8 -43 12t-50 4q-41 0 -71 -15t-49.5 -41
t-29 -61.5t-9.5 -77.5q1 -95 45 -136t120 -41q26 0 48 2.5t39 7.5v346z" />
    <glyph glyph-name="e" unicode="e" horiz-adv-x="556" 
d="M154 232q2 -84 43.5 -123t122.5 -39q71 0 135 25q8 -15 13 -36.5t6 -42.5q-33 -14 -72.5 -21t-87.5 -7q-70 0 -120 19.5t-82.5 55t-47.5 84t-15 106.5q0 57 14.5 106.5t44.5 86t75.5 58t107.5 21.5q53 0 93 -18t67 -49.5t41 -75t14 -94.5q0 -14 -1 -29.5t-2 -26.5h-349z
M408 306q0 28 -7.5 53.5t-22 44.5t-37 30.5t-53.5 11.5q-61 0 -93.5 -37t-39.5 -103h253z" />
    <glyph glyph-name="f" unicode="f" horiz-adv-x="370" 
d="M115 435h-84q-4 16 -4 39q0 22 4 39h84v36q0 95 47.5 144.5t138.5 49.5q25 0 44 -2.5t36 -7.5q-2 -25 -5.5 -43t-9.5 -37q-10 2 -23.5 4.5t-32.5 2.5q-22 0 -39.5 -4.5t-30 -17t-19.5 -35t-7 -57.5v-33h131q3 -20 3 -41q0 -19 -3 -37h-131v-435q-11 -2 -24.5 -3t-24.5 -1
t-25 1t-25 3v435z" />
    <glyph glyph-name="g" unicode="g" horiz-adv-x="553" 
d="M355 66q89 -2 129 -38t40 -99q0 -41 -21 -73.5t-58 -56t-87.5 -36t-109.5 -12.5q-103 0 -157 32t-54 101q0 41 22 73.5t57 51.5q-20 13 -33.5 32.5t-13.5 48.5q0 37 16.5 64t44.5 48q-33 23 -53 59.5t-20 82.5q0 38 14 71t40.5 57.5t65.5 38.5t89 14q45 0 81.5 -13
t62.5 -33q20 16 54 26.5t75 10.5q4 -19 4 -42q0 -11 -1 -23t-3 -24h-90q11 -17 17 -37t6 -46q0 -41 -15 -74t-42.5 -56.5t-65.5 -36t-83 -12.5q-41 0 -74 9q-14 -8 -27.5 -24.5t-13.5 -35.5q0 -18 13 -31.5t58 -14.5zM220 -13q-45 1 -67.5 -24t-22.5 -60q0 -22 9 -36
t25.5 -22.5t39 -12t49.5 -3.5q80 0 125 26.5t45 66.5q0 30 -19 46t-70 17zM266 237q54 0 80 30t26 77q0 48 -26 78.5t-80 30.5t-79.5 -30.5t-25.5 -78.5q0 -47 25.5 -77t79.5 -30z" />
    <glyph glyph-name="h" unicode="h" horiz-adv-x="578" 
d="M79 733q11 2 24.5 3t24.5 1t25 -1t25 -3v-298q9 14 22.5 30t33 29.5t45 22t56.5 8.5q88 0 130.5 -50.5t42.5 -149.5v-325q-11 -2 -24.5 -3t-24.5 -1t-24.5 1t-24.5 3v298q0 71 -23.5 104.5t-71.5 33.5q-27 0 -52 -9.5t-44 -30t-30 -53.5t-11 -80v-263q-11 -2 -25 -3
t-25 -1q-10 0 -24 1t-25 3v733z" />
    <glyph glyph-name="i" unicode="i" horiz-adv-x="288" 
d="M110 435h-65q-2 8 -3 18.5t-1 20.5t1 20.5t3 18.5h162v-513q-11 -2 -24.5 -3t-24.5 -1q-10 0 -23.5 1t-24.5 3v435zM88 626q-2 12 -2.5 26t-0.5 25t0.5 25t2.5 25q13 2 28 3t26 1t26 -1t27 -3q2 -11 2.5 -25t0.5 -25t-0.5 -25t-2.5 -26q-12 -2 -26.5 -3t-25.5 -1
q-12 0 -27 1t-28 3z" />
    <glyph glyph-name="j" unicode="j" horiz-adv-x="290" 
d="M113 435h-65q-2 8 -3 18.5t-1 20.5t1 20.5t3 18.5h162v-542q0 -45 -12 -75t-33.5 -48.5t-50.5 -26.5t-63 -8q-54 0 -91 13q1 19 5 39t11 36q24 -8 56 -8q13 0 27 2t26 10.5t20 25.5t8 47v457zM89 627q-2 14 -3 26.5t-1 23.5t1 23.5t3 25.5q13 2 28 3.5t26 1.5t25.5 -1.5
t26.5 -3.5q2 -13 3 -25.5t1 -23.5t-1 -23.5t-3 -26.5q-12 -2 -26.5 -3.5t-25.5 -1.5t-26 1.5t-28 3.5z" />
    <glyph glyph-name="k" unicode="k" horiz-adv-x="514" 
d="M76 733q11 2 24.5 3t24.5 1t25 -1t25 -3v-733q-11 -2 -25 -3t-25 -1t-24.5 1t-24.5 3v733zM202 266l163 247q13 2 26 3t27 1q15 0 28.5 -1t27.5 -3l-163 -240l191 -273q-14 -2 -27 -3t-27 -1t-28 1t-28 3z" />
    <glyph glyph-name="l" unicode="l" horiz-adv-x="298" 
d="M78 733q11 2 24.5 3t24.5 1t24.5 -1t24.5 -3v-578q0 -28 5 -44t13.5 -24.5t20 -11t24.5 -2.5q9 0 20.5 1t19.5 3q9 -35 9 -76q-14 -5 -34 -6.5t-37 -1.5q-29 0 -54 7t-44 23t-30 43t-11 67v600z" />
    <glyph glyph-name="m" unicode="m" horiz-adv-x="854" 
d="M80 513q11 2 21.5 3t21.5 1t20.5 -1t20.5 -3q3 -15 6 -39.5t3 -41.5q9 18 22.5 34.5t32 29.5t42.5 21t53 8q60 0 92.5 -24.5t49.5 -68.5q10 17 24.5 34t32.5 30t41 21t52 8q89 0 129.5 -50t40.5 -148v-327q-11 -2 -25 -3t-25 -1t-24.5 1t-24.5 3v298q0 69 -21 103.5
t-69 34.5q-51 0 -82.5 -37t-31.5 -109v-290q-11 -2 -24.5 -3t-24.5 -1t-24.5 1t-24.5 3v305q0 67 -20 100.5t-64 33.5q-25 0 -47 -11t-38.5 -33t-26 -55.5t-9.5 -77.5v-262q-11 -2 -24.5 -3t-24.5 -1t-25 1t-25 3v513z" />
    <glyph glyph-name="n" unicode="n" horiz-adv-x="578" 
d="M80 513q11 2 21.5 3t21.5 1t20.5 -1t20.5 -3q3 -15 6 -40.5t3 -42.5q10 17 25.5 34t35.5 30.5t46 22t57 8.5q88 0 130 -50.5t42 -149.5v-325q-11 -2 -25 -3t-25 -1t-24.5 1t-24.5 3v298q0 71 -22 104.5t-70 33.5q-28 0 -53 -10t-44 -31t-30.5 -54.5t-11.5 -80.5v-260
q-11 -2 -24.5 -3t-24.5 -1t-25 1t-25 3v513z" />
    <glyph glyph-name="o" unicode="o" horiz-adv-x="577" 
d="M288 -12q-60 0 -105 20.5t-75 56.5t-44.5 85t-14.5 106t14.5 106t44.5 85t75 57t105 21t105 -21t75 -57t44.5 -85t14.5 -106t-14.5 -106t-44.5 -85t-75 -56.5t-105 -20.5zM288 67q69 0 102 50t33 139t-33 138.5t-102 49.5t-101.5 -49.5t-32.5 -138.5t32.5 -139t101.5 -50
z" />
    <glyph glyph-name="p" unicode="p" horiz-adv-x="590" 
d="M79 513q10 2 20.5 3t21.5 1q10 0 21 -1t21 -3q1 -2 2.5 -12.5t3 -22.5t3 -23t1.5 -14q10 16 24 31t33.5 27t44 19t54.5 7q45 0 83.5 -15t66 -46.5t43 -80t15.5 -114.5q0 -132 -71.5 -206.5t-202.5 -74.5q-22 0 -45 3t-40 8v-235q-12 -2 -25.5 -3t-24.5 -1t-24.5 1
t-24.5 3v749zM178 84q19 -7 39 -10t52 -3q36 0 66 11.5t51.5 35.5t34 60.5t12.5 86.5q0 80 -29.5 127t-96.5 47q-25 0 -48 -9t-41 -27t-29 -45.5t-11 -65.5v-208z" />
    <glyph glyph-name="q" unicode="q" horiz-adv-x="585" 
d="M408 0q-21 -5 -44.5 -8t-52.5 -3q-52 0 -99 12.5t-82.5 42.5t-56.5 78.5t-21 120.5q0 62 19.5 114t55.5 89.5t87.5 58t115.5 20.5q56 0 96 -6t80 -17v-738q-11 -2 -24.5 -3t-24.5 -1t-24.5 1t-24.5 3v236zM408 434q-14 3 -23.5 4.5t-18 2l-17 1t-19.5 0.5q-44 0 -77 -15
t-54.5 -42t-32.5 -64t-11 -82t12 -77t33.5 -52.5t50.5 -29.5t64 -9q26 0 49.5 4t43.5 9v350z" />
    <glyph glyph-name="r" unicode="r" horiz-adv-x="372" 
d="M80 513q11 2 21 3t21 1t22 -1t20 -3q3 -15 6 -39.5t3 -41.5q21 34 55.5 59t88.5 25q8 0 16.5 -0.5t14.5 -1.5q2 -9 3 -19t1 -21q0 -12 -1.5 -25t-3.5 -25q-8 2 -16.5 2h-13.5q-27 0 -51.5 -7.5t-44 -26.5t-31 -52t-11.5 -85v-255q-11 -2 -24.5 -3t-24.5 -1t-24.5 1
t-25.5 3v513z" />
    <glyph glyph-name="s" unicode="s" horiz-adv-x="455" 
d="M71 93q27 -11 59.5 -17.5t64.5 -6.5q23 0 44 5t36.5 15t25 24.5t9.5 32.5q0 20 -7.5 33t-20 22t-29 15.5t-35.5 12.5l-35 13q-64 24 -93 54t-29 81q0 68 48.5 108t142.5 40q39 0 76.5 -7.5t65.5 -17.5q-2 -20 -7.5 -40t-13.5 -37q-22 8 -52.5 15.5t-65.5 7.5
q-37 0 -65.5 -13t-28.5 -46q0 -17 7 -29t19 -20.5t27.5 -14.5t33.5 -12l44 -15q24 -8 45.5 -19t37 -27.5t25 -40t9.5 -56.5q0 -37 -15 -67.5t-42.5 -52t-66.5 -33.5t-86 -12q-48 0 -84 6.5t-67 17.5q2 20 8.5 40.5t14.5 40.5z" />
    <glyph glyph-name="t" unicode="t" horiz-adv-x="358" 
d="M99 434h-78l-4 14l172 192h8v-127h130q4 -17 4 -38q0 -11 -1 -21t-3 -20h-130v-234q0 -42 3.5 -67t12 -38.5t23 -18t36.5 -4.5q17 0 32 2.5t27 5.5q7 -20 8.5 -41t1.5 -37q-20 -5 -42 -7.5t-47 -2.5q-72 0 -112.5 35t-40.5 116v291z" />
    <glyph glyph-name="u" unicode="u" horiz-adv-x="574" 
d="M74 513q11 2 25 3t24 1q11 0 25 -1t25 -3v-281q0 -48 9 -79.5t27 -49.5t44 -25t60 -7q51 0 87 11v431q11 2 24.5 3t24.5 1t24.5 -1t24.5 -3v-497q-35 -10 -83.5 -19t-100.5 -9q-49 0 -92.5 8.5t-76.5 34.5t-52 73t-19 124v285z" />
    <glyph glyph-name="v" unicode="v" horiz-adv-x="531" 
d="M17 513q14 2 29 3t27 1q13 0 28.5 -1t26.5 -3l140 -423l141 423q11 2 25 3t27 1q11 0 25 -1t28 -3l-200 -513q-13 -2 -26 -3t-24 -1t-23.5 1t-24.5 3z" />
    <glyph glyph-name="w" unicode="w" horiz-adv-x="775" 
d="M22 513q14 2 28 3t25 1q14 0 28.5 -1t25.5 -3l100 -419l113 419q11 2 24 3t27 1q16 -1 27.5 -1.5t22.5 -2.5l112 -412l100 412q11 2 22 3t24 1q11 0 24.5 -1t27.5 -3l-153 -513q-13 -2 -26.5 -3t-24.5 -1t-24 1t-26 3l-110 388l-115 -388q-14 -2 -27.5 -3t-24.5 -1
t-24.5 1t-24.5 3z" />
    <glyph glyph-name="x" unicode="x" horiz-adv-x="509" 
d="M157 266l-121 247q23 4 52 4q14 0 27.5 -1t28.5 -3l106 -248l-128 -265q-13 -2 -25.5 -3t-24.5 -1q-14 0 -27 1t-27 3zM258 265l107 248q14 2 28 3t28 1q27 0 50 -4l-119 -244l139 -269q-14 -2 -27 -3t-27 -1q-27 0 -50 4z" />
    <glyph glyph-name="y" unicode="y" horiz-adv-x="529" 
d="M255 -1q-8 0 -16.5 -0.5t-16.5 -0.5q-10 0 -21 0.5t-18 1.5l-170 513q13 2 27 2.5t26 0.5q13 0 29 -0.5t27 -2.5l142 -477l147 477q21 3 49 3q11 0 25 -0.5t28 -2.5l-199 -617q-14 -41 -29 -69t-34 -45t-42.5 -24t-54.5 -7q-23 0 -45.5 3.5t-39.5 8.5q0 23 4 41t12 36
q9 -3 24.5 -6.5t33.5 -3.5q13 0 24.5 2.5t21.5 10t18.5 21.5t16.5 38z" />
    <glyph glyph-name="z" unicode="z" horiz-adv-x="477" 
d="M29 14l270 420h-238q-3 18 -3 40q0 21 3 39h385l5 -13l-272 -421h255q3 -20 3 -41q0 -20 -3 -38h-400z" />
    <glyph glyph-name="braceleft" unicode="{" horiz-adv-x="414" 
d="M152 39q0 58 -2 98t-12 68.5t-30.5 48.5t-57.5 39v13q27 14 46.5 29.5t31.5 35.5t17.5 45.5t5.5 59.5q0 71 4.5 125t24 90.5t58.5 55t107 18.5h14q2 -10 3 -19.5t1 -20.5t-1 -20.5t-3 -18.5q-38 0 -60 -8t-33.5 -26.5t-15 -47.5t-3.5 -71v-6q0 -55 -4 -93t-14 -63.5
t-26.5 -42t-40.5 -28.5q24 -13 40.5 -29.5t26.5 -42t14 -63.5t4 -93v-7q0 -41 3.5 -70t15 -47t33.5 -26.5t60 -8.5q2 -9 3 -18.5t1 -20.5q0 -10 -1 -20t-3 -20q-60 0 -99.5 12t-63.5 37t-34 64t-10 92z" />
    <glyph glyph-name="bar" unicode="|" horiz-adv-x="333" 
d="M118 776q11 2 23.5 3t25.5 1q12 0 24.5 -1t23.5 -3v-944q-11 -2 -23 -3t-25 -1t-25.5 1t-23.5 3v944z" />
    <glyph glyph-name="braceright" unicode="}" horiz-adv-x="414" 
d="M261 39q0 -53 -10 -92t-34 -64t-63.5 -37t-99.5 -12q-2 10 -3 20t-1 20q0 11 1 20.5t3 18.5q37 0 59.5 8.5t34 26.5t15 47t3.5 70v7q0 55 4 93t14 63.5t26.5 42t40.5 29.5q-24 12 -40.5 28.5t-26.5 42t-14 63.5t-4 93v6q0 42 -3.5 71t-15 47.5t-34 26.5t-59.5 8
q-2 9 -3 18.5t-1 20.5t1 20.5t3 19.5h14q68 0 107 -18.5t58.5 -55t24 -90.5t4.5 -125q0 -34 5.5 -59.5t17.5 -45.5t31.5 -35.5t46.5 -29.5v-13q-37 -19 -57.5 -39t-30.5 -48.5t-12 -68.5t-2 -98z" />
    <glyph glyph-name="asciitilde" unicode="~" horiz-adv-x="477" 
d="M19 409q20 24 56 41.5t76 17.5q23 0 45 -6.5t44.5 -14t45 -13.5t45.5 -6q20 0 40.5 7t45.5 30q16 -15 25.5 -32.5t16.5 -36.5q-23 -23 -54 -37.5t-73 -14.5q-23 0 -45.5 6t-45 13.5t-45 14t-43.5 6.5q-24 0 -45.5 -8t-45.5 -31q-32 28 -43 64z" />
    <glyph glyph-name="uni00A0" unicode="&#xa0;" horiz-adv-x="0" 
 />
    <glyph glyph-name="exclamdown" unicode="&#xa1;" horiz-adv-x="290" 
d="M197 -204q-14 -2 -26.5 -3t-25.5 -1q-14 0 -27.5 1t-27.5 3l6 503q12 2 24 3t23 1q12 0 24 -1t23 -3zM201 515q2 -14 3 -28t1 -28t-1 -28t-3 -28q-14 -2 -28 -3t-28 -1t-28 1t-28 3q-2 14 -3 27.5t-1 27.5t1 28.5t3 28.5q14 2 27.5 3t27.5 1t28.5 -1t28.5 -3z" />
    <glyph glyph-name="cent" unicode="&#xa2;" 
d="M325 -9q-106 11 -159.5 81t-53.5 184q0 52 13.5 98t40 81t66.5 58t93 29v114q18 5 34 5t36 -5v-113q29 -2 54 -7t48 -13q0 -20 -5 -41t-12 -37q-25 8 -52 12.5t-59 4.5q-78 0 -117 -50.5t-39 -135.5q0 -97 44 -141.5t119 -44.5q30 0 55 4t52 14q8 -14 14 -35t7 -43
q-26 -8 -52.5 -13.5t-56.5 -7.5v-107q-16 -4 -35 -4q-9 0 -18 1t-17 3v109z" />
    <glyph glyph-name="sterling" unicode="&#xa3;" 
d="M99 12l19 18q19 18 33 42t22.5 50t12.5 50.5t4 44.5q0 22 -2.5 43.5t-7.5 44.5h-87q-3 18 -3 39q0 19 3 39h71q-5 29 -9.5 58.5t-4.5 60.5q0 43 13.5 82.5t41 69.5t70 48t101.5 18q53 0 88.5 -8t61.5 -19q-2 -20 -7 -40t-16 -43q-28 12 -56 18t-65 6q-35 0 -59.5 -11
t-39.5 -30t-22 -44.5t-7 -53.5q0 -31 4.5 -58t10.5 -54h187q3 -20 3 -41q0 -19 -3 -37h-173q4 -18 6.5 -36.5t2.5 -37.5q0 -42 -9 -78.5t-28 -62.5h272q2 -11 2.5 -23t0.5 -22q0 -24 -3 -45h-424z" />
    <glyph glyph-name="currency" unicode="&#xa4;" 
d="M84 348q0 34 10 64t28 56l-79 80q11 22 26 36t35 23l79 -80q25 17 54.5 26t62.5 9t62.5 -9t55.5 -26l80 80q18 -11 33.5 -25.5t25.5 -32.5l-79 -79q19 -26 29.5 -57t10.5 -65t-10.5 -64t-27.5 -56l76 -76q-22 -38 -57 -59l-79 78q-53 -36 -120 -36q-68 0 -121 36l-77 -77
q-22 10 -36 25.5t-23 34.5l76 76q-17 25 -26 55t-9 63zM173 348q0 -28 9.5 -52t26.5 -42t40.5 -28.5t50.5 -10.5q28 0 51.5 10.5t40.5 28.5t27 42t10 52t-10 52t-27 42t-40.5 28.5t-51.5 10.5q-27 0 -50.5 -10.5t-40.5 -28.5t-26.5 -42t-9.5 -52z" />
    <glyph glyph-name="yen" unicode="&#xa5;" 
d="M251 157h-184q-4 12 -4 34q0 9 1 18t3 17h184v88h-184q-4 12 -4 34q0 9 1 18t3 17h144l-184 324q13 2 28.5 3t29.5 1t29 -1t27 -3l164 -302l161 302q13 2 26.5 3t27.5 1t28 -1t26 -3l-181 -324h152q3 -14 3 -32q0 -22 -3 -37h-192v-88h192q3 -14 3 -32q0 -22 -3 -37h-192
v-157q-12 -2 -25 -3t-26 -1t-26 1t-25 3v157z" />
    <glyph glyph-name="brokenbar" unicode="&#xa6;" horiz-adv-x="333" 
d="M118 776q11 2 23.5 3t25.5 1q12 0 24.5 -1t23.5 -3v-333q-20 -4 -48 -4q-13 0 -25.5 1t-23.5 3v333zM118 165q11 2 23.5 3t25.5 1q12 0 24.5 -1t23.5 -3v-333q-11 -2 -23 -3t-25 -1t-25.5 1t-23.5 3v333z" />
    <glyph glyph-name="section" unicode="&#xa7;" horiz-adv-x="562" 
d="M69 14q7 44 25 78q27 -11 62 -19.5t75 -8.5q67 0 104 18t37 52q0 29 -23.5 42.5t-58.5 24.5q-67 21 -110.5 37.5t-68.5 33.5t-35 38t-10 51q0 33 16.5 64t40.5 57q-15 15 -24 36.5t-9 49.5q0 34 15.5 62t43 47.5t66.5 30t87 10.5q50 0 86.5 -7.5t73.5 -19.5q0 -20 -7 -40
t-17 -38q-26 11 -56.5 19t-70.5 8q-58 0 -89.5 -16.5t-31.5 -50.5q0 -32 21 -44.5t56 -23.5l124 -38q104 -32 104 -118q0 -39 -16.5 -70t-40.5 -58q16 -15 25 -35.5t9 -49.5q0 -35 -17 -62.5t-48 -47t-74.5 -29.5t-96.5 -10q-47 0 -89 7t-78 20zM339 270q5 -2 11.5 -4
t15.5 -5q11 10 24 29t13 45q0 21 -14.5 36.5t-46.5 25.5l-71 22q-22 7 -42.5 12t-35.5 13q-12 -11 -24 -29t-12 -41q0 -25 16 -40.5t50 -26.5z" />
    <glyph glyph-name="dieresis" unicode="&#xa8;" horiz-adv-x="500" 
d="M97 604q-2 13 -3 25t-1 25q0 12 1 24.5t3 25.5q12 2 25.5 3t25.5 1q11 0 24.5 -1t26.5 -3q4 -23 4 -50q0 -12 -1 -24.5t-3 -25.5q-26 -3 -51 -3q-11 0 -25 0.5t-26 2.5zM301 604q-4 23 -4 50q0 12 1 24.5t3 25.5q12 2 25.5 3t24.5 1q12 0 25.5 -1t26.5 -3q3 -26 3 -50
q0 -25 -3 -50q-26 -3 -51 -3q-11 0 -25 0.5t-26 2.5z" />
    <glyph glyph-name="copyright" unicode="&#xa9;" horiz-adv-x="846" 
d="M524 238q8 -14 13 -30.5t8 -36.5q-47 -21 -108 -21q-46 0 -82 15.5t-61 43.5t-38 66t-13 83t13.5 84t38 67.5t60 45t80.5 16.5q36 0 57.5 -4t45.5 -12q-1 -18 -4.5 -35.5t-11.5 -33.5q-22 7 -39.5 9.5t-39.5 2.5q-57 0 -86.5 -37.5t-29.5 -102.5q0 -67 31.5 -101.5
t86.5 -34.5q21 0 40 3.5t39 12.5zM423 52q70 0 125 24t93.5 65.5t59 97.5t20.5 120t-20.5 120t-59 97.5t-93.5 65.5t-125 24t-125 -24t-93.5 -65.5t-59 -97.5t-20.5 -120t20.5 -120t59 -97.5t93.5 -65.5t125 -24zM423 -13q-83 0 -151.5 28.5t-117 78t-75.5 117.5t-27 148
q0 79 27 147.5t75.5 118t117 78t151.5 28.5t151.5 -28t117 -78t75.5 -118t27 -148t-27 -148t-75.5 -117.5t-117 -78t-151.5 -28.5z" />
    <glyph glyph-name="ordfeminine" unicode="&#xaa;" horiz-adv-x="500" 
d="M307 492q-11 2 -27 3t-30 1q-51 0 -79.5 -17t-28.5 -52q0 -21 9.5 -33.5t23.5 -19t31 -8.5t32 -2q37 0 69 6v122zM307 570q0 44 -24 60.5t-71 16.5q-26 0 -51 -4t-48 -11q-8 14 -12.5 32t-4.5 35q27 8 61 13t66 5q82 0 124.5 -36t42.5 -114v-250q-28 -7 -70 -13.5
t-84 -6.5q-85 0 -129.5 30t-44.5 99q0 35 14.5 60.5t38.5 42t56 24.5t68 8q20 0 37 -1t31 -3v13z" />
    <glyph glyph-name="guillemotleft" unicode="&#xab;" horiz-adv-x="618" 
d="M301 267l166 221q12 2 24.5 3t25.5 1q14 0 28 -1t28 -3l-163 -220l163 -223q-14 -2 -27.5 -3t-27.5 -1q-28 0 -51 4zM49 267l166 221q12 2 24.5 3t25.5 1q14 0 28 -1t28 -3l-163 -220l163 -223q-14 -2 -27.5 -3t-27.5 -1q-28 0 -51 4z" />
    <glyph glyph-name="logicalnot" unicode="&#xac;" 
d="M508 386v-279q-9 -2 -21.5 -3t-23.5 -1t-24 1t-23 3v187h-325q-2 9 -3 21.5t-1 23.5t1 24t3 23h417z" />
    <glyph glyph-name="uni00AD" unicode="&#xad;" horiz-adv-x="361" 
d="M310 326q2 -10 3 -22.5t1 -23.5t-1 -23.5t-3 -21.5h-259q-2 9 -3 21.5t-1 23.5t1 23.5t3 22.5h259z" />
    <glyph glyph-name="registered" unicode="&#xae;" horiz-adv-x="846" 
d="M299 558q26 3 50.5 5t53.5 2q36 0 66 -7t51.5 -21t34 -37t12.5 -54q0 -45 -22 -72.5t-48 -40.5l105 -159q-14 -2 -25.5 -2.5t-22.5 -0.5q-21 0 -39 3l-114 178l20 9q24 11 45.5 29.5t21.5 47.5t-21 45t-55 16q-8 0 -17 -0.5t-20 -2.5v-323q-15 -3 -37 -3q-21 0 -39 3v385
zM422 52q70 0 125 24t93.5 65t59 97t20.5 121q0 64 -20.5 120t-59 97t-93.5 65t-125 24q-69 0 -124.5 -24t-93.5 -65t-58.5 -97t-20.5 -120q0 -65 20.5 -121t58.5 -97t93.5 -65t124.5 -24zM422 -13q-83 0 -151.5 28.5t-117 78t-75.5 117.5t-27 148q0 79 27 147.5t75.5 118
t117 78t151.5 28.5t151.5 -28t117 -78t75.5 -118t27 -148t-27 -148t-75.5 -117.5t-117 -78t-151.5 -28.5z" />
    <glyph glyph-name="macron" unicode="&#xaf;" horiz-adv-x="500" 
d="M385 694q2 -8 3 -18t1 -19t-1 -19t-3 -18h-270q-2 8 -3 18t-1 19q0 8 1 18.5t3 18.5h270z" />
    <glyph glyph-name="degree" unicode="&#xb0;" horiz-adv-x="370" 
d="M40 580q0 31 11.5 57.5t31.5 46t46.5 31t56.5 11.5t57 -11.5t47 -31t31.5 -46t11.5 -57.5q0 -30 -11.5 -56.5t-31.5 -46t-47 -31t-57 -11.5t-56.5 11.5t-46.5 31t-31.5 46t-11.5 56.5zM112 580q0 -34 21 -56t53 -22t54 22t22 56t-22 56.5t-54 22.5t-53 -22.5t-21 -56.5z
" />
    <glyph glyph-name="plusminus" unicode="&#xb1;" 
d="M256 307h-166q-4 20 -4 45q0 24 4 44h166v182q11 2 21.5 3t22.5 1q11 0 22 -1t23 -3v-182h165q2 -11 3 -22t1 -22t-1 -22.5t-3 -22.5h-165v-181q-12 -2 -23 -3t-22 -1q-25 0 -44 4v181zM512 92q2 -10 3 -22.5t1 -23.5t-1 -23.5t-3 -21.5h-424q-2 9 -2.5 21.5t-0.5 23.5
t0.5 23.5t2.5 22.5h424z" />
    <glyph glyph-name="twosuperior" unicode="&#xb2;" horiz-adv-x="450" 
d="M227 378h153q1 -8 1.5 -17t0.5 -19t-0.5 -19t-1.5 -17h-309l-5 12q32 34 68 70.5t66 71t49.5 65.5t19.5 56q0 32 -24 43.5t-59 11.5q-30 0 -49 -5t-36 -12q-5 13 -10.5 31.5t-8.5 39.5q31 11 58 16.5t60 5.5q71 0 114 -32t43 -92q0 -45 -23 -85.5t-68 -85.5z" />
    <glyph glyph-name="threesuperior" unicode="&#xb3;" horiz-adv-x="450" 
d="M361 707l8 -15l-98 -142q27 -3 47.5 -14.5t34 -27t20.5 -34.5t7 -37q0 -34 -14 -60.5t-38.5 -45t-58.5 -28t-73 -9.5q-18 0 -32.5 1t-28 3t-27 5t-30.5 8q2 18 7.5 36t12.5 32q26 -8 49 -12.5t46 -4.5q41 0 70.5 17.5t29.5 55.5q0 32 -26 47t-59 15q-10 0 -19 -0.5
t-20 -3.5l-11 12l87 133h-140q-3 18 -3 34q0 17 3 35h256z" />
    <glyph glyph-name="acute" unicode="&#xb4;" horiz-adv-x="500" 
d="M229 594q-11 -2 -24 -3t-29 -1q-11 0 -22.5 1t-23.5 3l115 127q15 2 31 3t33 1q18 0 33 -1t29 -3z" />
    <glyph glyph-name="mu" unicode="&#xb5;" horiz-adv-x="603" 
d="M80 513q11 2 24.5 3t24.5 1t24.5 -1t24.5 -3v-268q0 -88 29.5 -130.5t93.5 -42.5q25 0 48 8.5t41 25.5t28.5 44t10.5 65v298q11 2 24.5 3t24.5 1t24.5 -1t24.5 -3v-513q-8 -2 -17.5 -3t-19.5 -1t-20.5 1t-20.5 3q-3 12 -7 31t-6 33q-24 -33 -59.5 -54.5t-91.5 -21.5
q-68 0 -108 45v-269q-11 -2 -24.5 -3t-24.5 -1t-24 1t-24 3v749z" />
    <glyph glyph-name="paragraph" unicode="&#xb6;" horiz-adv-x="571" 
d="M285 313h-12q-47 0 -87.5 11t-70.5 35t-47.5 61t-17.5 88q0 59 18 100.5t56 67.5t96.5 37.5t138.5 11.5v-731q-50 0 -74 6v313zM435 725q50 0 74 -6v-719q-24 -6 -74 -6v731z" />
    <glyph glyph-name="periodcentered" unicode="&#xb7;" horiz-adv-x="241" 
d="M66 221q-2 14 -3 27t-1 27t1 27.5t3 27.5q14 2 27 3t27 1t27.5 -1t27.5 -3q2 -14 3 -27t1 -27t-1 -27.5t-3 -27.5q-14 -2 -27 -3t-27 -1t-27.5 1t-27.5 3z" />
    <glyph glyph-name="cedilla" unicode="&#xb8;" horiz-adv-x="500" 
d="M239 -58q10 2 23 2q48 0 74 -24t26 -62q0 -49 -39.5 -74t-105.5 -25q-14 0 -35 1.5t-41 9.5q1 14 3.5 30t10.5 28q30 -10 62 -10t50.5 9.5t18.5 30.5q0 20 -18 27.5t-47 7.5q-14 0 -28.5 -2t-27.5 -5l-6 5l49 133h64z" />
    <glyph glyph-name="onesuperior" unicode="&#xb9;" horiz-adv-x="450" 
d="M112 568q-13 13 -20.5 29t-12.5 35l193 79h17v-334h93q4 -17 4 -35q0 -19 -4 -36h-273q-3 9 -4 17t-1 19q0 9 1 17.5t4 17.5h96v229z" />
    <glyph glyph-name="ordmasculine" unicode="&#xba;" horiz-adv-x="500" 
d="M347 508q0 65 -23.5 102t-73.5 37q-49 0 -73 -37t-24 -102t24 -102.5t73 -37.5q50 0 73.5 37.5t23.5 102.5zM65 508q0 43 11.5 81t35 67t58 46t80.5 17t81 -17t58 -46t34.5 -67t11.5 -81t-11.5 -81.5t-34.5 -68t-58 -46.5t-81 -17t-80.5 17t-58 46.5t-35 68t-11.5 81.5z
" />
    <glyph glyph-name="guillemotright" unicode="&#xbb;" horiz-adv-x="617" 
d="M567 266l-167 -221q-12 -2 -24 -3.5t-26 -1.5t-28 1.5t-28 3.5l164 220l-164 223q14 2 27.5 3t27.5 1q13 0 26 -1t25 -3zM316 266l-167 -221q-12 -2 -24 -3.5t-26 -1.5t-28 1.5t-28 3.5l164 220l-164 223q14 2 27.5 3t27.5 1q13 0 26 -1t25 -3z" />
    <glyph glyph-name="questiondown" unicode="&#xbf;" horiz-adv-x="488" 
d="M328 139q-38 -10 -68 -22.5t-51 -30t-32 -41t-11 -54.5q0 -51 38 -80t109 -29q45 0 72.5 6.5t56.5 17.5q9 -19 15.5 -39.5t9.5 -43.5q-24 -8 -44.5 -13.5t-40 -8.5t-39.5 -4.5t-43 -1.5q-118 0 -178.5 53.5t-60.5 141.5q0 51 20.5 87.5t48 61t56.5 39t47 20.5v103
q23 4 49 4q11 0 23 -1t23 -3v-162zM337 514q2 -14 3 -27.5t1 -27.5t-1 -28t-3 -28q-14 -2 -28 -3.5t-28 -1.5t-28 1.5t-28 3.5q-2 14 -3 27.5t-1 27.5t1 28t3 28q13 2 27 3t28 1t30 -1t27 -3z" />
    <glyph glyph-name="Agrave" unicode="&#xc0;" horiz-adv-x="617" 
d="M442 166h-273l-49 -166q-13 -2 -26 -3t-26 -1q-14 0 -27.5 1t-24.5 3l234 719q13 2 28 3t31 1q14 0 29 -1t29 -3l233 -719q-12 -2 -27 -3t-29 -1q-13 0 -26.5 1t-25.5 3zM196 255h219l-110 367zM134 887q14 2 31.5 3.5t35.5 1.5t36.5 -1.5t34.5 -3.5l105 -108
q-23 -4 -51 -4q-14 0 -28 1t-27 3z" />
    <glyph glyph-name="Aacute" unicode="&#xc1;" horiz-adv-x="617" 
d="M442 166h-273l-49 -166q-13 -2 -26 -3t-26 -1q-14 0 -27.5 1t-24.5 3l234 719q13 2 28 3t31 1q14 0 29 -1t29 -3l233 -719q-12 -2 -27 -3t-29 -1q-13 0 -26.5 1t-25.5 3zM196 255h219l-110 367zM332 779q-13 -2 -27 -3t-28 -1t-26 1t-26 3l106 108q16 2 34 3.5t36 1.5
q19 0 36 -1.5t31 -3.5z" />
    <glyph glyph-name="Acircumflex" unicode="&#xc2;" horiz-adv-x="617" 
d="M442 166h-273l-49 -166q-13 -2 -26 -3t-26 -1q-14 0 -27.5 1t-24.5 3l234 719q13 2 28 3t31 1q14 0 29 -1t29 -3l233 -719q-12 -2 -27 -3t-29 -1q-13 0 -26.5 1t-25.5 3zM196 255h219l-110 367zM481 779q-9 -2 -20 -3t-21 -1h-22q-11 0 -24.5 1t-21.5 3l-65 61l-65 -61
q-9 -2 -23 -3t-24 -1h-23q-10 0 -20.5 1t-20.5 3l118 108q11 2 26 3t32 1t31.5 -1t27.5 -3z" />
    <glyph glyph-name="Atilde" unicode="&#xc3;" horiz-adv-x="617" 
d="M442 166h-273l-49 -166q-13 -2 -26 -3t-26 -1q-14 0 -27.5 1t-24.5 3l234 719q13 2 28 3t31 1q14 0 29 -1t29 -3l233 -719q-12 -2 -27 -3t-29 -1q-13 0 -26.5 1t-25.5 3zM196 255h219l-110 367zM128 859q16 18 42 34.5t59 16.5q21 0 42 -8t41 -17t39.5 -17t39.5 -8
q19 0 33.5 7.5t34.5 26.5q23 -28 33 -59q-17 -17 -42.5 -32.5t-57.5 -15.5q-22 0 -43 7.5t-41 17t-39.5 17t-38.5 7.5q-21 0 -35.5 -8.5t-33.5 -25.5q-11 14 -20 27.5t-13 29.5z" />
    <glyph glyph-name="Adieresis" unicode="&#xc4;" horiz-adv-x="617" 
d="M442 166h-273l-49 -166q-13 -2 -26 -3t-26 -1q-14 0 -27.5 1t-24.5 3l234 719q13 2 28 3t31 1q14 0 29 -1t29 -3l233 -719q-12 -2 -27 -3t-29 -1q-13 0 -26.5 1t-25.5 3zM196 255h219l-110 367zM147 789q-3 25 -3 50t3 51q14 2 27 3t25 1q13 0 27 -1t26 -3q4 -23 4 -50
q0 -28 -4 -51q-12 -2 -25.5 -3t-26.5 -1q-12 0 -25.5 1t-27.5 3zM362 789q-2 13 -3.5 25t-1.5 25q0 23 5 51q12 2 25.5 3t26.5 1q12 0 25.5 -1t27.5 -3q3 -26 3 -50q0 -26 -3 -51q-14 -2 -27 -3t-26 -1q-12 0 -26 1t-26 3z" />
    <glyph glyph-name="Aring" unicode="&#xc5;" horiz-adv-x="617" 
d="M189 819q0 51 33 84t86 33q52 0 85.5 -33t33.5 -84q0 -35 -16.5 -61.5t-44.5 -40.5l234 -717q-12 -2 -27 -3t-29 -1q-13 0 -26.5 1t-25.5 3l-51 166h-271l-50 -166q-13 -2 -26 -3t-26 -1q-14 0 -27.5 1t-24.5 3l234 717q-28 14 -44.5 40.5t-16.5 61.5zM415 255l-110 363
l-109 -363h219zM308 754q26 0 40 18t14 47t-14 47t-40 18t-40.5 -18t-14.5 -47t14.5 -47t40.5 -18z" />
    <glyph glyph-name="AE" unicode="&#xc6;" horiz-adv-x="922" 
d="M109 0q-14 -2 -28.5 -3t-28.5 -1q-16 0 -30.5 1t-26.5 3l422 719h451q2 -11 3 -22t1 -22t-1 -23.5t-3 -22.5h-293v-217h235q3 -20 3 -44q0 -11 -0.5 -23t-2.5 -22h-235v-234h301q2 -10 3 -21.5t1 -22.5t-1 -23t-3 -22h-403v168h-269zM473 637h-5l-216 -381h221v381z" />
    <glyph glyph-name="Ccedilla" unicode="&#xc7;" horiz-adv-x="618" 
d="M547 105q10 -21 17 -41.5t11 -42.5q-79 -32 -171 -32h-17l-17 -43q5 1 9.5 1.5t9.5 0.5q55 0 80.5 -26t25.5 -63q0 -49 -39 -74.5t-107 -25.5q-15 0 -37 2t-43 10q1 15 3.5 31t11.5 29q35 -11 63 -11q70 0 70 39q0 19 -17 26.5t-47 7.5q-14 0 -28 -1.5t-29 -6.5l-8 9
q10 25 19.5 49.5t18.5 50.5q-63 10 -112.5 39.5t-84 75.5t-53 108t-18.5 137q0 86 23 155.5t66.5 119t105.5 76t139 26.5q57 0 98 -8t72 -20q-2 -23 -8 -42t-16 -41q-15 5 -29 9t-30 7t-35.5 4.5t-44.5 1.5q-108 0 -169.5 -74.5t-61.5 -213.5q0 -70 17 -122t48.5 -86.5
t75.5 -51.5t97 -17q43 0 77 7t64 21z" />
    <glyph glyph-name="Egrave" unicode="&#xc8;" horiz-adv-x="536" 
d="M88 719h395q3 -20 3 -44q0 -11 -0.5 -23t-2.5 -22h-293v-206h234q2 -10 3 -21.5t1 -22.5t-1 -23t-3 -22h-234v-246h301q3 -20 3 -44q0 -11 -0.5 -23t-2.5 -22h-403v719zM128 887q14 2 31.5 3.5t35.5 1.5t36.5 -1.5t34.5 -3.5l105 -108q-23 -4 -51 -4q-14 0 -28 1t-27 3z
" />
    <glyph glyph-name="Eacute" unicode="&#xc9;" horiz-adv-x="536" 
d="M88 719h395q3 -20 3 -44q0 -11 -0.5 -23t-2.5 -22h-293v-206h234q2 -10 3 -21.5t1 -22.5t-1 -23t-3 -22h-234v-246h301q3 -20 3 -44q0 -11 -0.5 -23t-2.5 -22h-403v719zM300 779q-13 -2 -27 -3t-28 -1t-26 1t-26 3l106 108q16 2 34 3.5t36 1.5q19 0 36 -1.5t31 -3.5z" />
    <glyph glyph-name="Ecircumflex" unicode="&#xca;" horiz-adv-x="536" 
d="M88 719h395q3 -20 3 -44q0 -11 -0.5 -23t-2.5 -22h-293v-206h234q2 -10 3 -21.5t1 -22.5t-1 -23t-3 -22h-234v-246h301q3 -20 3 -44q0 -11 -0.5 -23t-2.5 -22h-403v719zM459 779q-9 -2 -20 -3t-21 -1h-22q-11 0 -24.5 1t-21.5 3l-65 61l-65 -61q-9 -2 -23 -3t-24 -1h-23
q-10 0 -20.5 1t-20.5 3l118 108q11 2 26 3t32 1t31.5 -1t27.5 -3z" />
    <glyph glyph-name="Edieresis" unicode="&#xcb;" horiz-adv-x="536" 
d="M88 719h395q3 -20 3 -44q0 -11 -0.5 -23t-2.5 -22h-293v-206h234q2 -10 3 -21.5t1 -22.5t-1 -23t-3 -22h-234v-246h301q3 -20 3 -44q0 -11 -0.5 -23t-2.5 -22h-403v719zM123 789q-3 25 -3 50t3 51q14 2 27 3t25 1q13 0 27 -1t26 -3q4 -23 4 -50q0 -28 -4 -51
q-12 -2 -25.5 -3t-26.5 -1q-12 0 -25.5 1t-27.5 3zM338 789q-2 13 -3.5 25t-1.5 25q0 23 5 51q12 2 25.5 3t26.5 1q12 0 25.5 -1t27.5 -3q3 -26 3 -50q0 -26 -3 -51q-14 -2 -27 -3t-26 -1q-12 0 -26 1t-26 3z" />
    <glyph glyph-name="Igrave" unicode="&#xcc;" horiz-adv-x="278" 
d="M88 719q12 2 25 3t26 1t26 -1t25 -3v-719q-12 -2 -24.5 -3t-26.5 -1q-13 0 -26.5 1t-24.5 3v719zM-21 887q14 2 31.5 3.5t35.5 1.5t36.5 -1.5t34.5 -3.5l105 -108q-23 -4 -51 -4q-14 0 -28 1t-27 3z" />
    <glyph glyph-name="Iacute" unicode="&#xcd;" horiz-adv-x="278" 
d="M88 719q12 2 25 3t26 1t26 -1t25 -3v-719q-12 -2 -24.5 -3t-26.5 -1q-13 0 -26.5 1t-24.5 3v719zM170 779q-13 -2 -27 -3t-28 -1t-26 1t-26 3l106 108q16 2 34 3.5t36 1.5q19 0 36 -1.5t31 -3.5z" />
    <glyph glyph-name="Icircumflex" unicode="&#xce;" horiz-adv-x="278" 
d="M88 719q12 2 25 3t26 1t26 -1t25 -3v-719q-12 -2 -24.5 -3t-26.5 -1q-13 0 -26.5 1t-24.5 3v719zM314 779q-9 -2 -20 -3t-21 -1h-22q-11 0 -24.5 1t-21.5 3l-65 61l-65 -61q-9 -2 -23 -3t-24 -1h-23q-10 0 -20.5 1t-20.5 3l118 108q11 2 26 3t32 1t31.5 -1t27.5 -3z" />
    <glyph glyph-name="Idieresis" unicode="&#xcf;" horiz-adv-x="278" 
d="M88 719q12 2 25 3t26 1t26 -1t25 -3v-719q-12 -2 -24.5 -3t-26.5 -1q-13 0 -26.5 1t-24.5 3v719zM-20 789q-3 25 -3 50t3 51q14 2 27 3t25 1q13 0 27 -1t26 -3q4 -23 4 -50q0 -28 -4 -51q-12 -2 -25.5 -3t-26.5 -1q-12 0 -25.5 1t-27.5 3zM195 789q-2 13 -3.5 25t-1.5 25
q0 23 5 51q12 2 25.5 3t26.5 1q12 0 25.5 -1t27.5 -3q3 -26 3 -50q0 -26 -3 -51q-14 -2 -27 -3t-26 -1q-12 0 -26 1t-26 3z" />
    <glyph glyph-name="Eth" unicode="&#xd0;" horiz-adv-x="708" 
d="M98 331h-82q-2 8 -3 18t-1 19t1 19.5t3 18.5h82v313q34 4 82 7.5t94 3.5q189 0 282.5 -96t93.5 -276q0 -188 -95.5 -279t-284.5 -91q-47 0 -93 3.5t-79 8.5v331zM200 406h162q2 -8 3 -18.5t1 -19.5q0 -8 -1 -18.5t-3 -18.5h-162v-247q14 -2 34.5 -3.5t43.5 -1.5
q59 0 107.5 13.5t83.5 45.5t54 86.5t19 136.5q0 75 -19 128t-53.5 86.5t-82.5 48.5t-106 15q-19 0 -41.5 -0.5t-39.5 -3.5v-229z" />
    <glyph glyph-name="Ntilde" unicode="&#xd1;" horiz-adv-x="680" 
d="M88 719q11 2 23.5 3t23.5 1t23.5 -1t23.5 -3l313 -540v540q12 2 25 3t26 1q11 0 23 -1t23 -3v-719q-11 -2 -23.5 -3t-23.5 -1t-23.5 1t-23.5 3l-314 537v-537q-11 -2 -23.5 -3t-24.5 -1q-13 0 -25.5 1t-22.5 3v719zM162 859q16 18 42 34.5t59 16.5q21 0 42 -8t41 -17
t39.5 -17t39.5 -8q19 0 33.5 7.5t34.5 26.5q23 -28 33 -59q-17 -17 -42.5 -32.5t-57.5 -15.5q-22 0 -43 7.5t-41 17t-39.5 17t-38.5 7.5q-21 0 -35.5 -8.5t-33.5 -25.5q-11 14 -20 27.5t-13 29.5z" />
    <glyph glyph-name="Ograve" unicode="&#xd2;" horiz-adv-x="724" 
d="M363 -12q-78 0 -135 27.5t-94.5 77t-56 117.5t-18.5 149t18.5 149t56 117.5t94.5 77.5t135 28t135 -28t94.5 -77.5t55.5 -117.5t18 -149t-18 -149t-55.5 -117.5t-94.5 -77t-135 -27.5zM363 76q50 0 86.5 19.5t60.5 56.5t36 89t12 118q0 65 -12 117.5t-36 89t-60.5 56
t-86.5 19.5t-86.5 -19.5t-60.5 -56t-36 -89t-12 -117.5q0 -66 12 -118t36 -89t60.5 -56.5t86.5 -19.5zM185 887q14 2 31.5 3.5t35.5 1.5t36.5 -1.5t34.5 -3.5l105 -108q-23 -4 -51 -4q-14 0 -28 1t-27 3z" />
    <glyph glyph-name="Oacute" unicode="&#xd3;" horiz-adv-x="724" 
d="M363 -12q-78 0 -135 27.5t-94.5 77t-56 117.5t-18.5 149t18.5 149t56 117.5t94.5 77.5t135 28t135 -28t94.5 -77.5t55.5 -117.5t18 -149t-18 -149t-55.5 -117.5t-94.5 -77t-135 -27.5zM363 76q50 0 86.5 19.5t60.5 56.5t36 89t12 118q0 65 -12 117.5t-36 89t-60.5 56
t-86.5 19.5t-86.5 -19.5t-60.5 -56t-36 -89t-12 -117.5q0 -66 12 -118t36 -89t60.5 -56.5t86.5 -19.5zM387 779q-13 -2 -27 -3t-28 -1t-26 1t-26 3l106 108q16 2 34 3.5t36 1.5q19 0 36 -1.5t31 -3.5z" />
    <glyph glyph-name="Ocircumflex" unicode="&#xd4;" horiz-adv-x="724" 
d="M363 -12q-78 0 -135 27.5t-94.5 77t-56 117.5t-18.5 149t18.5 149t56 117.5t94.5 77.5t135 28t135 -28t94.5 -77.5t55.5 -117.5t18 -149t-18 -149t-55.5 -117.5t-94.5 -77t-135 -27.5zM363 76q50 0 86.5 19.5t60.5 56.5t36 89t12 118q0 65 -12 117.5t-36 89t-60.5 56
t-86.5 19.5t-86.5 -19.5t-60.5 -56t-36 -89t-12 -117.5q0 -66 12 -118t36 -89t60.5 -56.5t86.5 -19.5zM535 779q-9 -2 -20 -3t-21 -1h-22q-11 0 -24.5 1t-21.5 3l-65 61l-65 -61q-9 -2 -23 -3t-24 -1h-23q-10 0 -20.5 1t-20.5 3l118 108q11 2 26 3t32 1t31.5 -1t27.5 -3z
" />
    <glyph glyph-name="Otilde" unicode="&#xd5;" horiz-adv-x="724" 
d="M363 -12q-78 0 -135 27.5t-94.5 77t-56 117.5t-18.5 149t18.5 149t56 117.5t94.5 77.5t135 28t135 -28t94.5 -77.5t55.5 -117.5t18 -149t-18 -149t-55.5 -117.5t-94.5 -77t-135 -27.5zM363 76q50 0 86.5 19.5t60.5 56.5t36 89t12 118q0 65 -12 117.5t-36 89t-60.5 56
t-86.5 19.5t-86.5 -19.5t-60.5 -56t-36 -89t-12 -117.5q0 -66 12 -118t36 -89t60.5 -56.5t86.5 -19.5zM185 859q16 18 42 34.5t59 16.5q21 0 42 -8t41 -17t39.5 -17t39.5 -8q19 0 33.5 7.5t34.5 26.5q23 -28 33 -59q-17 -17 -42.5 -32.5t-57.5 -15.5q-22 0 -43 7.5t-41 17
t-39.5 17t-38.5 7.5q-21 0 -35.5 -8.5t-33.5 -25.5q-11 14 -20 27.5t-13 29.5z" />
    <glyph glyph-name="Odieresis" unicode="&#xd6;" horiz-adv-x="724" 
d="M363 -12q-78 0 -135 27.5t-94.5 77t-56 117.5t-18.5 149t18.5 149t56 117.5t94.5 77.5t135 28t135 -28t94.5 -77.5t55.5 -117.5t18 -149t-18 -149t-55.5 -117.5t-94.5 -77t-135 -27.5zM363 76q50 0 86.5 19.5t60.5 56.5t36 89t12 118q0 65 -12 117.5t-36 89t-60.5 56
t-86.5 19.5t-86.5 -19.5t-60.5 -56t-36 -89t-12 -117.5q0 -66 12 -118t36 -89t60.5 -56.5t86.5 -19.5zM201 789q-3 25 -3 50t3 51q14 2 27 3t25 1q13 0 27 -1t26 -3q4 -23 4 -50q0 -28 -4 -51q-12 -2 -25.5 -3t-26.5 -1q-12 0 -25.5 1t-27.5 3zM416 789q-2 13 -3.5 25
t-1.5 25q0 23 5 51q12 2 25.5 3t26.5 1q12 0 25.5 -1t27.5 -3q3 -26 3 -50q0 -26 -3 -51q-14 -2 -27 -3t-26 -1q-12 0 -26 1t-26 3z" />
    <glyph glyph-name="multiply" unicode="&#xd7;" 
d="M237 354q-31 30 -61 60.5t-60 60.5q12 18 28.5 34t34.5 30l121 -122q30 31 60 60.5t61 60.5q36 -27 63 -63q-60 -61 -121 -121q61 -60 121 -121q-13 -18 -29.5 -34.5t-33.5 -27.5l-120 120l-123 -121q-37 25 -63 63z" />
    <glyph glyph-name="Oslash" unicode="&#xd8;" horiz-adv-x="724" 
d="M362 -12q-60 0 -106.5 16t-82.5 46l-36 -50q-17 -3 -40 -3t-41 3l72 99q-35 49 -52.5 115t-17.5 145q0 81 18.5 149t56 117.5t94.5 77.5t135 28q57 0 103 -15t81 -44l34 47q8 2 17.5 3t21.5 1q13 0 23 -1t19 -3l-69 -95q37 -50 55 -117t18 -148t-18 -149t-55.5 -117.5
t-94.5 -77t-135 -27.5zM362 76q50 0 86.5 19.5t60.5 56.5t36 89t12 118q0 104 -31 175l-295 -404q49 -54 131 -54zM167 359q0 -102 27 -169l293 402q-47 49 -125 49q-50 0 -86.5 -19.5t-60.5 -56t-36 -89t-12 -117.5z" />
    <glyph glyph-name="Ugrave" unicode="&#xd9;" horiz-adv-x="674" 
d="M81 719q24 3 52 3q27 0 50 -3v-408q0 -62 8 -106t26 -71.5t47.5 -40.5t72.5 -13t72 13t47 40.5t26 71.5t8 106v408q25 3 51 3q28 0 52 -3v-426q0 -72 -13.5 -129t-44 -96t-79.5 -59.5t-119 -20.5t-119 20.5t-79.5 59.5t-44 96t-13.5 129v426zM170 887q14 2 31.5 3.5
t35.5 1.5t36.5 -1.5t34.5 -3.5l105 -108q-23 -4 -51 -4q-14 0 -28 1t-27 3z" />
    <glyph glyph-name="Uacute" unicode="&#xda;" horiz-adv-x="674" 
d="M81 719q24 3 52 3q27 0 50 -3v-408q0 -62 8 -106t26 -71.5t47.5 -40.5t72.5 -13t72 13t47 40.5t26 71.5t8 106v408q25 3 51 3q28 0 52 -3v-426q0 -72 -13.5 -129t-44 -96t-79.5 -59.5t-119 -20.5t-119 20.5t-79.5 59.5t-44 96t-13.5 129v426zM374 779q-13 -2 -27 -3
t-28 -1t-26 1t-26 3l106 108q16 2 34 3.5t36 1.5q19 0 36 -1.5t31 -3.5z" />
    <glyph glyph-name="Ucircumflex" unicode="&#xdb;" horiz-adv-x="674" 
d="M81 719q24 3 52 3q27 0 50 -3v-408q0 -62 8 -106t26 -71.5t47.5 -40.5t72.5 -13t72 13t47 40.5t26 71.5t8 106v408q25 3 51 3q28 0 52 -3v-426q0 -72 -13.5 -129t-44 -96t-79.5 -59.5t-119 -20.5t-119 20.5t-79.5 59.5t-44 96t-13.5 129v426zM511 779q-9 -2 -20 -3
t-21 -1h-22q-11 0 -24.5 1t-21.5 3l-65 61l-65 -61q-9 -2 -23 -3t-24 -1h-23q-10 0 -20.5 1t-20.5 3l118 108q11 2 26 3t32 1t31.5 -1t27.5 -3z" />
    <glyph glyph-name="Udieresis" unicode="&#xdc;" horiz-adv-x="674" 
d="M81 719q24 3 52 3q27 0 50 -3v-408q0 -62 8 -106t26 -71.5t47.5 -40.5t72.5 -13t72 13t47 40.5t26 71.5t8 106v408q25 3 51 3q28 0 52 -3v-426q0 -72 -13.5 -129t-44 -96t-79.5 -59.5t-119 -20.5t-119 20.5t-79.5 59.5t-44 96t-13.5 129v426zM177 789q-3 25 -3 50t3 51
q14 2 27 3t25 1q13 0 27 -1t26 -3q4 -23 4 -50q0 -28 -4 -51q-12 -2 -25.5 -3t-26.5 -1q-12 0 -25.5 1t-27.5 3zM392 789q-2 13 -3.5 25t-1.5 25q0 23 5 51q12 2 25.5 3t26.5 1q12 0 25.5 -1t27.5 -3q3 -26 3 -50q0 -26 -3 -51q-14 -2 -27 -3t-26 -1q-12 0 -26 1t-26 3z" />
    <glyph glyph-name="Yacute" unicode="&#xdd;" horiz-adv-x="592" 
d="M246 263l-228 456q13 2 28 3t30 1q13 0 28.5 -1t27.5 -3l168 -357l166 357q13 2 26 3t27 1t28 -1t27 -3l-225 -456v-263q-13 -2 -26 -3t-26 -1t-26.5 1t-24.5 3v263zM335 779q-13 -2 -27 -3t-28 -1t-26 1t-26 3l106 108q16 2 34 3.5t36 1.5q19 0 36 -1.5t31 -3.5z" />
    <glyph glyph-name="Thorn" unicode="&#xde;" horiz-adv-x="581" 
d="M189 607q17 2 31.5 2.5t31.5 0.5q52 0 101.5 -11.5t88.5 -39.5t62.5 -74.5t23.5 -116.5q0 -69 -23.5 -115.5t-62.5 -74t-88.5 -39t-101.5 -11.5q-17 0 -31.5 0.5t-31.5 1.5v-130q-12 -2 -25.5 -2.5t-25.5 -0.5q-13 0 -26.5 0.5t-24.5 2.5v719q24 3 51 3q12 0 25.5 -0.5
t25.5 -2.5v-112zM252 216q31 0 61.5 6t54.5 23t39 47t15 77t-15 77t-39 46.5t-54.5 22.5t-61.5 6q-20 0 -31.5 -1t-31.5 -3v-297q19 -2 30.5 -3t32.5 -1z" />
    <glyph glyph-name="germandbls" unicode="&#xdf;" horiz-adv-x="572" 
d="M79 493q0 58 10 104t33.5 78.5t62 49.5t94.5 17q49 0 84 -13t57.5 -35t33 -51.5t10.5 -62.5q0 -45 -14 -75.5t-31 -54.5t-31 -45t-14 -48q0 -21 12 -35.5t29.5 -26.5t38 -25t38 -30.5t29.5 -42.5t12 -62q0 -65 -44 -106t-131 -41q-38 0 -66.5 6.5t-54.5 17.5q2 20 8.5 40
t14.5 39q23 -11 45 -16.5t45 -5.5q34 0 58.5 14.5t24.5 54.5q0 24 -11.5 39.5t-29 27.5t-38 24t-38 27.5t-29 37.5t-11.5 56q0 35 14 60.5t30.5 49.5t30.5 51t14 65q0 39 -22.5 62t-65.5 23q-60 0 -80.5 -40.5t-20.5 -129.5v-491q-11 -2 -24 -3t-24 -1t-24.5 1t-24.5 3v493z
" />
    <glyph glyph-name="agrave" unicode="&#xe0;" horiz-adv-x="517" 
d="M351 241q-15 2 -38 4t-39 2q-62 0 -94.5 -23t-32.5 -70q0 -30 11 -47t27.5 -26t36.5 -11t38 -2q23 0 47.5 2.5t43.5 7.5v163zM351 338q0 59 -30 82t-87 23q-35 0 -65.5 -5.5t-59.5 -14.5q-19 33 -19 79q34 11 75 17t79 6q100 0 152 -45.5t52 -145.5v-321
q-35 -8 -85 -16.5t-102 -8.5q-49 0 -88.5 9t-67 29t-42.5 51t-15 75q0 43 17.5 75.5t47.5 54t69 32t82 10.5q32 0 52.5 -1.5t34.5 -3.5v19zM93 721q15 2 30 3t33 1q16 0 32.5 -1t31.5 -3l115 -127q-23 -4 -47 -4q-15 0 -28.5 1t-24.5 3z" />
    <glyph glyph-name="aacute" unicode="&#xe1;" horiz-adv-x="517" 
d="M351 241q-15 2 -38 4t-39 2q-62 0 -94.5 -23t-32.5 -70q0 -30 11 -47t27.5 -26t36.5 -11t38 -2q23 0 47.5 2.5t43.5 7.5v163zM351 338q0 59 -30 82t-87 23q-35 0 -65.5 -5.5t-59.5 -14.5q-19 33 -19 79q34 11 75 17t79 6q100 0 152 -45.5t52 -145.5v-321
q-35 -8 -85 -16.5t-102 -8.5q-49 0 -88.5 9t-67 29t-42.5 51t-15 75q0 43 17.5 75.5t47.5 54t69 32t82 10.5q32 0 52.5 -1.5t34.5 -3.5v19zM258 594q-11 -2 -24 -3t-29 -1q-11 0 -22.5 1t-23.5 3l115 127q15 2 31 3t33 1q18 0 33 -1t29 -3z" />
    <glyph glyph-name="acircumflex" unicode="&#xe2;" horiz-adv-x="517" 
d="M351 241q-15 2 -38 4t-39 2q-62 0 -94.5 -23t-32.5 -70q0 -30 11 -47t27.5 -26t36.5 -11t38 -2q23 0 47.5 2.5t43.5 7.5v163zM351 338q0 59 -30 82t-87 23q-35 0 -65.5 -5.5t-59.5 -14.5q-19 33 -19 79q34 11 75 17t79 6q100 0 152 -45.5t52 -145.5v-321
q-35 -8 -85 -16.5t-102 -8.5q-49 0 -88.5 9t-67 29t-42.5 51t-15 75q0 43 17.5 75.5t47.5 54t69 32t82 10.5q32 0 52.5 -1.5t34.5 -3.5v19zM417 594q-9 -2 -20.5 -3t-24.5 -1t-28.5 1t-28.5 3l-65 80l-65 -80q-11 -2 -25.5 -3t-27.5 -1q-29 0 -49 4l109 127q13 2 29.5 3
t31.5 1q11 0 26.5 -1t29.5 -4z" />
    <glyph glyph-name="atilde" unicode="&#xe3;" horiz-adv-x="517" 
d="M351 241q-15 2 -38 4t-39 2q-62 0 -94.5 -23t-32.5 -70q0 -30 11 -47t27.5 -26t36.5 -11t38 -2q23 0 47.5 2.5t43.5 7.5v163zM351 338q0 59 -30 82t-87 23q-35 0 -65.5 -5.5t-59.5 -14.5q-19 33 -19 79q34 11 75 17t79 6q100 0 152 -45.5t52 -145.5v-321
q-35 -8 -85 -16.5t-102 -8.5q-49 0 -88.5 9t-67 29t-42.5 51t-15 75q0 43 17.5 75.5t47.5 54t69 32t82 10.5q32 0 52.5 -1.5t34.5 -3.5v19zM85 668q15 20 39 34.5t57 14.5q21 0 40 -7t36.5 -15t35.5 -15t38 -7q17 0 31.5 6t35.5 25q22 -27 32 -61q-16 -19 -40.5 -33
t-56.5 -14q-21 0 -40 7t-37 15t-35.5 15t-36.5 7q-20 0 -34 -7t-34 -24q-11 14 -19 28.5t-12 30.5z" />
    <glyph glyph-name="adieresis" unicode="&#xe4;" horiz-adv-x="517" 
d="M351 241q-15 2 -38 4t-39 2q-62 0 -94.5 -23t-32.5 -70q0 -30 11 -47t27.5 -26t36.5 -11t38 -2q23 0 47.5 2.5t43.5 7.5v163zM351 338q0 59 -30 82t-87 23q-35 0 -65.5 -5.5t-59.5 -14.5q-19 33 -19 79q34 11 75 17t79 6q100 0 152 -45.5t52 -145.5v-321
q-35 -8 -85 -16.5t-102 -8.5q-49 0 -88.5 9t-67 29t-42.5 51t-15 75q0 43 17.5 75.5t47.5 54t69 32t82 10.5q32 0 52.5 -1.5t34.5 -3.5v19zM109 604q-2 13 -3 25t-1 25q0 12 1 24.5t3 25.5q12 2 25.5 3t25.5 1q11 0 24.5 -1t26.5 -3q4 -23 4 -50q0 -12 -1 -24.5t-3 -25.5
q-26 -3 -51 -3q-11 0 -25 0.5t-26 2.5zM313 604q-4 23 -4 50q0 12 1 24.5t3 25.5q12 2 25.5 3t24.5 1q12 0 25.5 -1t26.5 -3q3 -26 3 -50q0 -25 -3 -50q-26 -3 -51 -3q-11 0 -25 0.5t-26 2.5z" />
    <glyph glyph-name="aring" unicode="&#xe5;" horiz-adv-x="517" 
d="M351 241q-15 2 -38 4t-39 2q-62 0 -94.5 -23t-32.5 -70q0 -30 11 -47t27.5 -26t36.5 -11t38 -2q23 0 47.5 2.5t43.5 7.5v163zM351 338q0 59 -30 82t-87 23q-35 0 -65.5 -5.5t-59.5 -14.5q-19 33 -19 79q34 11 75 17t79 6q100 0 152 -45.5t52 -145.5v-321
q-35 -8 -85 -16.5t-102 -8.5q-49 0 -88.5 9t-67 29t-42.5 51t-15 75q0 43 17.5 75.5t47.5 54t69 32t82 10.5q32 0 52.5 -1.5t34.5 -3.5v19zM156 693q0 48 30 77.5t78 29.5t78 -29.5t30 -77.5t-30 -77.5t-78 -29.5t-78 29.5t-30 77.5zM264 637q24 0 37 15t13 41t-13 41
t-37 15t-36.5 -15t-12.5 -41t12.5 -41t36.5 -15z" />
    <glyph glyph-name="ae" unicode="&#xe6;" horiz-adv-x="839" 
d="M346 338q0 59 -29 82t-86 23q-34 0 -65.5 -5.5t-59.5 -14.5q-19 33 -19 79q34 11 74.5 17t79.5 6q60 0 100.5 -19.5t67.5 -60.5q28 36 70 58t98 22q52 0 91.5 -18t66.5 -49.5t40.5 -75t13.5 -94.5q0 -13 -1 -28.5t-3 -26.5h-343q0 -88 41 -125.5t125 -37.5q36 0 67.5 6.5
t63.5 18.5q7 -15 12 -36.5t6 -42.5q-68 -28 -158 -28q-52 0 -97 11.5t-78 37.5q-32 -20 -79.5 -34.5t-102.5 -14.5q-43 0 -79.5 9t-62.5 29t-41 51t-15 75q0 43 17.5 75t47.5 53t69 31.5t83 10.5q26 0 47 -1.5t38 -3.5v21zM344 238q-15 2 -34 3.5t-36 1.5q-63 0 -96.5 -21.5
t-33.5 -70.5q0 -29 11 -46t27 -25.5t34.5 -11t34.5 -2.5q32 0 65 7t57 24q-14 24 -20.5 56.5t-7.5 65.5zM693 307q0 28 -7 53.5t-21.5 44.5t-36.5 30t-52 11q-62 0 -94 -36.5t-39 -102.5h250z" />
    <glyph glyph-name="ccedilla" unicode="&#xe7;" horiz-adv-x="478" 
d="M422 88q8 -14 14 -35t7 -43q-32 -11 -66.5 -16.5t-76.5 -5.5l-18 -45q5 1 18 1q52 0 78.5 -24t26.5 -61q0 -50 -39.5 -75t-105.5 -25q-14 0 -35 2t-41 10q1 14 3.5 29.5t10.5 28.5q33 -11 62 -11q31 0 50 10.5t19 29.5q0 20 -18 28t-48 8q-14 0 -28 -2t-27 -5q-2 1 -6 5
q19 53 38 102q-95 18 -142 86.5t-47 175.5q0 57 15.5 106t47 85t78 57t108.5 21q41 0 74 -5.5t62 -16.5q0 -17 -4.5 -39t-12.5 -39q-25 8 -52 12.5t-59 4.5q-78 0 -117 -50.5t-39 -135.5q0 -96 44.5 -141t118.5 -45q30 0 55 4t52 14z" />
    <glyph glyph-name="egrave" unicode="&#xe8;" horiz-adv-x="557" 
d="M155 232q2 -84 43.5 -123t122.5 -39q71 0 135 25q8 -15 13 -36.5t6 -42.5q-33 -14 -72.5 -21t-87.5 -7q-70 0 -120 19.5t-82.5 55t-47.5 84t-15 106.5q0 57 14.5 106.5t44.5 86t75.5 58t107.5 21.5q53 0 93 -18t67 -49.5t41 -75t14 -94.5q0 -14 -1 -29.5t-2 -26.5h-349z
M409 306q0 28 -7.5 53.5t-22 44.5t-37 30.5t-53.5 11.5q-61 0 -93.5 -37t-39.5 -103h253zM133 721q15 2 30 3t33 1q16 0 32.5 -1t31.5 -3l115 -127q-23 -4 -47 -4q-15 0 -28.5 1t-24.5 3z" />
    <glyph glyph-name="eacute" unicode="&#xe9;" horiz-adv-x="557" 
d="M155 232q2 -84 43.5 -123t122.5 -39q71 0 135 25q8 -15 13 -36.5t6 -42.5q-33 -14 -72.5 -21t-87.5 -7q-70 0 -120 19.5t-82.5 55t-47.5 84t-15 106.5q0 57 14.5 106.5t44.5 86t75.5 58t107.5 21.5q53 0 93 -18t67 -49.5t41 -75t14 -94.5q0 -14 -1 -29.5t-2 -26.5h-349z
M409 306q0 28 -7.5 53.5t-22 44.5t-37 30.5t-53.5 11.5q-61 0 -93.5 -37t-39.5 -103h253zM301 594q-11 -2 -24 -3t-29 -1q-11 0 -22.5 1t-23.5 3l115 127q15 2 31 3t33 1q18 0 33 -1t29 -3z" />
    <glyph glyph-name="ecircumflex" unicode="&#xea;" horiz-adv-x="557" 
d="M155 232q2 -84 43.5 -123t122.5 -39q71 0 135 25q8 -15 13 -36.5t6 -42.5q-33 -14 -72.5 -21t-87.5 -7q-70 0 -120 19.5t-82.5 55t-47.5 84t-15 106.5q0 57 14.5 106.5t44.5 86t75.5 58t107.5 21.5q53 0 93 -18t67 -49.5t41 -75t14 -94.5q0 -14 -1 -29.5t-2 -26.5h-349z
M409 306q0 28 -7.5 53.5t-22 44.5t-37 30.5t-53.5 11.5q-61 0 -93.5 -37t-39.5 -103h253zM453 594q-9 -2 -20.5 -3t-24.5 -1t-28.5 1t-28.5 3l-65 80l-65 -80q-11 -2 -25.5 -3t-27.5 -1q-29 0 -49 4l109 127q13 2 29.5 3t31.5 1q11 0 26.5 -1t29.5 -4z" />
    <glyph glyph-name="edieresis" unicode="&#xeb;" horiz-adv-x="557" 
d="M155 232q2 -84 43.5 -123t122.5 -39q71 0 135 25q8 -15 13 -36.5t6 -42.5q-33 -14 -72.5 -21t-87.5 -7q-70 0 -120 19.5t-82.5 55t-47.5 84t-15 106.5q0 57 14.5 106.5t44.5 86t75.5 58t107.5 21.5q53 0 93 -18t67 -49.5t41 -75t14 -94.5q0 -14 -1 -29.5t-2 -26.5h-349z
M409 306q0 28 -7.5 53.5t-22 44.5t-37 30.5t-53.5 11.5q-61 0 -93.5 -37t-39.5 -103h253zM129 604q-2 13 -3 25t-1 25q0 12 1 24.5t3 25.5q12 2 25.5 3t25.5 1q11 0 24.5 -1t26.5 -3q4 -23 4 -50q0 -12 -1 -24.5t-3 -25.5q-26 -3 -51 -3q-11 0 -25 0.5t-26 2.5zM333 604
q-4 23 -4 50q0 12 1 24.5t3 25.5q12 2 25.5 3t24.5 1q12 0 25.5 -1t26.5 -3q3 -26 3 -50q0 -25 -3 -50q-26 -3 -51 -3q-11 0 -25 0.5t-26 2.5z" />
    <glyph glyph-name="igrave" unicode="&#xec;" horiz-adv-x="288" 
d="M-14 721q15 2 30 3t33 1q16 0 32.5 -1t31.5 -3l115 -127q-23 -4 -47 -4q-15 0 -28.5 1t-24.5 3zM110 435h-65q-2 8 -3 18.5t-1 20.5t1 20.5t3 18.5h162v-513q-11 -2 -24.5 -3t-24.5 -1q-10 0 -23.5 1t-24.5 3v435z" />
    <glyph glyph-name="iacute" unicode="&#xed;" horiz-adv-x="288" 
d="M149 594q-11 -2 -24 -3t-29 -1q-11 0 -22.5 1t-23.5 3l115 127q15 2 31 3t33 1q18 0 33 -1t29 -3zM110 435h-65q-2 8 -3 18.5t-1 20.5t1 20.5t3 18.5h162v-513q-11 -2 -24.5 -3t-24.5 -1q-10 0 -23.5 1t-24.5 3v435z" />
    <glyph glyph-name="icircumflex" unicode="&#xee;" horiz-adv-x="288" 
d="M110 435h-65q-2 8 -3 18.5t-1 20.5t1 20.5t3 18.5h162v-513q-11 -2 -24.5 -3t-24.5 -1q-10 0 -23.5 1t-24.5 3v435zM311 594q-9 -2 -20.5 -3t-24.5 -1t-28.5 1t-28.5 3l-65 80l-65 -80q-11 -2 -25.5 -3t-27.5 -1q-29 0 -49 4l109 127q13 2 29.5 3t31.5 1q11 0 26.5 -1
t29.5 -4z" />
    <glyph glyph-name="idieresis" unicode="&#xef;" horiz-adv-x="288" 
d="M-8 604q-2 13 -3 25t-1 25q0 12 1 24.5t3 25.5q12 2 25.5 3t25.5 1q11 0 24.5 -1t26.5 -3q4 -23 4 -50q0 -12 -1 -24.5t-3 -25.5q-26 -3 -51 -3q-11 0 -25 0.5t-26 2.5zM196 604q-4 23 -4 50q0 12 1 24.5t3 25.5q12 2 25.5 3t24.5 1q12 0 25.5 -1t26.5 -3q3 -26 3 -50
q0 -25 -3 -50q-26 -3 -51 -3q-11 0 -25 0.5t-26 2.5zM110 435h-65q-2 8 -3 18.5t-1 20.5t1 20.5t3 18.5h162v-513q-11 -2 -24.5 -3t-24.5 -1q-10 0 -23.5 1t-24.5 3v435z" />
    <glyph glyph-name="eth" unicode="&#xf0;" horiz-adv-x="581" 
d="M250 627q-23 11 -48 16.5t-53 9.5q-5 14 -5 35q0 11 2.5 24t6.5 24q53 -3 98.5 -17t83.5 -37l88 56q12 -10 21.5 -25t16.5 -29q-17 -11 -34.5 -21.5t-35.5 -21.5q68 -63 103 -157.5t35 -206.5q0 -66 -14.5 -119.5t-44 -91t-74.5 -58t-106 -20.5t-106 18.5t-74.5 52
t-44 79t-14.5 99.5q0 53 14.5 98.5t42.5 79.5t70 53t97 19q38 0 74 -12.5t59 -35.5q-20 53 -41.5 89t-53.5 62l-98 -61q-12 11 -21 25.5t-14 28.5zM290 65q70 0 102 45.5t32 126.5q0 85 -32 127.5t-102 42.5q-66 0 -100.5 -42.5t-34.5 -127.5q0 -81 32.5 -126.5t102.5 -45.5
z" />
    <glyph glyph-name="ntilde" unicode="&#xf1;" horiz-adv-x="578" 
d="M80 513q11 2 21.5 3t21.5 1t20.5 -1t20.5 -3q3 -15 6 -40.5t3 -42.5q10 17 25.5 34t35.5 30.5t46 22t57 8.5q88 0 130 -50.5t42 -149.5v-325q-11 -2 -25 -3t-25 -1t-24.5 1t-24.5 3v298q0 71 -22 104.5t-70 33.5q-28 0 -53 -10t-44 -31t-30.5 -54.5t-11.5 -80.5v-260
q-11 -2 -24.5 -3t-24.5 -1t-25 1t-25 3v513zM118 668q15 20 39 34.5t57 14.5q21 0 40 -7t36.5 -15t35.5 -15t38 -7q17 0 31.5 6t35.5 25q22 -27 32 -61q-16 -19 -40.5 -33t-56.5 -14q-21 0 -40 7t-37 15t-35.5 15t-36.5 7q-20 0 -34 -7t-34 -24q-11 14 -19 28.5t-12 30.5z
" />
    <glyph glyph-name="ograve" unicode="&#xf2;" horiz-adv-x="577" 
d="M288 -12q-60 0 -105 20.5t-75 56.5t-44.5 85t-14.5 106t14.5 106t44.5 85t75 57t105 21t105 -21t75 -57t44.5 -85t14.5 -106t-14.5 -106t-44.5 -85t-75 -56.5t-105 -20.5zM288 67q69 0 102 50t33 139t-33 138.5t-102 49.5t-101.5 -49.5t-32.5 -138.5t32.5 -139t101.5 -50
zM127 721q15 2 30 3t33 1q16 0 32.5 -1t31.5 -3l115 -127q-23 -4 -47 -4q-15 0 -28.5 1t-24.5 3z" />
    <glyph glyph-name="oacute" unicode="&#xf3;" horiz-adv-x="577" 
d="M288 -12q-60 0 -105 20.5t-75 56.5t-44.5 85t-14.5 106t14.5 106t44.5 85t75 57t105 21t105 -21t75 -57t44.5 -85t14.5 -106t-14.5 -106t-44.5 -85t-75 -56.5t-105 -20.5zM288 67q69 0 102 50t33 139t-33 138.5t-102 49.5t-101.5 -49.5t-32.5 -138.5t32.5 -139t101.5 -50
zM294 594q-11 -2 -24 -3t-29 -1q-11 0 -22.5 1t-23.5 3l115 127q15 2 31 3t33 1q18 0 33 -1t29 -3z" />
    <glyph glyph-name="ocircumflex" unicode="&#xf4;" horiz-adv-x="577" 
d="M288 -12q-60 0 -105 20.5t-75 56.5t-44.5 85t-14.5 106t14.5 106t44.5 85t75 57t105 21t105 -21t75 -57t44.5 -85t14.5 -106t-14.5 -106t-44.5 -85t-75 -56.5t-105 -20.5zM288 67q69 0 102 50t33 139t-33 138.5t-102 49.5t-101.5 -49.5t-32.5 -138.5t32.5 -139t101.5 -50
zM454 594q-9 -2 -20.5 -3t-24.5 -1t-28.5 1t-28.5 3l-65 80l-65 -80q-11 -2 -25.5 -3t-27.5 -1q-29 0 -49 4l109 127q13 2 29.5 3t31.5 1q11 0 26.5 -1t29.5 -4z" />
    <glyph glyph-name="otilde" unicode="&#xf5;" horiz-adv-x="577" 
d="M288 -12q-60 0 -105 20.5t-75 56.5t-44.5 85t-14.5 106t14.5 106t44.5 85t75 57t105 21t105 -21t75 -57t44.5 -85t14.5 -106t-14.5 -106t-44.5 -85t-75 -56.5t-105 -20.5zM288 67q69 0 102 50t33 139t-33 138.5t-102 49.5t-101.5 -49.5t-32.5 -138.5t32.5 -139t101.5 -50
zM115 668q15 20 39 34.5t57 14.5q21 0 40 -7t36.5 -15t35.5 -15t38 -7q17 0 31.5 6t35.5 25q22 -27 32 -61q-16 -19 -40.5 -33t-56.5 -14q-21 0 -40 7t-37 15t-35.5 15t-36.5 7q-20 0 -34 -7t-34 -24q-11 14 -19 28.5t-12 30.5z" />
    <glyph glyph-name="odieresis" unicode="&#xf6;" horiz-adv-x="577" 
d="M288 -12q-60 0 -105 20.5t-75 56.5t-44.5 85t-14.5 106t14.5 106t44.5 85t75 57t105 21t105 -21t75 -57t44.5 -85t14.5 -106t-14.5 -106t-44.5 -85t-75 -56.5t-105 -20.5zM288 67q69 0 102 50t33 139t-33 138.5t-102 49.5t-101.5 -49.5t-32.5 -138.5t32.5 -139t101.5 -50
zM134 604q-2 13 -3 25t-1 25q0 12 1 24.5t3 25.5q12 2 25.5 3t25.5 1q11 0 24.5 -1t26.5 -3q4 -23 4 -50q0 -12 -1 -24.5t-3 -25.5q-26 -3 -51 -3q-11 0 -25 0.5t-26 2.5zM338 604q-4 23 -4 50q0 12 1 24.5t3 25.5q12 2 25.5 3t24.5 1q12 0 25.5 -1t26.5 -3q3 -26 3 -50
q0 -25 -3 -50q-26 -3 -51 -3q-11 0 -25 0.5t-26 2.5z" />
    <glyph glyph-name="divide" unicode="&#xf7;" 
d="M228 535q0 29 20 49t49 20q28 0 48.5 -20t20.5 -49t-20.5 -48.5t-48.5 -19.5q-29 0 -49 19.5t-20 48.5zM228 174q0 28 20 48.5t49 20.5q28 0 48.5 -20.5t20.5 -48.5q0 -29 -20.5 -49t-48.5 -20q-29 0 -49 20t-20 49zM512 398q2 -10 3 -22.5t1 -23.5t-1 -23.5t-3 -21.5
h-424q-2 9 -2.5 21.5t-0.5 23.5t0.5 23.5t2.5 22.5h424z" />
    <glyph glyph-name="oslash" unicode="&#xf8;" horiz-adv-x="577" 
d="M288 -12q-81 0 -136 38l-19 -25q-16 -4 -36 -4q-23 0 -38 3l51 65q-30 36 -44.5 85t-14.5 106t14.5 106t44 85t74 57t104.5 21q45 0 81.5 -12.5t64.5 -34.5l25 31q15 4 37 4t37 -3l-59 -74q26 -36 38.5 -81.5t12.5 -98.5q0 -57 -14.5 -106t-44 -85t-74 -56.5
t-104.5 -20.5zM153 256q0 -69 19 -113l207 265q-34 36 -91 36q-69 0 -102 -49.5t-33 -138.5zM288 67q69 0 102.5 50t33.5 139q0 29 -3.5 53t-10.5 45l-204 -260q31 -27 82 -27z" />
    <glyph glyph-name="ugrave" unicode="&#xf9;" horiz-adv-x="574" 
d="M74 513q11 2 25 3t24 1q11 0 25 -1t25 -3v-281q0 -48 9 -79.5t27 -49.5t44 -25t60 -7q51 0 87 11v431q11 2 24.5 3t24.5 1t24.5 -1t24.5 -3v-497q-35 -10 -83.5 -19t-100.5 -9q-49 0 -92.5 8.5t-76.5 34.5t-52 73t-19 124v285zM129 721q15 2 30 3t33 1q16 0 32.5 -1
t31.5 -3l115 -127q-23 -4 -47 -4q-15 0 -28.5 1t-24.5 3z" />
    <glyph glyph-name="uacute" unicode="&#xfa;" horiz-adv-x="574" 
d="M74 513q11 2 25 3t24 1q11 0 25 -1t25 -3v-281q0 -48 9 -79.5t27 -49.5t44 -25t60 -7q51 0 87 11v431q11 2 24.5 3t24.5 1t24.5 -1t24.5 -3v-497q-35 -10 -83.5 -19t-100.5 -9q-49 0 -92.5 8.5t-76.5 34.5t-52 73t-19 124v285zM313 594q-11 -2 -24 -3t-29 -1
q-11 0 -22.5 1t-23.5 3l115 127q15 2 31 3t33 1q18 0 33 -1t29 -3z" />
    <glyph glyph-name="ucircumflex" unicode="&#xfb;" horiz-adv-x="574" 
d="M74 513q11 2 25 3t24 1q11 0 25 -1t25 -3v-281q0 -48 9 -79.5t27 -49.5t44 -25t60 -7q51 0 87 11v431q11 2 24.5 3t24.5 1t24.5 -1t24.5 -3v-497q-35 -10 -83.5 -19t-100.5 -9q-49 0 -92.5 8.5t-76.5 34.5t-52 73t-19 124v285zM453 594q-9 -2 -20.5 -3t-24.5 -1t-28.5 1
t-28.5 3l-65 80l-65 -80q-11 -2 -25.5 -3t-27.5 -1q-29 0 -49 4l109 127q13 2 29.5 3t31.5 1q11 0 26.5 -1t29.5 -4z" />
    <glyph glyph-name="udieresis" unicode="&#xfc;" horiz-adv-x="574" 
d="M74 513q11 2 25 3t24 1q11 0 25 -1t25 -3v-281q0 -48 9 -79.5t27 -49.5t44 -25t60 -7q51 0 87 11v431q11 2 24.5 3t24.5 1t24.5 -1t24.5 -3v-497q-35 -10 -83.5 -19t-100.5 -9q-49 0 -92.5 8.5t-76.5 34.5t-52 73t-19 124v285zM139 604q-2 13 -3 25t-1 25q0 12 1 24.5
t3 25.5q12 2 25.5 3t25.5 1q11 0 24.5 -1t26.5 -3q4 -23 4 -50q0 -12 -1 -24.5t-3 -25.5q-26 -3 -51 -3q-11 0 -25 0.5t-26 2.5zM343 604q-4 23 -4 50q0 12 1 24.5t3 25.5q12 2 25.5 3t24.5 1q12 0 25.5 -1t26.5 -3q3 -26 3 -50q0 -25 -3 -50q-26 -3 -51 -3q-11 0 -25 0.5
t-26 2.5z" />
    <glyph glyph-name="yacute" unicode="&#xfd;" horiz-adv-x="527" 
d="M255 -1q-8 0 -16.5 -0.5t-16.5 -0.5q-10 0 -21 0.5t-18 1.5l-170 513q13 2 27 2.5t26 0.5q13 0 29 -0.5t27 -2.5l142 -477l147 477q21 3 49 3q11 0 25 -0.5t28 -2.5l-199 -617q-14 -41 -29 -69t-34 -45t-42.5 -24t-54.5 -7q-23 0 -45.5 3.5t-39.5 8.5q0 23 4 41t12 36
q9 -3 24.5 -6.5t33.5 -3.5q13 0 24.5 2.5t21.5 10t18.5 21.5t16.5 38zM275 594q-11 -2 -24 -3t-29 -1q-11 0 -22.5 1t-23.5 3l115 127q15 2 31 3t33 1q18 0 33 -1t29 -3z" />
    <glyph glyph-name="thorn" unicode="&#xfe;" horiz-adv-x="590" 
d="M78 733q12 2 25.5 2.5t24.5 0.5t24.5 -0.5t24.5 -2.5v-285q20 30 57.5 53.5t94.5 23.5q45 0 83.5 -15.5t66 -47t43 -79.5t15.5 -114q0 -132 -71.5 -206.5t-203.5 -74.5q-21 0 -44 3.5t-41 8.5v-236q-11 -2 -25 -2.5t-24 -0.5q-11 0 -24.5 0.5t-25.5 2.5v969zM177 84
q19 -7 39.5 -10.5t51.5 -3.5q36 0 66 11.5t51.5 35.5t34 61t12.5 87q0 79 -29 126t-96 47q-25 0 -48.5 -8.5t-41.5 -26.5t-29 -45.5t-11 -65.5v-208z" />
    <glyph glyph-name="ydieresis" unicode="&#xff;" horiz-adv-x="527" 
d="M255 -1q-8 0 -16.5 -0.5t-16.5 -0.5q-10 0 -21 0.5t-18 1.5l-170 513q13 2 27 2.5t26 0.5q13 0 29 -0.5t27 -2.5l142 -477l147 477q21 3 49 3q11 0 25 -0.5t28 -2.5l-199 -617q-14 -41 -29 -69t-34 -45t-42.5 -24t-54.5 -7q-23 0 -45.5 3.5t-39.5 8.5q0 23 4 41t12 36
q9 -3 24.5 -6.5t33.5 -3.5q13 0 24.5 2.5t21.5 10t18.5 21.5t16.5 38zM111 604q-2 13 -3 25t-1 25q0 12 1 24.5t3 25.5q12 2 25.5 3t25.5 1q11 0 24.5 -1t26.5 -3q4 -23 4 -50q0 -12 -1 -24.5t-3 -25.5q-26 -3 -51 -3q-11 0 -25 0.5t-26 2.5zM315 604q-4 23 -4 50
q0 12 1 24.5t3 25.5q12 2 25.5 3t24.5 1q12 0 25.5 -1t26.5 -3q3 -26 3 -50q0 -25 -3 -50q-26 -3 -51 -3q-11 0 -25 0.5t-26 2.5z" />
    <glyph glyph-name="Amacron" unicode="&#x100;" horiz-adv-x="617" 
d="M442 166h-273l-49 -166q-13 -2 -26 -3t-26 -1q-14 0 -27.5 1t-24.5 3l234 719q13 2 28 3t31 1q14 0 29 -1t29 -3l233 -719q-12 -2 -27 -3t-29 -1q-13 0 -26.5 1t-25.5 3zM196 255h219l-110 367zM467 869q2 -8 2.5 -18.5t0.5 -19.5t-0.5 -19t-2.5 -18h-319q-2 8 -3 18
t-1 19t1 19.5t3 18.5h319z" />
    <glyph glyph-name="amacron" unicode="&#x101;" horiz-adv-x="517" 
d="M351 241q-15 2 -38 4t-39 2q-62 0 -94.5 -23t-32.5 -70q0 -30 11 -47t27.5 -26t36.5 -11t38 -2q23 0 47.5 2.5t43.5 7.5v163zM351 338q0 59 -30 82t-87 23q-35 0 -65.5 -5.5t-59.5 -14.5q-19 33 -19 79q34 11 75 17t79 6q100 0 152 -45.5t52 -145.5v-321
q-35 -8 -85 -16.5t-102 -8.5q-49 0 -88.5 9t-67 29t-42.5 51t-15 75q0 43 17.5 75.5t47.5 54t69 32t82 10.5q32 0 52.5 -1.5t34.5 -3.5v19zM395 694q2 -8 3 -18t1 -19t-1 -19t-3 -18h-270q-2 8 -3 18t-1 19q0 8 1 18.5t3 18.5h270z" />
    <glyph glyph-name="Abreve" unicode="&#x102;" horiz-adv-x="617" 
d="M442 166h-273l-49 -166q-13 -2 -26 -3t-26 -1q-14 0 -27.5 1t-24.5 3l234 719q13 2 28 3t31 1q14 0 29 -1t29 -3l233 -719q-12 -2 -27 -3t-29 -1q-13 0 -26.5 1t-25.5 3zM196 255h219l-110 367zM307 773q-23 0 -50.5 4t-52 17t-42.5 36t-22 61q11 2 21.5 3.5t21.5 1.5
q12 0 23 -1.5t22 -3.5q3 -22 20 -38t59 -16t59 16t20 38q25 5 46 5q11 0 21 -1.5t22 -3.5q-4 -38 -22.5 -61t-43 -36t-52 -17t-50.5 -4z" />
    <glyph glyph-name="abreve" unicode="&#x103;" horiz-adv-x="517" 
d="M351 241q-15 2 -38 4t-39 2q-62 0 -94.5 -23t-32.5 -70q0 -30 11 -47t27.5 -26t36.5 -11t38 -2q23 0 47.5 2.5t43.5 7.5v163zM351 338q0 59 -30 82t-87 23q-35 0 -65.5 -5.5t-59.5 -14.5q-19 33 -19 79q34 11 75 17t79 6q100 0 152 -45.5t52 -145.5v-321
q-35 -8 -85 -16.5t-102 -8.5q-49 0 -88.5 9t-67 29t-42.5 51t-15 75q0 43 17.5 75.5t47.5 54t69 32t82 10.5q32 0 52.5 -1.5t34.5 -3.5v19zM261 586q-23 0 -49.5 5.5t-50.5 20.5t-42 41t-23 67q11 3 23 4t23 1t21.5 -1.5t21.5 -3.5q1 -12 5.5 -23.5t13.5 -21t22.5 -15.5
t34.5 -6t34.5 6t22.5 15.5t13 21t6 23.5q12 2 23 3.5t22 1.5t22.5 -1t21.5 -4q-5 -41 -23 -67t-42 -41t-50.5 -20.5t-49.5 -5.5z" />
    <glyph glyph-name="Aogonek" unicode="&#x104;" horiz-adv-x="617" 
d="M441 166h-271l-50 -166q-13 -2 -26 -3t-26 -1q-14 0 -27.5 1t-24.5 3l234 719q13 2 28 3t31 1q14 0 29 -1t29 -3l233 -719q-17 -3 -35 -15.5t-33 -30t-25 -38.5t-10 -40q0 -23 14.5 -36.5t42.5 -13.5q8 0 21.5 2t30.5 7q8 -13 11 -31.5t4 -33.5q-15 -5 -36 -8.5t-51 -3.5
q-24 0 -47 5.5t-41 17.5t-29.5 31t-11.5 47q0 37 24 74.5t63 66.5zM415 255l-110 358l-109 -358h219z" />
    <glyph glyph-name="aogonek" unicode="&#x105;" horiz-adv-x="517" 
d="M351 338q0 59 -30 82t-87 23q-35 0 -65.5 -5.5t-59.5 -14.5q-19 33 -19 79q34 11 75 17t79 6q100 0 152 -45.5t52 -145.5v-321l-18 -9q-52 -26 -76 -60t-24 -66q0 -24 13.5 -39t41.5 -15q9 0 21 1.5t28 6.5q7 -12 10.5 -30t4.5 -33q-14 -5 -36.5 -8t-46.5 -3t-47 5.5
t-40.5 17.5t-28.5 31t-11 46q0 32 19.5 68t53.5 65q-26 -3 -51 -3q-49 0 -88.5 9t-67 29t-42.5 51t-15 75q0 43 17.5 75.5t47.5 54t69 32t82 10.5q32 0 52.5 -1.5t34.5 -3.5v19zM351 241q-15 2 -38 4t-39 2q-62 0 -94.5 -23t-32.5 -70q0 -30 11 -47t27.5 -26t36.5 -11t38 -2
q23 0 47.5 2.5t43.5 7.5v163z" />
    <glyph glyph-name="Cacute" unicode="&#x106;" horiz-adv-x="618" 
d="M547 105q22 -43 28 -83q-42 -18 -86 -26t-95 -8q-78 0 -140.5 25.5t-105.5 73t-66 115.5t-23 153q0 86 23 155.5t66 118.5t105 75.5t139 26.5q57 0 98 -8t73 -19q-2 -23 -8.5 -42.5t-15.5 -41.5q-15 5 -29 9t-30 7t-35.5 4.5t-44.5 1.5q-109 0 -169.5 -74t-60.5 -213
q0 -71 17 -123t48 -86t74.5 -51t97.5 -17q42 0 76 7t64 20zM409 779q-13 -2 -27 -3t-28 -1t-26 1t-26 3l106 108q16 2 34 3.5t36 1.5q19 0 36 -1.5t31 -3.5z" />
    <glyph glyph-name="cacute" unicode="&#x107;" horiz-adv-x="478" 
d="M422 89q8 -14 14 -35t7 -43q-59 -23 -135 -23q-128 0 -193 72.5t-65 195.5q0 57 16 106t47.5 85t78.5 57t109 21q42 0 74 -5t61 -16q0 -17 -4.5 -39.5t-12.5 -39.5q-49 17 -112 17q-77 0 -115 -51t-38 -135q0 -96 43 -140.5t118 -44.5q30 0 55.5 4t51.5 14zM308 594
q-11 -2 -24 -3t-29 -1q-11 0 -22.5 1t-23.5 3l115 127q15 2 31 3t33 1q18 0 33 -1t29 -3z" />
    <glyph glyph-name="Ccircumflex" unicode="&#x108;" horiz-adv-x="618" 
d="M547 105q22 -43 28 -83q-42 -18 -86 -26t-95 -8q-78 0 -140.5 25.5t-105.5 73t-66 115.5t-23 153q0 86 23 155.5t66 118.5t105 75.5t139 26.5q57 0 98 -8t73 -19q-2 -23 -8.5 -42.5t-15.5 -41.5q-15 5 -29 9t-30 7t-35.5 4.5t-44.5 1.5q-109 0 -169.5 -74t-60.5 -213
q0 -71 17 -123t48 -86t74.5 -51t97.5 -17q42 0 76 7t64 20zM553 779q-9 -2 -20 -3t-21 -1h-22q-11 0 -24.5 1t-21.5 3l-65 61l-65 -61q-9 -2 -23 -3t-24 -1h-23q-10 0 -20.5 1t-20.5 3l118 108q11 2 26 3t32 1t31.5 -1t27.5 -3z" />
    <glyph glyph-name="ccircumflex" unicode="&#x109;" horiz-adv-x="478" 
d="M422 89q8 -14 14 -35t7 -43q-59 -23 -135 -23q-128 0 -193 72.5t-65 195.5q0 57 16 106t47.5 85t78.5 57t109 21q42 0 74 -5t61 -16q0 -17 -4.5 -39.5t-12.5 -39.5q-49 17 -112 17q-77 0 -115 -51t-38 -135q0 -96 43 -140.5t118 -44.5q30 0 55.5 4t51.5 14zM449 594
q-9 -2 -20.5 -3t-24.5 -1t-28.5 1t-28.5 3l-65 80l-65 -80q-11 -2 -25.5 -3t-27.5 -1q-29 0 -49 4l109 127q13 2 29.5 3t31.5 1q11 0 26.5 -1t29.5 -4z" />
    <glyph glyph-name="Cdotaccent" unicode="&#x10a;" horiz-adv-x="618" 
d="M547 105q22 -43 28 -83q-42 -18 -86 -26t-95 -8q-78 0 -140.5 25.5t-105.5 73t-66 115.5t-23 153q0 86 23 155.5t66 118.5t105 75.5t139 26.5q57 0 98 -8t73 -19q-2 -23 -8.5 -42.5t-15.5 -41.5q-15 5 -29 9t-30 7t-35.5 4.5t-44.5 1.5q-109 0 -169.5 -74t-60.5 -213
q0 -71 17 -123t48 -86t74.5 -51t97.5 -17q42 0 76 7t64 20zM337 788q-4 23 -4 51q0 13 1 26t3 26q14 3 27.5 4t26.5 1t27 -1t28 -4q4 -23 4 -51q0 -13 -1 -26t-3 -26q-14 -3 -27.5 -4t-26.5 -1t-27 1t-28 4z" />
    <glyph glyph-name="cdotaccent" unicode="&#x10b;" horiz-adv-x="478" 
d="M422 89q8 -14 14 -35t7 -43q-59 -23 -135 -23q-128 0 -193 72.5t-65 195.5q0 57 16 106t47.5 85t78.5 57t109 21q42 0 74 -5t61 -16q0 -17 -4.5 -39.5t-12.5 -39.5q-49 17 -112 17q-77 0 -115 -51t-38 -135q0 -96 43 -140.5t118 -44.5q30 0 55.5 4t51.5 14zM233 607
q-2 14 -3 27.5t-1 27.5q0 13 1 27t3 28q14 2 28.5 3.5t28.5 1.5t29 -1.5t29 -3.5q2 -14 3 -27.5t1 -27.5q0 -13 -1 -27t-3 -28q-14 -2 -28.5 -3t-28.5 -1t-29 1t-29 3z" />
    <glyph glyph-name="Ccaron" unicode="&#x10c;" horiz-adv-x="618" 
d="M547 105q22 -43 28 -83q-42 -18 -86 -26t-95 -8q-78 0 -140.5 25.5t-105.5 73t-66 115.5t-23 153q0 86 23 155.5t66 118.5t105 75.5t139 26.5q57 0 98 -8t73 -19q-2 -23 -8.5 -42.5t-15.5 -41.5q-15 5 -29 9t-30 7t-35.5 4.5t-44.5 1.5q-109 0 -169.5 -74t-60.5 -213
q0 -71 17 -123t48 -86t74.5 -51t97.5 -17q42 0 76 7t64 20zM212 887q9 1 20 2.5t21 1.5h22q11 0 24.5 -1.5t21.5 -2.5q17 -16 33 -31t32 -31l65 62q9 1 23 2.5t24 1.5h23q10 0 20.5 -1.5t20.5 -2.5l-118 -108q-11 -2 -26 -3t-32 -1t-31.5 1t-27.5 3z" />
    <glyph glyph-name="ccaron" unicode="&#x10d;" horiz-adv-x="478" 
d="M422 89q8 -14 14 -35t7 -43q-59 -23 -135 -23q-128 0 -193 72.5t-65 195.5q0 57 16 106t47.5 85t78.5 57t109 21q42 0 74 -5t61 -16q0 -17 -4.5 -39.5t-12.5 -39.5q-49 17 -112 17q-77 0 -115 -51t-38 -135q0 -96 43 -140.5t118 -44.5q30 0 55.5 4t51.5 14zM129 720
q10 2 21 3.5t25 1.5q12 0 28 -1.5t28 -3.5l65 -80l65 80q11 2 26 3.5t28 1.5q25 0 48 -5l-109 -127q-13 -2 -29.5 -2.5t-30.5 -0.5q-11 0 -27 1t-30 3z" />
    <glyph glyph-name="Dcaron" unicode="&#x10e;" horiz-adv-x="699" 
d="M89 719q34 4 82 7.5t94 3.5q189 0 282.5 -96t93.5 -276q0 -188 -95.5 -279t-284.5 -91q-47 0 -93 3.5t-79 8.5v719zM191 84q14 -2 34.5 -3.5t43.5 -1.5q59 0 107.5 13.5t83.5 45.5t54 86.5t19 136.5q0 75 -19 128t-53.5 86.5t-82.5 48.5t-106 15q-19 0 -41.5 -0.5
t-39.5 -3.5v-551zM123 887q9 1 20 2.5t21 1.5h22q11 0 24.5 -1.5t21.5 -2.5q17 -16 33 -31t32 -31l65 62q9 1 23 2.5t24 1.5h23q10 0 20.5 -1.5t20.5 -2.5l-118 -108q-11 -2 -26 -3t-32 -1t-31.5 1t-27.5 3z" />
    <glyph glyph-name="dcaron" unicode="&#x10f;" horiz-adv-x="667" 
d="M409 733q11 2 25 3t24 1q11 0 24.5 -1t24.5 -3v-719q-38 -11 -85 -18.5t-105 -7.5q-54 0 -102.5 13.5t-84.5 44.5t-57 80t-21 121q0 62 18.5 113t52.5 87.5t81.5 56.5t105.5 20q26 0 52.5 -4t46.5 -10v223zM409 426q-20 8 -43 12t-50 4q-41 0 -71 -15t-49.5 -41
t-29 -61.5t-9.5 -77.5q1 -95 45 -136t120 -41q26 0 48 2.5t39 7.5v346zM590 731q16 4 46 4q12 0 24.5 -1t23.5 -3l-14 -203q-8 -2 -18 -3t-20 -1t-20.5 1t-21.5 3v203z" />
    <glyph glyph-name="Dcroat" unicode="&#x110;" horiz-adv-x="708" 
d="M98 331h-82q-2 8 -3 18t-1 19t1 19.5t3 18.5h82v313q34 4 82 7.5t94 3.5q189 0 282.5 -96t93.5 -276q0 -188 -95.5 -279t-284.5 -91q-47 0 -93 3.5t-79 8.5v331zM200 406h162q2 -8 3 -18.5t1 -19.5q0 -8 -1 -18.5t-3 -18.5h-162v-247q14 -2 34.5 -3.5t43.5 -1.5
q59 0 107.5 13.5t83.5 45.5t54 86.5t19 136.5q0 75 -19 128t-53.5 86.5t-82.5 48.5t-106 15q-19 0 -41.5 -0.5t-39.5 -3.5v-229z" />
    <glyph glyph-name="dcroat" unicode="&#x111;" horiz-adv-x="597" 
d="M409 583h-146q-2 6 -3 15.5t-1 17.5t1 18t3 17h146v82q11 2 25 3t24 1q11 0 24.5 -1t24.5 -3v-82h73q2 -7 3 -16.5t1 -17.5t-1 -18t-3 -16h-73v-569q-38 -11 -85 -18.5t-105 -7.5q-54 0 -102 13.5t-84 44.5t-57 80t-21 121q0 62 18.5 113t52 87.5t81 56.5t105.5 20
q26 0 52.5 -4t46.5 -10v73zM409 428q-20 8 -43 12t-50 4q-41 0 -71.5 -15t-50.5 -41t-29.5 -61.5t-9.5 -77.5q1 -95 45 -136t120 -41q26 0 49 2.5t40 7.5v346z" />
    <glyph glyph-name="Emacron" unicode="&#x112;" horiz-adv-x="536" 
d="M88 719h395q3 -20 3 -44q0 -11 -0.5 -23t-2.5 -22h-293v-206h234q2 -10 3 -21.5t1 -22.5t-1 -23t-3 -22h-234v-246h301q3 -20 3 -44q0 -11 -0.5 -23t-2.5 -22h-403v719zM445 869q2 -8 2.5 -18.5t0.5 -19.5t-0.5 -19t-2.5 -18h-319q-2 8 -3 18t-1 19t1 19.5t3 18.5h319z
" />
    <glyph glyph-name="emacron" unicode="&#x113;" horiz-adv-x="557" 
d="M155 232q2 -84 43.5 -123t122.5 -39q71 0 135 25q8 -15 13 -36.5t6 -42.5q-33 -14 -72.5 -21t-87.5 -7q-70 0 -120 19.5t-82.5 55t-47.5 84t-15 106.5q0 57 14.5 106.5t44.5 86t75.5 58t107.5 21.5q53 0 93 -18t67 -49.5t41 -75t14 -94.5q0 -14 -1 -29.5t-2 -26.5h-349z
M409 306q0 28 -7.5 53.5t-22 44.5t-37 30.5t-53.5 11.5q-61 0 -93.5 -37t-39.5 -103h253zM422 694q2 -8 3 -18t1 -19t-1 -19t-3 -18h-270q-2 8 -3 18t-1 19q0 8 1 18.5t3 18.5h270z" />
    <glyph glyph-name="Ebreve" unicode="&#x114;" horiz-adv-x="536" 
d="M88 719h395q3 -20 3 -44q0 -11 -0.5 -23t-2.5 -22h-293v-206h234q2 -10 3 -21.5t1 -22.5t-1 -23t-3 -22h-234v-246h301q3 -20 3 -44q0 -11 -0.5 -23t-2.5 -22h-403v719zM290 773q-23 0 -50.5 4t-52 17t-42.5 36t-22 61q11 2 21.5 3.5t21.5 1.5q12 0 23 -1.5t22 -3.5
q3 -22 20 -38t59 -16t59 16t20 38q25 5 46 5q11 0 21 -1.5t22 -3.5q-4 -38 -22.5 -61t-43 -36t-52 -17t-50.5 -4z" />
    <glyph glyph-name="ebreve" unicode="&#x115;" horiz-adv-x="557" 
d="M155 232q2 -84 43.5 -123t122.5 -39q71 0 135 25q8 -15 13 -36.5t6 -42.5q-33 -14 -72.5 -21t-87.5 -7q-70 0 -120 19.5t-82.5 55t-47.5 84t-15 106.5q0 57 14.5 106.5t44.5 86t75.5 58t107.5 21.5q53 0 93 -18t67 -49.5t41 -75t14 -94.5q0 -14 -1 -29.5t-2 -26.5h-349z
M409 306q0 28 -7.5 53.5t-22 44.5t-37 30.5t-53.5 11.5q-61 0 -93.5 -37t-39.5 -103h253zM286 586q-23 0 -49.5 5.5t-50.5 20.5t-42 41t-23 67q11 3 23 4t23 1t21.5 -1.5t21.5 -3.5q1 -12 5.5 -23.5t13.5 -21t22.5 -15.5t34.5 -6t34.5 6t22.5 15.5t13 21t6 23.5q12 2 23 3.5
t22 1.5t22.5 -1t21.5 -4q-5 -41 -23 -67t-42 -41t-50.5 -20.5t-49.5 -5.5z" />
    <glyph glyph-name="Edotaccent" unicode="&#x116;" horiz-adv-x="536" 
d="M88 719h395q3 -20 3 -44q0 -11 -0.5 -23t-2.5 -22h-293v-206h234q2 -10 3 -21.5t1 -22.5t-1 -23t-3 -22h-234v-246h301q3 -20 3 -44q0 -11 -0.5 -23t-2.5 -22h-403v719zM238 788q-4 23 -4 51q0 13 1 26t3 26q14 3 27.5 4t26.5 1t27 -1t28 -4q4 -23 4 -51q0 -13 -1 -26
t-3 -26q-14 -3 -27.5 -4t-26.5 -1t-27 1t-28 4z" />
    <glyph glyph-name="edotaccent" unicode="&#x117;" horiz-adv-x="557" 
d="M155 232q2 -84 43.5 -123t122.5 -39q71 0 135 25q8 -15 13 -36.5t6 -42.5q-33 -14 -72.5 -21t-87.5 -7q-70 0 -120 19.5t-82.5 55t-47.5 84t-15 106.5q0 57 14.5 106.5t44.5 86t75.5 58t107.5 21.5q53 0 93 -18t67 -49.5t41 -75t14 -94.5q0 -14 -1 -29.5t-2 -26.5h-349z
M409 306q0 28 -7.5 53.5t-22 44.5t-37 30.5t-53.5 11.5q-61 0 -93.5 -37t-39.5 -103h253zM235 607q-2 14 -3 27.5t-1 27.5q0 13 1 27t3 28q14 2 28.5 3.5t28.5 1.5t29 -1.5t29 -3.5q2 -14 3 -27.5t1 -27.5q0 -13 -1 -27t-3 -28q-14 -2 -28.5 -3t-28.5 -1t-29 1t-29 3z" />
    <glyph glyph-name="Eogonek" unicode="&#x118;" horiz-adv-x="536" 
d="M87 719h395q2 -11 3 -22t1 -22t-1 -23.5t-3 -22.5h-293v-205h235q3 -21 3 -45q0 -11 -0.5 -22.5t-2.5 -22.5h-235v-245h301q2 -10 3 -21.5t1 -22.5q0 -4 -0.5 -9.5t-0.5 -8.5q-23 -21 -45 -38t-39 -33.5t-27 -35.5t-10 -43q0 -23 14 -36.5t42 -13.5q8 0 21.5 1.5
t30.5 6.5q8 -13 11.5 -31t3.5 -34q-15 -5 -36 -8.5t-51 -3.5q-24 0 -47 5.5t-41 17.5t-29.5 31.5t-11.5 47.5q0 37 24 74t63 66h-279v719z" />
    <glyph glyph-name="eogonek" unicode="&#x119;" horiz-adv-x="556" 
d="M154 232q2 -84 43.5 -123t122.5 -39q71 0 135 25q8 -15 13.5 -36.5t6.5 -42.5q-23 -9 -44.5 -23t-38.5 -31.5t-27.5 -38.5t-10.5 -44q0 -25 14.5 -39.5t42.5 -14.5q8 0 19.5 1.5t27.5 6.5q7 -13 10.5 -31t4.5 -32q-14 -5 -36.5 -8.5t-46.5 -3.5t-47 5.5t-40.5 17.5
t-28.5 31.5t-11 46.5q0 31 18.5 65.5t51.5 63.5h-19q-70 0 -120 19.5t-82.5 55t-47.5 84t-15 106.5q0 57 14.5 106.5t44.5 86t75.5 58t107.5 21.5q53 0 93 -18t67 -49.5t41 -75t14 -94.5q0 -14 -1 -29.5t-2 -26.5h-349zM408 306q0 28 -7.5 53.5t-22 44.5t-37 30.5
t-53.5 11.5q-61 0 -93.5 -37t-39.5 -103h253z" />
    <glyph glyph-name="Ecaron" unicode="&#x11a;" horiz-adv-x="536" 
d="M88 719h395q3 -20 3 -44q0 -11 -0.5 -23t-2.5 -22h-293v-206h234q2 -10 3 -21.5t1 -22.5t-1 -23t-3 -22h-234v-246h301q3 -20 3 -44q0 -11 -0.5 -23t-2.5 -22h-403v719zM118 887q9 1 20 2.5t21 1.5h22q11 0 24.5 -1.5t21.5 -2.5q17 -16 33 -31t32 -31l65 62q9 1 23 2.5
t24 1.5h23q10 0 20.5 -1.5t20.5 -2.5l-118 -108q-11 -2 -26 -3t-32 -1t-31.5 1t-27.5 3z" />
    <glyph glyph-name="ecaron" unicode="&#x11b;" horiz-adv-x="557" 
d="M155 232q2 -84 43.5 -123t122.5 -39q71 0 135 25q8 -15 13 -36.5t6 -42.5q-33 -14 -72.5 -21t-87.5 -7q-70 0 -120 19.5t-82.5 55t-47.5 84t-15 106.5q0 57 14.5 106.5t44.5 86t75.5 58t107.5 21.5q53 0 93 -18t67 -49.5t41 -75t14 -94.5q0 -14 -1 -29.5t-2 -26.5h-349z
M409 306q0 28 -7.5 53.5t-22 44.5t-37 30.5t-53.5 11.5q-61 0 -93.5 -37t-39.5 -103h253zM119 720q10 2 21 3.5t25 1.5q12 0 28 -1.5t28 -3.5l65 -80l65 80q11 2 26 3.5t28 1.5q25 0 48 -5l-109 -127q-13 -2 -29.5 -2.5t-30.5 -0.5q-11 0 -27 1t-30 3z" />
    <glyph glyph-name="Gcircumflex" unicode="&#x11c;" horiz-adv-x="681" 
d="M504 372q12 2 25 3t26 1t26 -1t24 -3v-351q-21 -9 -46 -15.5t-52 -10t-54 -5.5t-51 -2q-80 0 -144 25t-108 72.5t-67.5 115.5t-23.5 154t24 155.5t68.5 118.5t106 75.5t136.5 26.5q57 0 99 -7.5t76 -20.5q-2 -23 -8.5 -42.5t-15.5 -41.5q-28 9 -60.5 16t-81.5 7
q-53 0 -96.5 -19t-74 -55.5t-47.5 -90t-17 -122.5q0 -71 17.5 -122.5t49.5 -86t75.5 -51t96.5 -16.5q32 0 56 3.5t41 8.5v281zM563 779q-9 -2 -20 -3t-21 -1h-22q-11 0 -24.5 1t-21.5 3l-65 61l-65 -61q-9 -2 -23 -3t-24 -1h-23q-10 0 -20.5 1t-20.5 3l118 108q11 2 26 3
t32 1t31.5 -1t27.5 -3z" />
    <glyph glyph-name="gcircumflex" unicode="&#x11d;" horiz-adv-x="549" 
d="M355 66q89 -2 129 -38t40 -99q0 -41 -21 -73.5t-58 -56t-87.5 -36t-109.5 -12.5q-103 0 -157 32t-54 101q0 41 22 73.5t57 51.5q-20 13 -33.5 32.5t-13.5 48.5q0 37 16.5 64t44.5 48q-33 23 -53 59.5t-20 82.5q0 38 14 71t40.5 57.5t65.5 38.5t89 14q45 0 81.5 -13
t62.5 -33q20 16 54 26.5t75 10.5q4 -19 4 -42q0 -11 -1 -23t-3 -24h-90q11 -17 17 -37t6 -46q0 -41 -15 -74t-42.5 -56.5t-65.5 -36t-83 -12.5q-41 0 -74 9q-14 -8 -27.5 -24.5t-13.5 -35.5q0 -18 13 -31.5t58 -14.5zM220 -13q-45 1 -67.5 -24t-22.5 -60q0 -22 9 -36
t25.5 -22.5t39 -12t49.5 -3.5q80 0 125 26.5t45 66.5q0 30 -19 46t-70 17zM266 237q54 0 80 30t26 77q0 48 -26 78.5t-80 30.5t-79.5 -30.5t-25.5 -78.5q0 -47 25.5 -77t79.5 -30zM441 594q-9 -2 -20.5 -3t-24.5 -1t-28.5 1t-28.5 3l-65 80l-65 -80q-11 -2 -25.5 -3
t-27.5 -1q-29 0 -49 4l109 127q13 2 29.5 3t31.5 1q11 0 26.5 -1t29.5 -4z" />
    <glyph glyph-name="Gbreve" unicode="&#x11e;" horiz-adv-x="681" 
d="M504 372q12 2 25 3t26 1t26 -1t24 -3v-351q-21 -9 -46 -15.5t-52 -10t-54 -5.5t-51 -2q-80 0 -144 25t-108 72.5t-67.5 115.5t-23.5 154t24 155.5t68.5 118.5t106 75.5t136.5 26.5q57 0 99 -7.5t76 -20.5q-2 -23 -8.5 -42.5t-15.5 -41.5q-28 9 -60.5 16t-81.5 7
q-53 0 -96.5 -19t-74 -55.5t-47.5 -90t-17 -122.5q0 -71 17.5 -122.5t49.5 -86t75.5 -51t96.5 -16.5q32 0 56 3.5t41 8.5v281zM382 773q-23 0 -50.5 4t-52 17t-42.5 36t-22 61q11 2 21.5 3.5t21.5 1.5q12 0 23 -1.5t22 -3.5q3 -22 20 -38t59 -16t59 16t20 38q25 5 46 5
q11 0 21 -1.5t22 -3.5q-4 -38 -22.5 -61t-43 -36t-52 -17t-50.5 -4z" />
    <glyph glyph-name="gbreve" unicode="&#x11f;" horiz-adv-x="549" 
d="M355 66q89 -2 129 -38t40 -99q0 -41 -21 -73.5t-58 -56t-87.5 -36t-109.5 -12.5q-103 0 -157 32t-54 101q0 41 22 73.5t57 51.5q-20 13 -33.5 32.5t-13.5 48.5q0 37 16.5 64t44.5 48q-33 23 -53 59.5t-20 82.5q0 38 14 71t40.5 57.5t65.5 38.5t89 14q45 0 81.5 -13
t62.5 -33q20 16 54 26.5t75 10.5q4 -19 4 -42q0 -11 -1 -23t-3 -24h-90q11 -17 17 -37t6 -46q0 -41 -15 -74t-42.5 -56.5t-65.5 -36t-83 -12.5q-41 0 -74 9q-14 -8 -27.5 -24.5t-13.5 -35.5q0 -18 13 -31.5t58 -14.5zM220 -13q-45 1 -67.5 -24t-22.5 -60q0 -22 9 -36
t25.5 -22.5t39 -12t49.5 -3.5q80 0 125 26.5t45 66.5q0 30 -19 46t-70 17zM266 237q54 0 80 30t26 77q0 48 -26 78.5t-80 30.5t-79.5 -30.5t-25.5 -78.5q0 -47 25.5 -77t79.5 -30zM273 586q-23 0 -49.5 5.5t-50.5 20.5t-42 41t-23 67q11 3 23 4t23 1t21.5 -1.5t21.5 -3.5
q1 -12 5.5 -23.5t13.5 -21t22.5 -15.5t34.5 -6t34.5 6t22.5 15.5t13 21t6 23.5q12 2 23 3.5t22 1.5t22.5 -1t21.5 -4q-5 -41 -23 -67t-42 -41t-50.5 -20.5t-49.5 -5.5z" />
    <glyph glyph-name="Gdotaccent" unicode="&#x120;" horiz-adv-x="681" 
d="M504 372q12 2 25 3t26 1t26 -1t24 -3v-351q-21 -9 -46 -15.5t-52 -10t-54 -5.5t-51 -2q-80 0 -144 25t-108 72.5t-67.5 115.5t-23.5 154t24 155.5t68.5 118.5t106 75.5t136.5 26.5q57 0 99 -7.5t76 -20.5q-2 -23 -8.5 -42.5t-15.5 -41.5q-28 9 -60.5 16t-81.5 7
q-53 0 -96.5 -19t-74 -55.5t-47.5 -90t-17 -122.5q0 -71 17.5 -122.5t49.5 -86t75.5 -51t96.5 -16.5q32 0 56 3.5t41 8.5v281zM337 788q-4 23 -4 51q0 13 1 26t3 26q14 3 27.5 4t26.5 1t27 -1t28 -4q4 -23 4 -51q0 -13 -1 -26t-3 -26q-14 -3 -27.5 -4t-26.5 -1t-27 1t-28 4z
" />
    <glyph glyph-name="gdotaccent" unicode="&#x121;" horiz-adv-x="549" 
d="M355 66q89 -2 129 -38t40 -99q0 -41 -21 -73.5t-58 -56t-87.5 -36t-109.5 -12.5q-103 0 -157 32t-54 101q0 41 22 73.5t57 51.5q-20 13 -33.5 32.5t-13.5 48.5q0 37 16.5 64t44.5 48q-33 23 -53 59.5t-20 82.5q0 38 14 71t40.5 57.5t65.5 38.5t89 14q45 0 81.5 -13
t62.5 -33q20 16 54 26.5t75 10.5q4 -19 4 -42q0 -11 -1 -23t-3 -24h-90q11 -17 17 -37t6 -46q0 -41 -15 -74t-42.5 -56.5t-65.5 -36t-83 -12.5q-41 0 -74 9q-14 -8 -27.5 -24.5t-13.5 -35.5q0 -18 13 -31.5t58 -14.5zM220 -13q-45 1 -67.5 -24t-22.5 -60q0 -22 9 -36
t25.5 -22.5t39 -12t49.5 -3.5q80 0 125 26.5t45 66.5q0 30 -19 46t-70 17zM266 237q54 0 80 30t26 77q0 48 -26 78.5t-80 30.5t-79.5 -30.5t-25.5 -78.5q0 -47 25.5 -77t79.5 -30zM209 607q-2 14 -3 27.5t-1 27.5q0 13 1 27t3 28q14 2 28.5 3.5t28.5 1.5t29 -1.5t29 -3.5
q2 -14 3 -27.5t1 -27.5q0 -13 -1 -27t-3 -28q-14 -2 -28.5 -3t-28.5 -1t-29 1t-29 3z" />
    <glyph glyph-name="Gcommaaccent" unicode="&#x122;" horiz-adv-x="681" 
d="M504 372q12 2 25 3t26 1t26 -1t24 -3v-351q-21 -9 -46 -15.5t-52 -10t-54 -5.5t-51 -2q-80 0 -144 25t-108 72.5t-67.5 115.5t-23.5 154t24 155.5t68.5 118.5t106 75.5t136.5 26.5q57 0 99 -7.5t76 -20.5q-2 -23 -8.5 -42.5t-15.5 -41.5q-28 9 -60.5 16t-81.5 7
q-53 0 -96.5 -19t-74 -55.5t-47.5 -90t-17 -122.5q0 -71 17.5 -122.5t49.5 -86t75.5 -51t96.5 -16.5q32 0 56 3.5t41 8.5v281zM403 -238q-23 -5 -43 -5q-11 0 -21.5 1.5t-22.5 3.5l45 173q11 2 24 3t25 1h10q11 0 21.5 -1t21.5 -3z" />
    <glyph glyph-name="gcommaaccent" unicode="&#x123;" horiz-adv-x="549" 
d="M355 66q89 -2 129 -38t40 -99q0 -41 -21 -73.5t-58 -56t-87.5 -36t-109.5 -12.5q-103 0 -157 32t-54 101q0 41 22 73.5t57 51.5q-20 13 -33.5 32.5t-13.5 48.5q0 37 16.5 64t44.5 48q-33 23 -53 59.5t-20 82.5q0 38 14 71t40.5 57.5t65.5 38.5t89 14q45 0 81.5 -13
t62.5 -33q20 16 54 26.5t75 10.5q4 -19 4 -42q0 -11 -1 -23t-3 -24h-90q11 -17 17 -37t6 -46q0 -41 -15 -74t-42.5 -56.5t-65.5 -36t-83 -12.5q-41 0 -74 9q-14 -8 -27.5 -24.5t-13.5 -35.5q0 -18 13 -31.5t58 -14.5zM220 -13q-45 1 -67.5 -24t-22.5 -60q0 -22 9 -36
t25.5 -22.5t39 -12t49.5 -3.5q80 0 125 26.5t45 66.5q0 30 -19 46t-70 17zM266 237q54 0 80 30t26 77q0 48 -26 78.5t-80 30.5t-79.5 -30.5t-25.5 -78.5q0 -47 25.5 -77t79.5 -30zM316 579q-13 -3 -25 -4t-24 -1q-14 0 -27.5 1t-28.5 4l83 143q12 2 23.5 3t23.5 1
q26 0 49 -4z" />
    <glyph glyph-name="Hcircumflex" unicode="&#x124;" horiz-adv-x="686" 
d="M88 719q12 2 25 3t26 1t26 -1t25 -3v-296h306v296q11 2 24 3t26 1t26.5 -1t25.5 -3v-719q-11 -2 -24 -3t-27 -1q-13 0 -26.5 1t-24.5 3v333h-306v-333q-12 -2 -24.5 -3t-26.5 -1q-13 0 -26.5 1t-24.5 3v719zM516 779q-9 -2 -20 -3t-21 -1h-22q-11 0 -24.5 1t-21.5 3
l-65 61l-65 -61q-9 -2 -23 -3t-24 -1h-23q-10 0 -20.5 1t-20.5 3l118 108q11 2 26 3t32 1t31.5 -1t27.5 -3z" />
    <glyph glyph-name="hcircumflex" unicode="&#x125;" horiz-adv-x="578" 
d="M79 733q11 2 24.5 3t24.5 1t25 -1t25 -3v-298q9 14 22.5 30t33 29.5t45 22t56.5 8.5q88 0 130.5 -50.5t42.5 -149.5v-325q-11 -2 -24.5 -3t-24.5 -1t-24.5 1t-24.5 3v298q0 71 -23.5 104.5t-71.5 33.5q-27 0 -52 -9.5t-44 -30t-30 -53.5t-11 -80v-263q-11 -2 -25 -3
t-25 -1q-10 0 -24 1t-25 3v733zM412 784q-9 -2 -20.5 -3t-24.5 -1t-28.5 1t-28.5 3l-65 80l-65 -80q-11 -2 -25.5 -3t-27.5 -1q-29 0 -49 4l109 127q13 2 29.5 3t31.5 1q11 0 26.5 -1t29.5 -4z" />
    <glyph glyph-name="Hbar" unicode="&#x126;" horiz-adv-x="720" 
d="M105 533h-81q-2 8 -2.5 18t-0.5 19t0.5 19.5t2.5 18.5h81v111q12 2 25.5 3t25.5 1q13 0 26 -1t25 -3v-111h306v111q12 2 24.5 3t26.5 1q12 0 25.5 -1t25.5 -3v-111h81q2 -8 3 -18t1 -19t-1 -19.5t-3 -18.5h-81v-533q-11 -2 -24 -3t-27 -1q-13 0 -26 1t-25 3v333h-306
v-333q-12 -2 -24.5 -3t-25.5 -1q-14 0 -27.5 1t-24.5 3v533zM513 423v110h-306v-110h306z" />
    <glyph glyph-name="hbar" unicode="&#x127;" horiz-adv-x="589" 
d="M90 583h-73q-2 6 -3 15.5t-1 17.5t1 18t3 17h73v82q11 2 24.5 3t24.5 1q10 0 24 -1t25 -3v-82h146q2 -7 3 -16.5t1 -17.5t-1 -18t-3 -16h-146v-148q9 14 23 30t33.5 29.5t45 22t56.5 8.5q88 0 130.5 -50.5t42.5 -149.5v-325q-11 -2 -24.5 -3t-24.5 -1t-25 1t-25 3v298
q0 71 -23 104.5t-71 33.5q-28 0 -53 -9.5t-44 -30t-30 -53.5t-11 -80v-263q-11 -2 -24.5 -3t-24.5 -1q-10 0 -24 1t-25 3v583z" />
    <glyph glyph-name="Itilde" unicode="&#x128;" horiz-adv-x="278" 
d="M88 719q12 2 25 3t26 1t26 -1t25 -3v-719q-12 -2 -24.5 -3t-26.5 -1q-13 0 -26.5 1t-24.5 3v719zM-42 859q16 18 42 34.5t59 16.5q21 0 42 -8t41 -17t39.5 -17t39.5 -8q19 0 33.5 7.5t34.5 26.5q23 -28 33 -59q-17 -17 -42.5 -32.5t-57.5 -15.5q-22 0 -43 7.5t-41 17
t-39.5 17t-38.5 7.5q-21 0 -35.5 -8.5t-33.5 -25.5q-11 14 -20 27.5t-13 29.5z" />
    <glyph glyph-name="itilde" unicode="&#x129;" horiz-adv-x="288" 
d="M-29 668q15 20 39 34.5t57 14.5q21 0 40 -7t36.5 -15t35.5 -15t38 -7q17 0 31.5 6t35.5 25q22 -27 32 -61q-16 -19 -40.5 -33t-56.5 -14q-21 0 -40 7t-37 15t-35.5 15t-36.5 7q-20 0 -34 -7t-34 -24q-11 14 -19 28.5t-12 30.5zM110 435h-65q-2 8 -3 18.5t-1 20.5t1 20.5
t3 18.5h162v-513q-11 -2 -24.5 -3t-24.5 -1q-10 0 -23.5 1t-24.5 3v435z" />
    <glyph glyph-name="Imacron" unicode="&#x12a;" horiz-adv-x="278" 
d="M88 719q12 2 25 3t26 1t26 -1t25 -3v-719q-12 -2 -24.5 -3t-26.5 -1q-13 0 -26.5 1t-24.5 3v719zM300 869q2 -8 2.5 -18.5t0.5 -19.5t-0.5 -19t-2.5 -18h-319q-2 8 -3 18t-1 19t1 19.5t3 18.5h319z" />
    <glyph glyph-name="imacron" unicode="&#x12b;" horiz-adv-x="288" 
d="M271 694q2 -8 3 -18t1 -19t-1 -19t-3 -18h-270q-2 8 -3 18t-1 19q0 8 1 18.5t3 18.5h270zM110 435h-65q-2 8 -3 18.5t-1 20.5t1 20.5t3 18.5h162v-513q-11 -2 -24.5 -3t-24.5 -1q-10 0 -23.5 1t-24.5 3v435z" />
    <glyph glyph-name="Ibreve" unicode="&#x12c;" horiz-adv-x="278" 
d="M88 719q12 2 25 3t26 1t26 -1t25 -3v-719q-12 -2 -24.5 -3t-26.5 -1q-13 0 -26.5 1t-24.5 3v719zM140 773q-23 0 -50.5 4t-52 17t-42.5 36t-22 61q11 2 21.5 3.5t21.5 1.5q12 0 23 -1.5t22 -3.5q3 -22 20 -38t59 -16t59 16t20 38q25 5 46 5q11 0 21 -1.5t22 -3.5
q-4 -38 -22.5 -61t-43 -36t-52 -17t-50.5 -4z" />
    <glyph glyph-name="ibreve" unicode="&#x12d;" horiz-adv-x="288" 
d="M142 586q-23 0 -49.5 5.5t-50.5 20.5t-42 41t-23 67q11 3 23 4t23 1t21.5 -1.5t21.5 -3.5q1 -12 5.5 -23.5t13.5 -21t22.5 -15.5t34.5 -6t34.5 6t22.5 15.5t13 21t6 23.5q12 2 23 3.5t22 1.5t22.5 -1t21.5 -4q-5 -41 -23 -67t-42 -41t-50.5 -20.5t-49.5 -5.5zM110 435
h-65q-2 8 -3 18.5t-1 20.5t1 20.5t3 18.5h162v-513q-11 -2 -24.5 -3t-24.5 -1q-10 0 -23.5 1t-24.5 3v435z" />
    <glyph glyph-name="Iogonek" unicode="&#x12e;" horiz-adv-x="278" 
d="M88 719q12 2 25 3t26 1t26 -1t25 -3v-719q-36 -25 -61 -57.5t-25 -66.5q0 -23 14 -36.5t42 -13.5q9 0 22 2t30 7q8 -13 11.5 -31.5t3.5 -33.5q-14 -5 -35 -8.5t-51 -3.5q-24 0 -47 5.5t-41.5 17.5t-30 31t-11.5 47q0 37 23.5 74t62.5 66l-9 1v719z" />
    <glyph glyph-name="iogonek" unicode="&#x12f;" horiz-adv-x="288" 
d="M110 435h-65q-2 8 -3 18.5t-1 20.5t1 20.5t3 18.5h162v-513q-35 -23 -58.5 -57t-23.5 -65q0 -24 13.5 -39t41.5 -15q9 0 21 1.5t28 6.5q7 -12 10.5 -30t4.5 -33q-14 -5 -36.5 -8t-46.5 -3t-47 5.5t-40.5 17.5t-28.5 31t-11 46q0 35 22.5 73.5t60.5 67.5l-7 1v435zM88 626
q-2 12 -2.5 26t-0.5 25t0.5 25t2.5 25q13 2 28 3t26 1t26 -1t27 -3q2 -11 2.5 -25t0.5 -25t-0.5 -25t-2.5 -26q-12 -2 -26.5 -3t-25.5 -1q-12 0 -27 1t-28 3z" />
    <glyph glyph-name="Idotaccent" unicode="&#x130;" horiz-adv-x="278" 
d="M88 719q12 2 25 3t26 1t26 -1t25 -3v-719q-12 -2 -24.5 -3t-26.5 -1q-13 0 -26.5 1t-24.5 3v719zM86 788q-4 23 -4 51q0 13 1 26t3 26q14 3 27.5 4t26.5 1t27 -1t28 -4q4 -23 4 -51q0 -13 -1 -26t-3 -26q-14 -3 -27.5 -4t-26.5 -1t-27 1t-28 4z" />
    <glyph glyph-name="dotlessi" unicode="&#x131;" horiz-adv-x="288" 
d="M110 435h-65q-2 8 -3 18.5t-1 20.5t1 20.5t3 18.5h162v-513q-11 -2 -24.5 -3t-24.5 -1q-10 0 -23.5 1t-24.5 3v435z" />
    <glyph glyph-name="IJ" unicode="&#x132;" horiz-adv-x="670" 
d="M88 719q12 2 25 3t26 1t26 -1t25 -3v-719q-12 -2 -24.5 -3t-26.5 -1q-13 0 -26.5 1t-24.5 3v719zM484 630h-126q-2 10 -3 22t-1 23t1 22.5t3 21.5h228v-519q0 -60 -13 -101t-38 -65.5t-61 -35t-81 -10.5q-24 0 -48 3.5t-44 8.5q0 20 4 42t12 45q12 -3 27.5 -6.5
t32.5 -3.5q18 0 36.5 3t34.5 13t26 30t10 54v453z" />
    <glyph glyph-name="ij" unicode="&#x133;" horiz-adv-x="578" 
d="M110 435h-65q-2 8 -3 18.5t-1 20.5t1 20.5t3 18.5h162v-513q-11 -2 -24.5 -3t-24.5 -1q-10 0 -23.5 1t-24.5 3v435zM88 626q-2 12 -2.5 26t-0.5 25t0.5 25t2.5 25q13 2 28 3t26 1t26 -1t27 -3q2 -11 2.5 -25t0.5 -25t-0.5 -25t-2.5 -26q-12 -2 -26.5 -3t-25.5 -1
q-12 0 -27 1t-28 3zM400 435h-65q-2 8 -3 18.5t-1 20.5t1 20.5t3 18.5h162v-542q0 -45 -12 -75t-33.5 -48.5t-50.5 -26.5t-63 -8q-54 0 -91 13q1 19 5 39t11 36q24 -8 56 -8q13 0 27 2t26 10.5t20 25.5t8 47v457zM376 627q-2 14 -3 26.5t-1 23.5t1 23.5t3 25.5q13 2 28 3.5
t26 1.5t25.5 -1.5t26.5 -3.5q2 -13 3 -25.5t1 -23.5t-1 -23.5t-3 -26.5q-12 -2 -26.5 -3.5t-25.5 -1.5t-26 1.5t-28 3.5z" />
    <glyph glyph-name="Jcircumflex" unicode="&#x134;" horiz-adv-x="396" 
d="M211 630h-126q-2 10 -3 22t-1 23t1 22.5t3 21.5h228v-519q0 -60 -13 -101t-38 -65.5t-61 -35t-81 -10.5q-24 0 -48 3.5t-44 8.5q0 20 4 42t12 45q12 -3 27.5 -6.5t32.5 -3.5q18 0 36.5 3t34.5 13t26 30t10 54v453zM384 779q-9 -2 -20 -3t-21 -1h-22q-11 0 -24.5 1
t-21.5 3l-65 61l-65 -61q-9 -2 -23 -3t-24 -1h-23q-10 0 -20.5 1t-20.5 3l118 108q11 2 26 3t32 1t31.5 -1t27.5 -3z" />
    <glyph glyph-name="jcircumflex" unicode="&#x135;" horiz-adv-x="290" 
d="M113 434h-66q-2 8 -3 18.5t-1 20.5t1 20.5t3 19.5h163v-542q0 -44 -12 -74t-33.5 -48.5t-50.5 -26.5t-63 -8q-29 0 -51 3.5t-39 8.5q0 18 4.5 39t11.5 36q11 -4 24 -6t30 -2q13 0 27.5 2.5t26.5 11t20 25.5t8 46v456zM305 594q-9 -2 -20.5 -3t-24.5 -1t-28.5 1t-28.5 3
l-65 80l-65 -80q-11 -2 -25.5 -3t-27.5 -1q-29 0 -49 4l109 127q13 2 29.5 3t31.5 1q11 0 26.5 -1t29.5 -4z" />
    <glyph glyph-name="Kcommaaccent" unicode="&#x136;" horiz-adv-x="604" 
d="M223 365l231 354q14 2 27.5 3t24.5 1q13 0 28 -1t31 -3l-228 -345l257 -374q-16 -2 -31.5 -3t-29.5 -1q-12 0 -26 1t-29 3zM91 719q12 2 25 3t26 1t26 -1t25 -3v-719q-12 -2 -25 -3t-26 -1q-14 0 -27 1t-24 3v719zM331 -238q-23 -5 -43 -5q-11 0 -21.5 1.5t-22.5 3.5
l45 173q11 2 24 3t25 1h10q11 0 21.5 -1t21.5 -3z" />
    <glyph glyph-name="kcommaaccent" unicode="&#x137;" horiz-adv-x="516" 
d="M78 733q11 2 24.5 3t24.5 1t25 -1t25 -3v-733q-11 -2 -25 -3t-25 -1t-24.5 1t-24.5 3v733zM204 266l163 247q13 2 26 3t27 1q15 0 28.5 -1t27.5 -3l-163 -240l191 -273q-14 -2 -27 -3t-27 -1t-28 1t-28 3zM279 -238q-11 -2 -20.5 -3.5t-20.5 -1.5t-22 1.5t-22 3.5l44 173
q9 1 19 2.5t21 1.5h20q10 0 19 -1t20 -3z" />
    <glyph glyph-name="kgreenlandic" unicode="&#x138;" horiz-adv-x="524" 
d="M76 517q11 2 24.5 3t24.5 1t25 -1t25 -3v-517q-11 -2 -25 -3t-25 -1t-24.5 1t-24.5 3v517zM203 265l177 248q14 2 27 3t27 1t29 -1t29 -3l-177 -242l205 -271q-14 -2 -28 -3t-28 -1t-28 1t-29 3z" />
    <glyph glyph-name="Lacute" unicode="&#x139;" horiz-adv-x="495" 
d="M88 719q11 2 23.5 3t26.5 1q13 0 26 -1t25 -3v-629h282q2 -11 2.5 -23t0.5 -22q0 -24 -3 -45h-383v719zM185 779q-13 -2 -27 -3t-28 -1t-26 1t-26 3l106 108q16 2 34 3.5t36 1.5q19 0 36 -1.5t31 -3.5z" />
    <glyph glyph-name="lacute" unicode="&#x13a;" horiz-adv-x="298" 
d="M78 733q11 2 24.5 3t24.5 1t24.5 -1t24.5 -3v-578q0 -28 5 -44t13.5 -24.5t20 -11t24.5 -2.5q9 0 20.5 1t19.5 3q9 -35 9 -76q-14 -5 -34 -6.5t-37 -1.5q-29 0 -54 7t-44 23t-30 43t-11 67v600zM166 779q-13 -2 -27 -3t-28 -1t-26 1t-26 3l106 108q16 2 34 3.5t36 1.5
q19 0 36 -1.5t31 -3.5z" />
    <glyph glyph-name="Lcommaaccent" unicode="&#x13b;" horiz-adv-x="495" 
d="M88 719q11 2 23.5 3t26.5 1q13 0 26 -1t25 -3v-629h282q2 -11 2.5 -23t0.5 -22q0 -24 -3 -45h-383v719zM283 -238q-23 -5 -43 -5q-11 0 -21.5 1.5t-22.5 3.5l45 173q11 2 24 3t25 1h10q11 0 21.5 -1t21.5 -3z" />
    <glyph glyph-name="lcommaaccent" unicode="&#x13c;" horiz-adv-x="298" 
d="M78 733q11 2 24.5 3t24.5 1t24.5 -1t24.5 -3v-578q0 -28 5 -44t13.5 -24.5t20 -11t24.5 -2.5q9 0 20.5 1t19.5 3q9 -35 9 -76q-14 -5 -34 -6.5t-37 -1.5q-29 0 -54 7t-44 23t-30 43t-11 67v600zM195 -238q-11 -2 -20.5 -3.5t-20.5 -1.5t-22 1.5t-22 3.5l44 173
q9 1 19 2.5t21 1.5h20q10 0 19 -1t20 -3z" />
    <glyph glyph-name="Lcaron" unicode="&#x13d;" horiz-adv-x="486" 
d="M88 719q11 2 23.5 3t26.5 1q13 0 26 -1t25 -3v-629h282q2 -11 2.5 -23t0.5 -22q0 -24 -3 -45h-383v719zM279 720q16 4 46 4q12 0 24.5 -1t23.5 -3l-14 -203q-8 -2 -18 -3t-20 -1t-20.5 1t-21.5 3v203z" />
    <glyph glyph-name="lcaron" unicode="&#x13e;" horiz-adv-x="353" 
d="M78 733q11 2 24.5 3t24.5 1t24.5 -1t24.5 -3v-578q0 -28 5 -44t13.5 -24.5t20 -11t24.5 -2.5q9 0 20.5 1t19.5 3q9 -35 9 -76q-14 -5 -34 -6.5t-37 -1.5q-29 0 -54 7t-44 23t-30 43t-11 67v600zM267 733q16 4 46 4q12 0 24.5 -1t23.5 -3l-14 -203q-8 -2 -18 -3t-20 -1
t-20.5 1t-21.5 3v203z" />
    <glyph glyph-name="Ldot" unicode="&#x13f;" horiz-adv-x="495" 
d="M88 719q11 2 23.5 3t26.5 1q13 0 26 -1t25 -3v-629h282q2 -11 2.5 -23t0.5 -22q0 -24 -3 -45h-383v719zM331 343q-2 14 -3 27t-1 27t1 27.5t3 27.5q14 2 27 3t27 1t27.5 -1t27.5 -3q2 -14 3 -27t1 -27t-1 -27.5t-3 -27.5q-14 -2 -27 -3t-27 -1t-27.5 1t-27.5 3z" />
    <glyph glyph-name="ldot" unicode="&#x140;" horiz-adv-x="370" 
d="M78 733q11 2 24.5 3t24.5 1t24.5 -1t24.5 -3v-578q0 -28 5 -44t13.5 -24.5t20 -11t24.5 -2.5q9 0 20.5 1t19.5 3q9 -35 9 -76q-14 -5 -34 -6.5t-37 -1.5q-29 0 -54 7t-44 23t-30 43t-11 67v600zM259 333q-2 14 -3 27t-1 27t1 27.5t3 27.5q14 2 27 3t27 1t27.5 -1t27.5 -3
q2 -14 3 -27t1 -27t-1 -27.5t-3 -27.5q-14 -2 -27 -3t-27 -1t-27.5 1t-27.5 3z" />
    <glyph glyph-name="Lslash" unicode="&#x141;" horiz-adv-x="495" 
d="M87 262q-16 -11 -32 -22.5t-32 -22.5q-3 14 -4.5 24t-1.5 22q0 10 1.5 22t4.5 22l64 44v368q22 3 51 3q27 0 50 -3v-297l131 90q5 -23 5 -45q0 -12 -1.5 -23t-3.5 -22l-131 -90v-242h282q2 -11 3 -23t1 -22q0 -11 -1 -22.5t-3 -22.5h-383v262z" />
    <glyph glyph-name="lslash" unicode="&#x142;" horiz-adv-x="298" 
d="M20 362q26 20 58 40v331q11 2 24.5 3t24.5 1t24.5 -1t24.5 -3v-262l73 51q3 -11 4 -22t1 -23t-1.5 -22t-3.5 -21l-73 -51v-185q0 -44 3.5 -68.5t11 -37.5t19.5 -16t29 -3q9 0 20.5 1t19.5 3q5 -20 7 -41t2 -35q-14 -5 -34 -6.5t-37 -1.5q-33 0 -59 8t-44 28t-27 54.5
t-9 87.5v143q-32 -20 -58 -40q-3 14 -4.5 24t-1.5 21q0 10 1.5 21.5t4.5 21.5z" />
    <glyph glyph-name="Nacute" unicode="&#x143;" horiz-adv-x="680" 
d="M88 719q11 2 23.5 3t23.5 1t23.5 -1t23.5 -3l313 -540v540q12 2 25 3t26 1q11 0 23 -1t23 -3v-719q-11 -2 -23.5 -3t-23.5 -1t-23.5 1t-23.5 3l-314 537v-537q-11 -2 -23.5 -3t-24.5 -1q-13 0 -25.5 1t-22.5 3v719zM384 779q-13 -2 -27 -3t-28 -1t-26 1t-26 3l106 108
q16 2 34 3.5t36 1.5q19 0 36 -1.5t31 -3.5z" />
    <glyph glyph-name="nacute" unicode="&#x144;" horiz-adv-x="578" 
d="M80 513q11 2 21.5 3t21.5 1t20.5 -1t20.5 -3q3 -15 6 -40.5t3 -42.5q10 17 25.5 34t35.5 30.5t46 22t57 8.5q88 0 130 -50.5t42 -149.5v-325q-11 -2 -25 -3t-25 -1t-24.5 1t-24.5 3v298q0 71 -22 104.5t-70 33.5q-28 0 -53 -10t-44 -31t-30.5 -54.5t-11.5 -80.5v-260
q-11 -2 -24.5 -3t-24.5 -1t-25 1t-25 3v513zM320 594q-11 -2 -24 -3t-29 -1q-11 0 -22.5 1t-23.5 3l115 127q15 2 31 3t33 1q18 0 33 -1t29 -3z" />
    <glyph glyph-name="Ncommaaccent" unicode="&#x145;" horiz-adv-x="680" 
d="M88 719q11 2 23.5 3t23.5 1t23.5 -1t23.5 -3l313 -540v540q12 2 25 3t26 1q11 0 23 -1t23 -3v-719q-11 -2 -23.5 -3t-23.5 -1t-23.5 1t-23.5 3l-314 537v-537q-11 -2 -23.5 -3t-24.5 -1q-13 0 -25.5 1t-22.5 3v719zM354 -238q-23 -5 -43 -5q-11 0 -21.5 1.5t-22.5 3.5
l45 173q11 2 24 3t25 1h10q11 0 21.5 -1t21.5 -3z" />
    <glyph glyph-name="ncommaaccent" unicode="&#x146;" horiz-adv-x="578" 
d="M80 513q11 2 21.5 3t21.5 1t20.5 -1t20.5 -3q3 -15 6 -40.5t3 -42.5q10 17 25.5 34t35.5 30.5t46 22t57 8.5q88 0 130 -50.5t42 -149.5v-325q-11 -2 -25 -3t-25 -1t-24.5 1t-24.5 3v298q0 71 -22 104.5t-70 33.5q-28 0 -53 -10t-44 -31t-30.5 -54.5t-11.5 -80.5v-260
q-11 -2 -24.5 -3t-24.5 -1t-25 1t-25 3v513zM296 -238q-11 -2 -20.5 -3.5t-20.5 -1.5t-22 1.5t-22 3.5l44 173q9 1 19 2.5t21 1.5h20q10 0 19 -1t20 -3z" />
    <glyph glyph-name="Ncaron" unicode="&#x147;" horiz-adv-x="680" 
d="M88 719q11 2 23.5 3t23.5 1t23.5 -1t23.5 -3l313 -540v540q12 2 25 3t26 1q11 0 23 -1t23 -3v-719q-11 -2 -23.5 -3t-23.5 -1t-23.5 1t-23.5 3l-314 537v-537q-11 -2 -23.5 -3t-24.5 -1q-13 0 -25.5 1t-22.5 3v719zM168 887q9 1 20 2.5t21 1.5h22q11 0 24.5 -1.5
t21.5 -2.5q17 -16 33 -31t32 -31l65 62q9 1 23 2.5t24 1.5h23q10 0 20.5 -1.5t20.5 -2.5l-118 -108q-11 -2 -26 -3t-32 -1t-31.5 1t-27.5 3z" />
    <glyph glyph-name="ncaron" unicode="&#x148;" horiz-adv-x="578" 
d="M80 513q11 2 21.5 3t21.5 1t20.5 -1t20.5 -3q3 -15 6 -40.5t3 -42.5q10 17 25.5 34t35.5 30.5t46 22t57 8.5q88 0 130 -50.5t42 -149.5v-325q-11 -2 -25 -3t-25 -1t-24.5 1t-24.5 3v298q0 71 -22 104.5t-70 33.5q-28 0 -53 -10t-44 -31t-30.5 -54.5t-11.5 -80.5v-260
q-11 -2 -24.5 -3t-24.5 -1t-25 1t-25 3v513zM130 720q10 2 21 3.5t25 1.5q12 0 28 -1.5t28 -3.5l65 -80l65 80q11 2 26 3.5t28 1.5q25 0 48 -5l-109 -127q-13 -2 -29.5 -2.5t-30.5 -0.5q-11 0 -27 1t-30 3z" />
    <glyph glyph-name="napostrophe" unicode="&#x149;" horiz-adv-x="584" 
d="M85 513q11 2 21.5 3t21.5 1t20.5 -1t20.5 -3q3 -15 6 -40.5t3 -42.5q10 17 25.5 34t35.5 30.5t46 22t57 8.5q88 0 130 -50.5t42 -149.5v-325q-11 -2 -25 -3t-25 -1t-24.5 1t-24.5 3v298q0 71 -22 104.5t-70 33.5q-28 0 -53 -10t-44 -31t-30.5 -54.5t-11.5 -80.5v-260
q-11 -2 -24.5 -3t-24.5 -1t-25 1t-25 3v513zM20 733q7 2 19.5 3t26.5 1t28.5 -1t22.5 -3l-55 -163q-12 -2 -21.5 -3t-20.5 -1q-22 0 -41 4z" />
    <glyph glyph-name="Eng" unicode="&#x14a;" horiz-adv-x="680" 
d="M88 719q11 2 23.5 3t23.5 1t23.5 -1t23.5 -3l313 -540v540q12 2 25 3t26 1q11 0 23 -1t23 -3v-673q0 -22 -1 -41.5t-3 -39.5q-5 -43 -22.5 -71t-44.5 -44t-60 -22.5t-67 -6.5q-19 0 -41.5 2.5t-45.5 8.5q0 20 3 40.5t13 43.5q12 -4 28 -6.5t33 -2.5q16 0 36 2.5
t37.5 12.5t29 29.5t11.5 53.5l-314 532v-537q-11 -2 -23.5 -3t-24.5 -1q-13 0 -25.5 1t-22.5 3v719z" />
    <glyph glyph-name="eng" unicode="&#x14b;" horiz-adv-x="578" 
d="M80 513q11 2 21.5 3t21.5 1t20.5 -1t20.5 -3q3 -15 6 -40.5t3 -42.5q10 17 25.5 34t35.5 30.5t46 22t57 8.5q88 0 130 -50.5t42 -149.5v-354q0 -45 -12 -75t-33.5 -48.5t-51 -26.5t-63.5 -8q-54 0 -91 13q1 19 5 39t11 36q24 -8 56 -8q12 0 26.5 2t26.5 10t20 24t8 43
v326q0 71 -22.5 104.5t-70.5 33.5q-28 0 -53 -10t-44 -31t-30.5 -54.5t-11.5 -80.5v-260q-11 -2 -24.5 -3t-24.5 -1t-25 1t-25 3v513z" />
    <glyph glyph-name="Omacron" unicode="&#x14c;" horiz-adv-x="724" 
d="M363 -12q-78 0 -135 27.5t-94.5 77t-56 117.5t-18.5 149t18.5 149t56 117.5t94.5 77.5t135 28t135 -28t94.5 -77.5t55.5 -117.5t18 -149t-18 -149t-55.5 -117.5t-94.5 -77t-135 -27.5zM363 76q50 0 86.5 19.5t60.5 56.5t36 89t12 118q0 65 -12 117.5t-36 89t-60.5 56
t-86.5 19.5t-86.5 -19.5t-60.5 -56t-36 -89t-12 -117.5q0 -66 12 -118t36 -89t60.5 -56.5t86.5 -19.5zM521 869q2 -8 2.5 -18.5t0.5 -19.5t-0.5 -19t-2.5 -18h-319q-2 8 -3 18t-1 19t1 19.5t3 18.5h319z" />
    <glyph glyph-name="omacron" unicode="&#x14d;" horiz-adv-x="577" 
d="M288 -12q-60 0 -105 20.5t-75 56.5t-44.5 85t-14.5 106t14.5 106t44.5 85t75 57t105 21t105 -21t75 -57t44.5 -85t14.5 -106t-14.5 -106t-44.5 -85t-75 -56.5t-105 -20.5zM288 67q69 0 102 50t33 139t-33 138.5t-102 49.5t-101.5 -49.5t-32.5 -138.5t32.5 -139t101.5 -50
zM422 694q2 -8 3 -18t1 -19t-1 -19t-3 -18h-270q-2 8 -3 18t-1 19q0 8 1 18.5t3 18.5h270z" />
    <glyph glyph-name="Obreve" unicode="&#x14e;" horiz-adv-x="724" 
d="M363 -12q-78 0 -135 27.5t-94.5 77t-56 117.5t-18.5 149t18.5 149t56 117.5t94.5 77.5t135 28t135 -28t94.5 -77.5t55.5 -117.5t18 -149t-18 -149t-55.5 -117.5t-94.5 -77t-135 -27.5zM363 76q50 0 86.5 19.5t60.5 56.5t36 89t12 118q0 65 -12 117.5t-36 89t-60.5 56
t-86.5 19.5t-86.5 -19.5t-60.5 -56t-36 -89t-12 -117.5q0 -66 12 -118t36 -89t60.5 -56.5t86.5 -19.5zM361 773q-23 0 -50.5 4t-52 17t-42.5 36t-22 61q11 2 21.5 3.5t21.5 1.5q12 0 23 -1.5t22 -3.5q3 -22 20 -38t59 -16t59 16t20 38q25 5 46 5q11 0 21 -1.5t22 -3.5
q-4 -38 -22.5 -61t-43 -36t-52 -17t-50.5 -4z" />
    <glyph glyph-name="obreve" unicode="&#x14f;" horiz-adv-x="577" 
d="M288 -12q-60 0 -105 20.5t-75 56.5t-44.5 85t-14.5 106t14.5 106t44.5 85t75 57t105 21t105 -21t75 -57t44.5 -85t14.5 -106t-14.5 -106t-44.5 -85t-75 -56.5t-105 -20.5zM288 67q69 0 102 50t33 139t-33 138.5t-102 49.5t-101.5 -49.5t-32.5 -138.5t32.5 -139t101.5 -50
zM287 586q-23 0 -49.5 5.5t-50.5 20.5t-42 41t-23 67q11 3 23 4t23 1t21.5 -1.5t21.5 -3.5q1 -12 5.5 -23.5t13.5 -21t22.5 -15.5t34.5 -6t34.5 6t22.5 15.5t13 21t6 23.5q12 2 23 3.5t22 1.5t22.5 -1t21.5 -4q-5 -41 -23 -67t-42 -41t-50.5 -20.5t-49.5 -5.5z" />
    <glyph glyph-name="Ohungarumlaut" unicode="&#x150;" horiz-adv-x="724" 
d="M363 -12q-78 0 -135 27.5t-94.5 77t-56 117.5t-18.5 149t18.5 149t56 117.5t94.5 77.5t135 28t135 -28t94.5 -77.5t55.5 -117.5t18 -149t-18 -149t-55.5 -117.5t-94.5 -77t-135 -27.5zM363 76q50 0 86.5 19.5t60.5 56.5t36 89t12 118q0 65 -12 117.5t-36 89t-60.5 56
t-86.5 19.5t-86.5 -19.5t-60.5 -56t-36 -89t-12 -117.5q0 -66 12 -118t36 -89t60.5 -56.5t86.5 -19.5zM297 778q-12 -2 -26 -3t-29 -1q-11 0 -23 1t-26 3l100 110q16 3 32 3.5t30 0.5t29 -1t31 -3zM502 778q-11 -2 -25.5 -3t-28.5 -1q-11 0 -23 1t-26 3l99 110
q17 3 32.5 3.5t29.5 0.5t29.5 -1t31.5 -3z" />
    <glyph glyph-name="ohungarumlaut" unicode="&#x151;" horiz-adv-x="577" 
d="M288 -12q-60 0 -105 20.5t-75 56.5t-44.5 85t-14.5 106t14.5 106t44.5 85t75 57t105 21t105 -21t75 -57t44.5 -85t14.5 -106t-14.5 -106t-44.5 -85t-75 -56.5t-105 -20.5zM288 67q69 0 102 50t33 139t-33 138.5t-102 49.5t-101.5 -49.5t-32.5 -138.5t32.5 -139t101.5 -50
zM221 594q-11 -2 -24.5 -3t-28.5 -1q-11 0 -22.5 1t-23.5 3l113 127q15 2 30.5 3t29.5 1t29 -1t30 -3zM413 594q-11 -2 -24.5 -3t-28.5 -1q-11 0 -22.5 1t-23.5 3l114 127q14 2 29.5 3t29.5 1q15 0 29.5 -1t29.5 -3z" />
    <glyph glyph-name="OE" unicode="&#x152;" horiz-adv-x="924" 
d="M878 89q2 -10 3 -21.5t1 -22.5t-1 -23t-3 -22h-386q-27 -6 -62.5 -9t-64.5 -3q-78 0 -136 27.5t-96.5 77t-58 117.5t-19.5 149t20 149t59 117.5t97.5 77.5t136.5 28q29 0 61 -2.5t58 -9.5h383q2 -10 3 -21.5t1 -22.5t-1 -23t-3 -22h-293v-206h234q2 -10 3 -21.5t1 -22.5
t-1 -23t-3 -22h-234v-246h301zM475 629q-23 6 -48.5 9t-57.5 3q-50 0 -88 -19.5t-64 -56t-39.5 -89t-13.5 -117.5q0 -66 12.5 -118t38 -89t63 -56.5t87.5 -19.5q33 0 60 3t50 11v539z" />
    <glyph glyph-name="oe" unicode="&#x153;" horiz-adv-x="919" 
d="M524 232q2 -84 42.5 -123t121.5 -39q36 0 67.5 6.5t63.5 18.5q7 -15 12.5 -36.5t6.5 -42.5q-34 -14 -72.5 -21t-86.5 -7q-75 0 -126.5 28t-79.5 79q-29 -51 -73.5 -79t-109.5 -28q-59 0 -103.5 20.5t-74.5 56.5t-45 85t-15 106t15 106t45 85t74.5 57t103.5 21
q64 0 110 -27.5t75 -75.5q26 48 72 75.5t110 27.5q51 0 90.5 -18.5t66.5 -51t41 -75.5t14 -92q0 -14 -1 -29.5t-3 -26.5h-341zM290 67q69 0 103.5 50t34.5 139t-34.5 138.5t-103.5 49.5t-103 -49.5t-34 -138.5t34 -139t103 -50zM773 306q-1 61 -29 100t-88 39
q-58 0 -91 -36.5t-40 -102.5h248z" />
    <glyph glyph-name="Racute" unicode="&#x154;" horiz-adv-x="597" 
d="M90 720q22 2 40 4t35.5 3.5t36.5 2.5t42 1q51 0 101 -10t89 -35t63.5 -67.5t24.5 -107.5q0 -39 -13 -71t-33 -57t-45.5 -43.5t-49.5 -30.5l-12 -6l209 -303q-27 -3 -61 -3q-27 0 -54 3l-230 333v4l8 2q27 7 57 19t55.5 31.5t42.5 47t17 66.5q0 72 -42.5 107t-114.5 35
q-17 0 -31.5 -1t-32.5 -3v-641q-11 -1 -24.5 -2t-25.5 -1t-26 0.5t-26 2.5v720zM311 779q-13 -2 -27 -3t-28 -1t-26 1t-26 3l106 108q16 2 34 3.5t36 1.5q19 0 36 -1.5t31 -3.5z" />
    <glyph glyph-name="racute" unicode="&#x155;" horiz-adv-x="372" 
d="M80 513q11 2 21 3t21 1t22 -1t20 -3q3 -15 6 -39.5t3 -41.5q21 34 55.5 59t88.5 25q8 0 16.5 -0.5t14.5 -1.5q2 -9 3 -19t1 -21q0 -12 -1.5 -25t-3.5 -25q-8 2 -16.5 2h-13.5q-27 0 -51.5 -7.5t-44 -26.5t-31 -52t-11.5 -85v-255q-11 -2 -24.5 -3t-24.5 -1t-24.5 1
t-25.5 3v513zM214 594q-11 -2 -24 -3t-29 -1q-11 0 -22.5 1t-23.5 3l115 127q15 2 31 3t33 1q18 0 33 -1t29 -3z" />
    <glyph glyph-name="Rcommaaccent" unicode="&#x156;" horiz-adv-x="597" 
d="M90 720q22 2 40 4t35.5 3.5t36.5 2.5t42 1q51 0 101 -10t89 -35t63.5 -67.5t24.5 -107.5q0 -39 -13 -71t-33 -57t-45.5 -43.5t-49.5 -30.5l-12 -6l209 -303q-27 -3 -61 -3q-27 0 -54 3l-230 333v4l8 2q27 7 57 19t55.5 31.5t42.5 47t17 66.5q0 72 -42.5 107t-114.5 35
q-17 0 -31.5 -1t-32.5 -3v-641q-11 -1 -24.5 -2t-25.5 -1t-26 0.5t-26 2.5v720zM324 -238q-11 -2 -20.5 -3.5t-20.5 -1.5t-22 1.5t-22 3.5l44 173q9 1 19 2.5t21 1.5h20q10 0 19 -1t20 -3z" />
    <glyph glyph-name="rcommaaccent" unicode="&#x157;" horiz-adv-x="372" 
d="M80 513q11 2 21 3t21 1t22 -1t20 -3q3 -15 6 -39.5t3 -41.5q21 34 55.5 59t88.5 25q8 0 16.5 -0.5t14.5 -1.5q2 -9 3 -19t1 -21q0 -12 -1.5 -25t-3.5 -25q-8 2 -16.5 2h-13.5q-27 0 -51.5 -7.5t-44 -26.5t-31 -52t-11.5 -85v-255q-11 -2 -24.5 -3t-24.5 -1t-24.5 1
t-25.5 3v513zM123 -238q-11 -2 -20.5 -3.5t-20.5 -1.5t-22 1.5t-22 3.5l44 173q9 1 19 2.5t21 1.5h20q10 0 19 -1t20 -3z" />
    <glyph glyph-name="Rcaron" unicode="&#x158;" horiz-adv-x="597" 
d="M90 720q22 2 40 4t35.5 3.5t36.5 2.5t42 1q51 0 101 -10t89 -35t63.5 -67.5t24.5 -107.5q0 -39 -13 -71t-33 -57t-45.5 -43.5t-49.5 -30.5l-12 -6l209 -303q-27 -3 -61 -3q-27 0 -54 3l-230 333v4l8 2q27 7 57 19t55.5 31.5t42.5 47t17 66.5q0 72 -42.5 107t-114.5 35
q-17 0 -31.5 -1t-32.5 -3v-641q-11 -1 -24.5 -2t-25.5 -1t-26 0.5t-26 2.5v720zM108 887q9 1 20 2.5t21 1.5h22q11 0 24.5 -1.5t21.5 -2.5q17 -16 33 -31t32 -31l65 62q9 1 23 2.5t24 1.5h23q10 0 20.5 -1.5t20.5 -2.5l-118 -108q-11 -2 -26 -3t-32 -1t-31.5 1t-27.5 3z" />
    <glyph glyph-name="rcaron" unicode="&#x159;" horiz-adv-x="372" 
d="M80 513q11 2 21 3t21 1t22 -1t20 -3q3 -15 6 -39.5t3 -41.5q21 34 55.5 59t88.5 25q8 0 16.5 -0.5t14.5 -1.5q2 -9 3 -19t1 -21q0 -12 -1.5 -25t-3.5 -25q-8 2 -16.5 2h-13.5q-27 0 -51.5 -7.5t-44 -26.5t-31 -52t-11.5 -85v-255q-11 -2 -24.5 -3t-24.5 -1t-24.5 1
t-25.5 3v513zM54 720q10 2 21 3.5t25 1.5q12 0 28 -1.5t28 -3.5l65 -80l65 80q11 2 26 3.5t28 1.5q25 0 48 -5l-109 -127q-13 -2 -29.5 -2.5t-30.5 -0.5q-11 0 -27 1t-30 3z" />
    <glyph glyph-name="Sacute" unicode="&#x15a;" horiz-adv-x="545" 
d="M70 109q33 -12 69 -21t88 -9q82 0 122.5 33.5t40.5 90.5q0 28 -8.5 48t-25.5 34.5t-42.5 26.5t-59.5 26l-57 23q-29 12 -53 26.5t-41.5 35.5t-27.5 48.5t-10 65.5q0 91 62 142.5t174 51.5q48 0 91 -8t76 -20q-5 -42 -22 -83q-27 10 -62.5 18t-80.5 8q-63 0 -97 -25.5
t-34 -76.5q0 -21 8.5 -37.5t22.5 -29t33 -22.5t40 -18l56 -22q40 -16 71 -33.5t53 -41t33.5 -55.5t11.5 -75q0 -103 -71 -162.5t-199 -59.5q-31 0 -56 2t-46.5 6t-41.5 10t-41 13q2 22 9 45t15 45zM317 779q-13 -2 -27 -3t-28 -1t-26 1t-26 3l106 108q16 2 34 3.5t36 1.5
q19 0 36 -1.5t31 -3.5z" />
    <glyph glyph-name="sacute" unicode="&#x15b;" horiz-adv-x="455" 
d="M71 93q27 -11 59.5 -17.5t64.5 -6.5q23 0 44 5t36.5 15t25 24.5t9.5 32.5q0 20 -7.5 33t-20 22t-29 15.5t-35.5 12.5l-35 13q-64 24 -93 54t-29 81q0 68 48.5 108t142.5 40q39 0 76.5 -7.5t65.5 -17.5q-2 -20 -7.5 -40t-13.5 -37q-22 8 -52.5 15.5t-65.5 7.5
q-37 0 -65.5 -13t-28.5 -46q0 -17 7 -29t19 -20.5t27.5 -14.5t33.5 -12l44 -15q24 -8 45.5 -19t37 -27.5t25 -40t9.5 -56.5q0 -37 -15 -67.5t-42.5 -52t-66.5 -33.5t-86 -12q-48 0 -84 6.5t-67 17.5q2 20 8.5 40.5t14.5 40.5zM254 594q-11 -2 -24 -3t-29 -1q-11 0 -22.5 1
t-23.5 3l115 127q15 2 31 3t33 1q18 0 33 -1t29 -3z" />
    <glyph glyph-name="Scircumflex" unicode="&#x15c;" horiz-adv-x="545" 
d="M70 109q33 -12 69 -21t88 -9q82 0 122.5 33.5t40.5 90.5q0 28 -8.5 48t-25.5 34.5t-42.5 26.5t-59.5 26l-57 23q-29 12 -53 26.5t-41.5 35.5t-27.5 48.5t-10 65.5q0 91 62 142.5t174 51.5q48 0 91 -8t76 -20q-5 -42 -22 -83q-27 10 -62.5 18t-80.5 8q-63 0 -97 -25.5
t-34 -76.5q0 -21 8.5 -37.5t22.5 -29t33 -22.5t40 -18l56 -22q40 -16 71 -33.5t53 -41t33.5 -55.5t11.5 -75q0 -103 -71 -162.5t-199 -59.5q-31 0 -56 2t-46.5 6t-41.5 10t-41 13q2 22 9 45t15 45zM458 779q-9 -2 -20 -3t-21 -1h-22q-11 0 -24.5 1t-21.5 3l-65 61l-65 -61
q-9 -2 -23 -3t-24 -1h-23q-10 0 -20.5 1t-20.5 3l118 108q11 2 26 3t32 1t31.5 -1t27.5 -3z" />
    <glyph glyph-name="scircumflex" unicode="&#x15d;" horiz-adv-x="455" 
d="M71 93q27 -11 59.5 -17.5t64.5 -6.5q23 0 44 5t36.5 15t25 24.5t9.5 32.5q0 20 -7.5 33t-20 22t-29 15.5t-35.5 12.5l-35 13q-64 24 -93 54t-29 81q0 68 48.5 108t142.5 40q39 0 76.5 -7.5t65.5 -17.5q-2 -20 -7.5 -40t-13.5 -37q-22 8 -52.5 15.5t-65.5 7.5
q-37 0 -65.5 -13t-28.5 -46q0 -17 7 -29t19 -20.5t27.5 -14.5t33.5 -12l44 -15q24 -8 45.5 -19t37 -27.5t25 -40t9.5 -56.5q0 -37 -15 -67.5t-42.5 -52t-66.5 -33.5t-86 -12q-48 0 -84 6.5t-67 17.5q2 20 8.5 40.5t14.5 40.5zM407 594q-9 -2 -20.5 -3t-24.5 -1t-28.5 1
t-28.5 3l-65 80l-65 -80q-11 -2 -25.5 -3t-27.5 -1q-29 0 -49 4l109 127q13 2 29.5 3t31.5 1q11 0 26.5 -1t29.5 -4z" />
    <glyph glyph-name="Scedilla" unicode="&#x15e;" horiz-adv-x="545" 
d="M70 109q33 -12 69 -21t88 -9q82 0 122.5 33.5t40.5 90.5q0 28 -8.5 47t-25 34t-42.5 27t-60 26l-48 19q-31 12 -57 27t-44.5 36t-29 50t-10.5 68q0 91 62 142.5t174 51.5q48 0 91 -8t76 -20q-5 -42 -22 -83q-27 10 -62.5 18t-80.5 8q-63 0 -97 -25.5t-34 -76.5
q0 -22 11 -40.5t29 -33.5t42 -26t50 -18l39 -17q35 -15 64 -32t50 -39.5t32.5 -53t11.5 -74.5q0 -89 -53 -146t-150 -71l-19 -47q5 1 9.5 1h9.5q55 0 80.5 -25.5t25.5 -62.5q0 -49 -39 -74.5t-107 -25.5q-15 0 -37 2t-43 10q0 15 3 30.5t12 29.5q33 -12 63 -12q36 0 53 11.5
t17 28.5q0 19 -17 26.5t-47 7.5q-14 0 -28 -1.5t-29 -6.5l-8 9l35 94q-62 0 -104 8.5t-82 22.5q2 22 9 45t15 45z" />
    <glyph glyph-name="scedilla" unicode="&#x15f;" horiz-adv-x="456" 
d="M71 93q27 -11 59.5 -17.5t64.5 -6.5q23 0 44 5t36.5 15t25 24.5t9.5 32.5q0 20 -7.5 33t-20 22t-29 15.5t-35.5 12.5l-35 13q-64 24 -93 54t-29 81q0 68 48.5 108t142.5 40q39 0 76.5 -7.5t65.5 -17.5q-2 -20 -7.5 -40t-13.5 -37q-22 8 -52.5 15.5t-65.5 7.5
q-37 0 -65.5 -13t-28.5 -46q0 -17 7 -29t19 -20.5t27.5 -14.5t33.5 -12l44 -15q24 -8 45.5 -19t37 -27.5t25 -40t9.5 -56.5q0 -64 -43.5 -107t-117.5 -54l-18 -49q4 1 8 1h9q52 0 79 -24t27 -61q0 -50 -39.5 -75t-105.5 -25q-14 0 -35 2t-41 10q1 14 3.5 29.5t10.5 28.5
q33 -11 62 -11t49 10t20 30t-18 28t-48 8q-14 0 -28 -2t-28 -5q-2 1 -6 5l36 96q-43 1 -75.5 7t-61.5 17q2 20 8.5 40.5t14.5 40.5z" />
    <glyph glyph-name="Scaron" unicode="&#x160;" horiz-adv-x="545" 
d="M70 109q33 -12 69 -21t88 -9q82 0 122.5 33.5t40.5 90.5q0 28 -8.5 48t-25.5 34.5t-42.5 26.5t-59.5 26l-57 23q-29 12 -53 26.5t-41.5 35.5t-27.5 48.5t-10 65.5q0 91 62 142.5t174 51.5q48 0 91 -8t76 -20q-5 -42 -22 -83q-27 10 -62.5 18t-80.5 8q-63 0 -97 -25.5
t-34 -76.5q0 -21 8.5 -37.5t22.5 -29t33 -22.5t40 -18l56 -22q40 -16 71 -33.5t53 -41t33.5 -55.5t11.5 -75q0 -103 -71 -162.5t-199 -59.5q-31 0 -56 2t-46.5 6t-41.5 10t-41 13q2 22 9 45t15 45zM113 887q9 1 20 2.5t21 1.5h22q11 0 24.5 -1.5t21.5 -2.5q17 -16 33 -31
t32 -31l65 62q9 1 23 2.5t24 1.5h23q10 0 20.5 -1.5t20.5 -2.5l-118 -108q-11 -2 -26 -3t-32 -1t-31.5 1t-27.5 3z" />
    <glyph glyph-name="scaron" unicode="&#x161;" horiz-adv-x="455" 
d="M71 93q27 -11 59.5 -17.5t64.5 -6.5q23 0 44 5t36.5 15t25 24.5t9.5 32.5q0 20 -7.5 33t-20 22t-29 15.5t-35.5 12.5l-35 13q-64 24 -93 54t-29 81q0 68 48.5 108t142.5 40q39 0 76.5 -7.5t65.5 -17.5q-2 -20 -7.5 -40t-13.5 -37q-22 8 -52.5 15.5t-65.5 7.5
q-37 0 -65.5 -13t-28.5 -46q0 -17 7 -29t19 -20.5t27.5 -14.5t33.5 -12l44 -15q24 -8 45.5 -19t37 -27.5t25 -40t9.5 -56.5q0 -37 -15 -67.5t-42.5 -52t-66.5 -33.5t-86 -12q-48 0 -84 6.5t-67 17.5q2 20 8.5 40.5t14.5 40.5zM74 720q10 2 21 3.5t25 1.5q12 0 28 -1.5
t28 -3.5l65 -80l65 80q11 2 26 3.5t28 1.5q25 0 48 -5l-109 -127q-13 -2 -29.5 -2.5t-30.5 -0.5q-11 0 -27 1t-30 3z" />
    <glyph glyph-name="Tcommaaccent" unicode="&#x162;" horiz-adv-x="526" 
d="M212 630h-187q-2 10 -3 22t-1 23t1 22.5t3 21.5h476q2 -10 3 -21t1 -22t-1 -23.5t-3 -22.5h-187v-630q-23 -3 -50 -3q-28 0 -52 3v630zM258 -238q-23 -5 -43 -5q-11 0 -21.5 1.5t-22.5 3.5l45 173q11 2 24 3t25 1h10q11 0 21.5 -1t21.5 -3z" />
    <glyph glyph-name="tcommaaccent" unicode="&#x163;" horiz-adv-x="358" 
d="M99 434h-78l-4 14l172 192h8v-127h130q4 -17 4 -38q0 -11 -1 -21t-3 -20h-130v-234q0 -42 3.5 -67t12 -38.5t23 -18t36.5 -4.5q17 0 32 2.5t27 5.5q7 -20 8.5 -41t1.5 -37q-20 -5 -42 -7.5t-47 -2.5q-72 0 -112.5 35t-40.5 116v291zM227 -238q-11 -2 -20.5 -3.5
t-20.5 -1.5t-22 1.5t-22 3.5l44 173q9 1 19 2.5t21 1.5h20q10 0 19 -1t20 -3z" />
    <glyph glyph-name="Tcaron" unicode="&#x164;" horiz-adv-x="526" 
d="M212 630h-187q-2 10 -3 22t-1 23t1 22.5t3 21.5h476q2 -10 3 -21t1 -22t-1 -23.5t-3 -22.5h-187v-630q-23 -3 -50 -3q-28 0 -52 3v630zM90 887q9 1 20 2.5t21 1.5h22q11 0 24.5 -1.5t21.5 -2.5q17 -16 33 -31t32 -31l65 62q9 1 23 2.5t24 1.5h23q10 0 20.5 -1.5
t20.5 -2.5l-118 -108q-11 -2 -26 -3t-32 -1t-31.5 1t-27.5 3z" />
    <glyph glyph-name="tcaron" unicode="&#x165;" horiz-adv-x="357" 
d="M284 733q11 2 22 3t26 1q12 0 24 -1t24 -3l-15 -161q-12 -2 -21 -3t-18 -1q-10 0 -20 1t-22 3v161zM99 434h-78l-4 14l172 192h8v-127h130q4 -17 4 -38q0 -11 -1 -21t-3 -20h-130v-234q0 -42 3.5 -67t12 -38.5t23 -18t36.5 -4.5q17 0 32 2.5t27 5.5q7 -20 8.5 -41
t1.5 -37q-20 -5 -42 -7.5t-47 -2.5q-72 0 -112.5 35t-40.5 116v291z" />
    <glyph glyph-name="Tbar" unicode="&#x166;" horiz-adv-x="526" 
d="M212 320h-139q-2 8 -3 18t-1 19t1 19.5t3 18.5h139v235h-187q-2 10 -3 22t-1 23t1 22.5t3 21.5h476q2 -10 3 -21t1 -22t-1 -23.5t-3 -22.5h-187v-235h138q2 -8 3 -18.5t1 -19.5t-1 -19t-3 -18h-138v-320q-23 -3 -50 -3q-28 0 -52 3v320z" />
    <glyph glyph-name="tbar" unicode="&#x167;" horiz-adv-x="358" 
d="M99 237h-79q-3 18 -3 39q0 20 3 38h79v120h-78l-4 14l172 192h8v-127h130q4 -17 4 -38q0 -11 -1 -21t-3 -20h-130v-120h130q2 -9 3 -18.5t1 -18.5q0 -23 -4 -40h-130v-37q0 -42 3.5 -67t12 -38.5t23 -18t36.5 -4.5q17 0 32 2.5t27 5.5q7 -20 8.5 -41t1.5 -37
q-20 -5 -42 -7.5t-47 -2.5q-72 0 -112.5 35t-40.5 116v94z" />
    <glyph glyph-name="Utilde" unicode="&#x168;" horiz-adv-x="674" 
d="M81 719q24 3 52 3q27 0 50 -3v-408q0 -62 8 -106t26 -71.5t47.5 -40.5t72.5 -13t72 13t47 40.5t26 71.5t8 106v408q25 3 51 3q28 0 52 -3v-426q0 -72 -13.5 -129t-44 -96t-79.5 -59.5t-119 -20.5t-119 20.5t-79.5 59.5t-44 96t-13.5 129v426zM159 859q16 18 42 34.5
t59 16.5q21 0 42 -8t41 -17t39.5 -17t39.5 -8q19 0 33.5 7.5t34.5 26.5q23 -28 33 -59q-17 -17 -42.5 -32.5t-57.5 -15.5q-22 0 -43 7.5t-41 17t-39.5 17t-38.5 7.5q-21 0 -35.5 -8.5t-33.5 -25.5q-11 14 -20 27.5t-13 29.5z" />
    <glyph glyph-name="utilde" unicode="&#x169;" horiz-adv-x="574" 
d="M74 513q11 2 25 3t24 1q11 0 25 -1t25 -3v-281q0 -48 9 -79.5t27 -49.5t44 -25t60 -7q51 0 87 11v431q11 2 24.5 3t24.5 1t24.5 -1t24.5 -3v-497q-35 -10 -83.5 -19t-100.5 -9q-49 0 -92.5 8.5t-76.5 34.5t-52 73t-19 124v285zM118 668q15 20 39 34.5t57 14.5q21 0 40 -7
t36.5 -15t35.5 -15t38 -7q17 0 31.5 6t35.5 25q22 -27 32 -61q-16 -19 -40.5 -33t-56.5 -14q-21 0 -40 7t-37 15t-35.5 15t-36.5 7q-20 0 -34 -7t-34 -24q-11 14 -19 28.5t-12 30.5z" />
    <glyph glyph-name="Umacron" unicode="&#x16a;" horiz-adv-x="674" 
d="M81 719q24 3 52 3q27 0 50 -3v-408q0 -62 8 -106t26 -71.5t47.5 -40.5t72.5 -13t72 13t47 40.5t26 71.5t8 106v408q25 3 51 3q28 0 52 -3v-426q0 -72 -13.5 -129t-44 -96t-79.5 -59.5t-119 -20.5t-119 20.5t-79.5 59.5t-44 96t-13.5 129v426zM497 869q2 -8 2.5 -18.5
t0.5 -19.5t-0.5 -19t-2.5 -18h-319q-2 8 -3 18t-1 19t1 19.5t3 18.5h319z" />
    <glyph glyph-name="umacron" unicode="&#x16b;" horiz-adv-x="574" 
d="M74 513q11 2 25 3t24 1q11 0 25 -1t25 -3v-281q0 -48 9 -79.5t27 -49.5t44 -25t60 -7q51 0 87 11v431q11 2 24.5 3t24.5 1t24.5 -1t24.5 -3v-497q-35 -10 -83.5 -19t-100.5 -9q-49 0 -92.5 8.5t-76.5 34.5t-52 73t-19 124v285zM421 694q2 -8 3 -18t1 -19t-1 -19t-3 -18
h-270q-2 8 -3 18t-1 19q0 8 1 18.5t3 18.5h270z" />
    <glyph glyph-name="Ubreve" unicode="&#x16c;" horiz-adv-x="674" 
d="M81 719q24 3 52 3q27 0 50 -3v-408q0 -62 8 -106t26 -71.5t47.5 -40.5t72.5 -13t72 13t47 40.5t26 71.5t8 106v408q25 3 51 3q28 0 52 -3v-426q0 -72 -13.5 -129t-44 -96t-79.5 -59.5t-119 -20.5t-119 20.5t-79.5 59.5t-44 96t-13.5 129v426zM340 773q-23 0 -50.5 4
t-52 17t-42.5 36t-22 61q11 2 21.5 3.5t21.5 1.5q12 0 23 -1.5t22 -3.5q3 -22 20 -38t59 -16t59 16t20 38q25 5 46 5q11 0 21 -1.5t22 -3.5q-4 -38 -22.5 -61t-43 -36t-52 -17t-50.5 -4z" />
    <glyph glyph-name="ubreve" unicode="&#x16d;" horiz-adv-x="574" 
d="M74 513q11 2 25 3t24 1q11 0 25 -1t25 -3v-281q0 -48 9 -79.5t27 -49.5t44 -25t60 -7q51 0 87 11v431q11 2 24.5 3t24.5 1t24.5 -1t24.5 -3v-497q-35 -10 -83.5 -19t-100.5 -9q-49 0 -92.5 8.5t-76.5 34.5t-52 73t-19 124v285zM287 586q-23 0 -49.5 5.5t-50.5 20.5
t-42 41t-23 67q11 3 23 4t23 1t21.5 -1.5t21.5 -3.5q1 -12 5.5 -23.5t13.5 -21t22.5 -15.5t34.5 -6t34.5 6t22.5 15.5t13 21t6 23.5q12 2 23 3.5t22 1.5t22.5 -1t21.5 -4q-5 -41 -23 -67t-42 -41t-50.5 -20.5t-49.5 -5.5z" />
    <glyph glyph-name="Uring" unicode="&#x16e;" horiz-adv-x="674" 
d="M81 719q24 3 52 3q27 0 50 -3v-408q0 -62 8 -106t26 -71.5t47.5 -40.5t72.5 -13t72 13t47 40.5t26 71.5t8 106v408q25 3 51 3q28 0 52 -3v-426q0 -72 -13.5 -129t-44 -96t-79.5 -59.5t-119 -20.5t-119 20.5t-79.5 59.5t-44 96t-13.5 129v426zM221 849q0 25 8.5 46
t24.5 36t37 23.5t47 8.5q25 0 46.5 -8.5t37.5 -23.5t24.5 -36t8.5 -46t-8.5 -46t-24.5 -36.5t-37.5 -24t-46.5 -8.5q-26 0 -47 8.5t-37 24t-24.5 36.5t-8.5 46zM338 786q26 0 40 17t14 46q0 28 -14 45t-40 17t-40 -17t-14 -45q0 -29 14 -46t40 -17z" />
    <glyph glyph-name="uring" unicode="&#x16f;" horiz-adv-x="574" 
d="M74 513q11 2 25 3t24 1q11 0 25 -1t25 -3v-281q0 -48 9 -79.5t27 -49.5t44 -25t60 -7q51 0 87 11v431q11 2 24.5 3t24.5 1t24.5 -1t24.5 -3v-497q-35 -10 -83.5 -19t-100.5 -9q-49 0 -92.5 8.5t-76.5 34.5t-52 73t-19 124v285zM183 693q0 48 30 77.5t78 29.5t78 -29.5
t30 -77.5t-30 -77.5t-78 -29.5t-78 29.5t-30 77.5zM291 637q24 0 37 15t13 41t-13 41t-37 15t-36.5 -15t-12.5 -41t12.5 -41t36.5 -15z" />
    <glyph glyph-name="Uhungarumlaut" unicode="&#x170;" horiz-adv-x="674" 
d="M81 719q24 3 52 3q27 0 50 -3v-408q0 -62 8 -106t26 -71.5t47.5 -40.5t72.5 -13t72 13t47 40.5t26 71.5t8 106v408q25 3 51 3q28 0 52 -3v-426q0 -72 -13.5 -129t-44 -96t-79.5 -59.5t-119 -20.5t-119 20.5t-79.5 59.5t-44 96t-13.5 129v426zM273 778q-12 -2 -26 -3
t-29 -1q-11 0 -23 1t-26 3l100 110q16 3 32 3.5t30 0.5t29 -1t31 -3zM478 778q-11 -2 -25.5 -3t-28.5 -1q-11 0 -23 1t-26 3l99 110q17 3 32.5 3.5t29.5 0.5t29.5 -1t31.5 -3z" />
    <glyph glyph-name="uhungarumlaut" unicode="&#x171;" horiz-adv-x="574" 
d="M74 513q11 2 25 3t24 1q11 0 25 -1t25 -3v-281q0 -48 9 -79.5t27 -49.5t44 -25t60 -7q51 0 87 11v431q11 2 24.5 3t24.5 1t24.5 -1t24.5 -3v-497q-35 -10 -83.5 -19t-100.5 -9q-49 0 -92.5 8.5t-76.5 34.5t-52 73t-19 124v285zM233 594q-11 -2 -24.5 -3t-28.5 -1
q-11 0 -22.5 1t-23.5 3l113 127q15 2 30.5 3t29.5 1t29 -1t30 -3zM425 594q-11 -2 -24.5 -3t-28.5 -1q-11 0 -22.5 1t-23.5 3l114 127q14 2 29.5 3t29.5 1q15 0 29.5 -1t29.5 -3z" />
    <glyph glyph-name="Uogonek" unicode="&#x172;" horiz-adv-x="673" 
d="M81 719q24 3 52 3q26 0 50 -3v-408q0 -62 8 -106t26 -71.5t47.5 -40.5t72.5 -13t72 13t47 40.5t26 71.5t8 106v408q24 3 51 3q12 0 26 -0.5t25 -2.5v-426q0 -123 -40.5 -199t-136.5 -97q-33 -26 -56 -57t-23 -64q0 -23 14 -36.5t42 -13.5q8 0 21.5 2t30.5 7
q8 -13 11.5 -31.5t3.5 -33.5q-15 -5 -36 -8.5t-50 -3.5q-24 0 -47 5.5t-41.5 17.5t-30 31t-11.5 47q0 34 19.5 67.5t52.5 61.5q-64 3 -108.5 25t-72.5 61t-40.5 94t-12.5 125v426z" />
    <glyph glyph-name="uogonek" unicode="&#x173;" horiz-adv-x="574" 
d="M74 513q11 2 24.5 2.5t24.5 0.5t24.5 -0.5t24.5 -2.5v-282q0 -48 9.5 -79t27.5 -49t44 -25t60 -7q26 0 47.5 2.5t38.5 7.5v432q11 2 24.5 2.5t24.5 0.5t25 -0.5t25 -2.5v-497q-9 -5 -16.5 -9t-15.5 -8q-22 -10 -38.5 -25t-27.5 -31.5t-16.5 -33t-5.5 -30.5
q0 -25 14 -39.5t42 -14.5q8 0 20.5 1.5t28.5 6.5q7 -13 10.5 -31t3.5 -32q-14 -5 -36 -8.5t-47 -3.5q-24 0 -46.5 5.5t-40.5 17.5t-29 31.5t-11 46.5q0 32 20 67.5t54 64.5q-23 -3 -47 -3q-49 0 -92.5 8.5t-76.5 34t-52 72.5t-19 124v286z" />
    <glyph glyph-name="Wcircumflex" unicode="&#x174;" horiz-adv-x="921" 
d="M27 719q11 2 27.5 3t30.5 1t28.5 -1t26.5 -3l123 -599l148 599q12 2 26.5 3t27.5 1q12 0 27 -1t26 -3l149 -605l125 605q11 2 23.5 3t24.5 1q14 0 28.5 -1t25.5 -3l-173 -719q-12 -2 -28 -3t-29 -1q-14 0 -31 1t-31 3l-142 563l-144 -563q-14 -2 -30.5 -3t-30.5 -1
q-12 0 -27.5 1t-27.5 3zM634 779q-9 -2 -20 -3t-21 -1h-22q-11 0 -24.5 1t-21.5 3l-65 61l-65 -61q-9 -2 -23 -3t-24 -1h-23q-10 0 -20.5 1t-20.5 3l118 108q11 2 26 3t32 1t31.5 -1t27.5 -3z" />
    <glyph glyph-name="wcircumflex" unicode="&#x175;" horiz-adv-x="775" 
d="M22 513q14 2 28 3t25 1q14 0 28.5 -1t25.5 -3l100 -419l113 419q11 2 24 3t27 1q16 -1 27.5 -1.5t22.5 -2.5l112 -412l100 412q11 2 22 3t24 1q11 0 24.5 -1t27.5 -3l-153 -513q-13 -2 -26.5 -3t-24.5 -1t-24 1t-26 3l-110 388l-115 -388q-14 -2 -27.5 -3t-24.5 -1
t-24.5 1t-24.5 3zM554 594q-9 -2 -20.5 -3t-24.5 -1t-28.5 1t-28.5 3l-65 80l-65 -80q-11 -2 -25.5 -3t-27.5 -1q-29 0 -49 4l109 127q13 2 29.5 3t31.5 1q11 0 26.5 -1t29.5 -4z" />
    <glyph glyph-name="Ycircumflex" unicode="&#x176;" horiz-adv-x="592" 
d="M246 263l-228 456q13 2 28 3t30 1q13 0 28.5 -1t27.5 -3l168 -357l166 357q13 2 26 3t27 1t28 -1t27 -3l-225 -456v-263q-13 -2 -26 -3t-26 -1t-26.5 1t-24.5 3v263zM473 779q-9 -2 -20 -3t-21 -1h-22q-11 0 -24.5 1t-21.5 3l-65 61l-65 -61q-9 -2 -23 -3t-24 -1h-23
q-10 0 -20.5 1t-20.5 3l118 108q11 2 26 3t32 1t31.5 -1t27.5 -3z" />
    <glyph glyph-name="ycircumflex" unicode="&#x177;" horiz-adv-x="527" 
d="M255 -1q-8 0 -16.5 -0.5t-16.5 -0.5q-10 0 -21 0.5t-18 1.5l-170 513q13 2 27 2.5t26 0.5q13 0 29 -0.5t27 -2.5l142 -477l147 477q21 3 49 3q11 0 25 -0.5t28 -2.5l-199 -617q-14 -41 -29 -69t-34 -45t-42.5 -24t-54.5 -7q-23 0 -45.5 3.5t-39.5 8.5q0 23 4 41t12 36
q9 -3 24.5 -6.5t33.5 -3.5q13 0 24.5 2.5t21.5 10t18.5 21.5t16.5 38zM430 594q-9 -2 -20.5 -3t-24.5 -1t-28.5 1t-28.5 3l-65 80l-65 -80q-11 -2 -25.5 -3t-27.5 -1q-29 0 -49 4l109 127q13 2 29.5 3t31.5 1q11 0 26.5 -1t29.5 -4z" />
    <glyph glyph-name="Ydieresis" unicode="&#x178;" horiz-adv-x="592" 
d="M246 263l-228 456q13 2 28 3t30 1q13 0 28.5 -1t27.5 -3l168 -357l166 357q13 2 26 3t27 1t28 -1t27 -3l-225 -456v-263q-13 -2 -26 -3t-26 -1t-26.5 1t-24.5 3v263zM137 789q-3 25 -3 50t3 51q14 2 27 3t25 1q13 0 27 -1t26 -3q4 -23 4 -50q0 -28 -4 -51
q-12 -2 -25.5 -3t-26.5 -1q-12 0 -25.5 1t-27.5 3zM352 789q-2 13 -3.5 25t-1.5 25q0 23 5 51q12 2 25.5 3t26.5 1q12 0 25.5 -1t27.5 -3q3 -26 3 -50q0 -26 -3 -51q-14 -2 -27 -3t-26 -1q-12 0 -26 1t-26 3z" />
    <glyph glyph-name="Zacute" unicode="&#x179;" horiz-adv-x="570" 
d="M27 9l362 621h-317q-2 9 -3 21t-1 23t1 23t3 22h467l7 -9l-363 -621h337q2 -9 3 -21.5t1 -23.5t-1 -23t-3 -21h-487zM340 779q-13 -2 -27 -3t-28 -1t-26 1t-26 3l106 108q16 2 34 3.5t36 1.5q19 0 36 -1.5t31 -3.5z" />
    <glyph glyph-name="zacute" unicode="&#x17a;" horiz-adv-x="477" 
d="M29 14l270 420h-238q-3 18 -3 40q0 21 3 39h385l5 -13l-272 -421h255q3 -20 3 -41q0 -20 -3 -38h-400zM271 594q-11 -2 -24 -3t-29 -1q-11 0 -22.5 1t-23.5 3l115 127q15 2 31 3t33 1q18 0 33 -1t29 -3z" />
    <glyph glyph-name="Zdotaccent" unicode="&#x17b;" horiz-adv-x="570" 
d="M27 9l362 621h-317q-2 9 -3 21t-1 23t1 23t3 22h467l7 -9l-363 -621h337q2 -9 3 -21.5t1 -23.5t-1 -23t-3 -21h-487zM251 788q-4 23 -4 51q0 13 1 26t3 26q14 3 27.5 4t26.5 1t27 -1t28 -4q4 -23 4 -51q0 -13 -1 -26t-3 -26q-14 -3 -27.5 -4t-26.5 -1t-27 1t-28 4z" />
    <glyph glyph-name="zdotaccent" unicode="&#x17c;" horiz-adv-x="477" 
d="M29 14l270 420h-238q-3 18 -3 40q0 21 3 39h385l5 -13l-272 -421h255q3 -20 3 -41q0 -20 -3 -38h-400zM203 607q-2 14 -3 27.5t-1 27.5q0 13 1 27t3 28q14 2 28.5 3.5t28.5 1.5t29 -1.5t29 -3.5q2 -14 3 -27.5t1 -27.5q0 -13 -1 -27t-3 -28q-14 -2 -28.5 -3t-28.5 -1
t-29 1t-29 3z" />
    <glyph glyph-name="Zcaron" unicode="&#x17d;" horiz-adv-x="570" 
d="M27 9l362 621h-317q-2 9 -3 21t-1 23t1 23t3 22h467l7 -9l-363 -621h337q2 -9 3 -21.5t1 -23.5t-1 -23t-3 -21h-487zM140 887q9 1 20 2.5t21 1.5h22q11 0 24.5 -1.5t21.5 -2.5q17 -16 33 -31t32 -31l65 62q9 1 23 2.5t24 1.5h23q10 0 20.5 -1.5t20.5 -2.5l-118 -108
q-11 -2 -26 -3t-32 -1t-31.5 1t-27.5 3z" />
    <glyph glyph-name="zcaron" unicode="&#x17e;" horiz-adv-x="477" 
d="M29 14l270 420h-238q-3 18 -3 40q0 21 3 39h385l5 -13l-272 -421h255q3 -20 3 -41q0 -20 -3 -38h-400zM94 720q10 2 21 3.5t25 1.5q12 0 28 -1.5t28 -3.5l65 -80l65 80q11 2 26 3.5t28 1.5q25 0 48 -5l-109 -127q-13 -2 -29.5 -2.5t-30.5 -0.5q-11 0 -27 1t-30 3z" />
    <glyph glyph-name="longs" unicode="&#x17f;" horiz-adv-x="342" 
d="M198 0q-11 -2 -24.5 -3t-24.5 -1t-24.5 1t-24.5 3v549q0 95 47.5 144.5t138.5 49.5q25 0 43.5 -2.5t35.5 -7.5q-2 -25 -5 -43t-10 -37q-10 2 -23.5 4.5t-31.5 2.5q-22 0 -40 -4.5t-30.5 -17t-19.5 -35t-7 -57.5v-546z" />
    <glyph glyph-name="florin" unicode="&#x192;" 
d="M255 464l13 80q14 85 56 130t127 45q23 0 43 -2.5t37 -7.5q-2 -25 -5.5 -43.5t-10.5 -37.5q-10 2 -23.5 4.5t-31.5 2.5q-23 0 -39 -4.5t-27 -17.5t-18.5 -35t-12.5 -56l-9 -58h119q3 -20 3 -41q0 -19 -3 -37h-129l-44 -308q-8 -51 -20.5 -91t-34.5 -67.5t-54.5 -42
t-79.5 -14.5h-15q-19 0 -35 3.5t-30 6.5q2 25 5.5 43t9.5 37q10 -2 23.5 -4.5t32.5 -2.5q22 0 38 4.5t27 17.5t18.5 34.5t12.5 56.5l47 327h-87q-3 18 -3 39q0 19 3 39h97z" />
    <glyph glyph-name="Scommaaccent" unicode="&#x218;" horiz-adv-x="545" 
d="M70 109q33 -12 69 -21t88 -9q82 0 122.5 33.5t40.5 90.5q0 28 -8.5 48t-25.5 34.5t-42.5 26.5t-59.5 26l-57 23q-29 12 -53 26.5t-41.5 35.5t-27.5 48.5t-10 65.5q0 91 62 142.5t174 51.5q48 0 91 -8t76 -20q-5 -42 -22 -83q-27 10 -62.5 18t-80.5 8q-63 0 -97 -25.5
t-34 -76.5q0 -21 8.5 -37.5t22.5 -29t33 -22.5t40 -18l56 -22q40 -16 71 -33.5t53 -41t33.5 -55.5t11.5 -75q0 -103 -71 -162.5t-199 -59.5q-31 0 -56 2t-46.5 6t-41.5 10t-41 13q2 22 9 45t15 45zM275 -238q-11 -2 -20.5 -3.5t-20.5 -1.5t-22 1.5t-22 3.5l44 173
q9 1 19 2.5t21 1.5h20q10 0 19 -1t20 -3z" />
    <glyph glyph-name="scommaaccent" unicode="&#x219;" horiz-adv-x="455" 
d="M71 93q27 -11 59.5 -17.5t64.5 -6.5q23 0 44 5t36.5 15t25 24.5t9.5 32.5q0 20 -7.5 33t-20 22t-29 15.5t-35.5 12.5l-35 13q-64 24 -93 54t-29 81q0 68 48.5 108t142.5 40q39 0 76.5 -7.5t65.5 -17.5q-2 -20 -7.5 -40t-13.5 -37q-22 8 -52.5 15.5t-65.5 7.5
q-37 0 -65.5 -13t-28.5 -46q0 -17 7 -29t19 -20.5t27.5 -14.5t33.5 -12l44 -15q24 -8 45.5 -19t37 -27.5t25 -40t9.5 -56.5q0 -37 -15 -67.5t-42.5 -52t-66.5 -33.5t-86 -12q-48 0 -84 6.5t-67 17.5q2 20 8.5 40.5t14.5 40.5zM235 -238q-11 -2 -20.5 -3.5t-20.5 -1.5
t-22 1.5t-22 3.5l44 173q9 1 19 2.5t21 1.5h20q10 0 19 -1t20 -3z" />
    <glyph glyph-name="uni021A" unicode="&#x21a;" horiz-adv-x="526" 
d="M212 630h-187q-2 10 -3 22t-1 23t1 22.5t3 21.5h476q2 -10 3 -21t1 -22t-1 -23.5t-3 -22.5h-187v-630q-23 -3 -50 -3q-28 0 -52 3v630zM256 -238q-23 -5 -43 -5q-11 0 -21.5 1.5t-22.5 3.5l45 173q11 2 24 3t25 1h10q11 0 21.5 -1t21.5 -3z" />
    <glyph glyph-name="uni021B" unicode="&#x21b;" horiz-adv-x="358" 
d="M99 434h-78l-4 14l172 192h8v-127h130q4 -17 4 -38q0 -11 -1 -21t-3 -20h-130v-234q0 -42 3.5 -67t12 -38.5t23 -18t36.5 -4.5q17 0 32 2.5t27 5.5q7 -20 8.5 -41t1.5 -37q-20 -5 -42 -7.5t-47 -2.5q-72 0 -112.5 35t-40.5 116v291zM225 -238q-11 -2 -20.5 -3.5
t-20.5 -1.5t-22 1.5t-22 3.5l44 173q9 1 19 2.5t21 1.5h20q10 0 19 -1t20 -3z" />
    <glyph glyph-name="dotlessj" unicode="&#x237;" horiz-adv-x="290" 
d="M113 434h-66q-2 8 -3 18.5t-1 20.5t1 20.5t3 19.5h163v-542q0 -44 -12 -74t-33.5 -48.5t-50.5 -26.5t-63 -8q-29 0 -51 3.5t-39 8.5q0 18 4.5 39t11.5 36q11 -4 24 -6t30 -2q13 0 27.5 2.5t26.5 11t20 25.5t8 46v456z" />
    <glyph glyph-name="apostrophe" unicode="&#x2bc;" horiz-adv-x="291" 
d="M114 733q7 2 19.5 3t26.5 1t28.5 -1t22.5 -3l-55 -163q-12 -2 -21.5 -3t-20.5 -1q-22 0 -41 4z" />
    <glyph glyph-name="circumflex" unicode="&#x2c6;" horiz-adv-x="498" 
d="M416 594q-9 -2 -20.5 -3t-24.5 -1t-28.5 1t-28.5 3l-65 80l-65 -80q-11 -2 -25.5 -3t-27.5 -1q-29 0 -49 4l109 127q13 2 29.5 3t31.5 1q11 0 26.5 -1t29.5 -4z" />
    <glyph glyph-name="caron" unicode="&#x2c7;" horiz-adv-x="498" 
d="M82 720q10 2 21 3.5t25 1.5q12 0 28 -1.5t28 -3.5l65 -80l65 80q11 2 26 3.5t28 1.5q25 0 48 -5l-109 -127q-13 -2 -29.5 -2.5t-30.5 -0.5q-11 0 -27 1t-30 3z" />
    <glyph glyph-name="uni02C9" unicode="&#x2c9;" horiz-adv-x="500" 
d="M385 694q2 -8 3 -18t1 -19t-1 -19t-3 -18h-270q-2 8 -3 18t-1 19q0 8 1 18.5t3 18.5h270z" />
    <glyph glyph-name="breve" unicode="&#x2d8;" horiz-adv-x="498" 
d="M249 586q-23 0 -49.5 5.5t-50.5 20.5t-42 41t-23 67q11 3 23 4t23 1t21.5 -1.5t21.5 -3.5q1 -12 5.5 -23.5t13.5 -21t22.5 -15.5t34.5 -6t34.5 6t22.5 15.5t13 21t6 23.5q12 2 23 3.5t22 1.5t22.5 -1t21.5 -4q-5 -41 -23 -67t-42 -41t-50.5 -20.5t-49.5 -5.5z" />
    <glyph glyph-name="dotaccent" unicode="&#x2d9;" horiz-adv-x="307" 
d="M96 607q-2 14 -3 27.5t-1 27.5q0 13 1 27t3 28q14 2 28.5 3.5t28.5 1.5t29 -1.5t29 -3.5q2 -14 3 -27.5t1 -27.5q0 -13 -1 -27t-3 -28q-14 -2 -28.5 -3t-28.5 -1t-29 1t-29 3z" />
    <glyph glyph-name="ring" unicode="&#x2da;" horiz-adv-x="504" 
d="M144 693q0 48 30 77.5t78 29.5t78 -29.5t30 -77.5t-30 -77.5t-78 -29.5t-78 29.5t-30 77.5zM252 637q24 0 37 15t13 41t-13 41t-37 15t-36.5 -15t-12.5 -41t12.5 -41t36.5 -15z" />
    <glyph glyph-name="ogonek" unicode="&#x2db;" horiz-adv-x="500" 
d="M318 0q-35 -23 -58.5 -57t-23.5 -65q0 -24 13.5 -39t41.5 -15q9 0 21 1.5t28 6.5q7 -12 10.5 -30t4.5 -33q-14 -5 -36.5 -8t-46.5 -3t-47 5.5t-40.5 17.5t-28.5 31t-11 46q0 35 23.5 74t61.5 68h88z" />
    <glyph glyph-name="tilde" unicode="&#x2dc;" horiz-adv-x="500" 
d="M78 668q15 20 39 34.5t57 14.5q21 0 40 -7t36.5 -15t35.5 -15t38 -7q17 0 31.5 6t35.5 25q22 -27 32 -61q-16 -19 -40.5 -33t-56.5 -14q-21 0 -40 7t-37 15t-35.5 15t-36.5 7q-20 0 -34 -7t-34 -24q-11 14 -19 28.5t-12 30.5z" />
    <glyph glyph-name="hungarumlaut" unicode="&#x2dd;" horiz-adv-x="500" 
d="M137 594q-11 -2 -24.5 -3t-28.5 -1q-11 0 -22.5 1t-23.5 3l113 127q15 2 30.5 3t29.5 1t29 -1t30 -3zM329 594q-11 -2 -24.5 -3t-28.5 -1q-11 0 -22.5 1t-23.5 3l114 127q14 2 29.5 3t29.5 1q15 0 29.5 -1t29.5 -3z" />
    <glyph glyph-name="pi" unicode="&#x3c0;" horiz-adv-x="738" 
d="M190 432h-8q-34 0 -63 -11.5t-46 -25.5q-11 12 -21 31.5t-12 35.5q51 51 153 51h488q3 -20 3 -38q0 -11 -0.5 -22t-2.5 -21h-127v-263q0 -55 16.5 -76t48.5 -21q17 0 32 2.5t27 5.5q6 -18 8 -37.5t2 -40.5q-19 -5 -41.5 -7.5t-47.5 -2.5q-81 0 -112 49t-31 143v248h-169
v-432q-11 -2 -24.5 -2.5t-24.5 -0.5t-24 0.5t-24 2.5v432z" />
    <glyph glyph-name="Wgrave" unicode="&#x1e80;" horiz-adv-x="921" 
d="M27 719q11 2 27.5 3t30.5 1t28.5 -1t26.5 -3l123 -599l148 599q12 2 26.5 3t27.5 1q12 0 27 -1t26 -3l149 -605l125 605q11 2 23.5 3t24.5 1q14 0 28.5 -1t25.5 -3l-173 -719q-12 -2 -28 -3t-29 -1q-14 0 -31 1t-31 3l-142 563l-144 -563q-14 -2 -30.5 -3t-30.5 -1
q-12 0 -27.5 1t-27.5 3zM284 887q14 2 31.5 3.5t35.5 1.5t36.5 -1.5t34.5 -3.5l105 -108q-23 -4 -51 -4q-14 0 -28 1t-27 3z" />
    <glyph glyph-name="wgrave" unicode="&#x1e81;" horiz-adv-x="775" 
d="M22 513q14 2 28 3t25 1q14 0 28.5 -1t25.5 -3l100 -419l113 419q11 2 24 3t27 1q16 -1 27.5 -1.5t22.5 -2.5l112 -412l100 412q11 2 22 3t24 1q11 0 24.5 -1t27.5 -3l-153 -513q-13 -2 -26.5 -3t-24.5 -1t-24 1t-26 3l-110 388l-115 -388q-14 -2 -27.5 -3t-24.5 -1
t-24.5 1t-24.5 3zM218 721q15 2 30 3t33 1q16 0 32.5 -1t31.5 -3l115 -127q-23 -4 -47 -4q-15 0 -28.5 1t-24.5 3z" />
    <glyph glyph-name="Wacute" unicode="&#x1e82;" horiz-adv-x="921" 
d="M27 719q11 2 27.5 3t30.5 1t28.5 -1t26.5 -3l123 -599l148 599q12 2 26.5 3t27.5 1q12 0 27 -1t26 -3l149 -605l125 605q11 2 23.5 3t24.5 1q14 0 28.5 -1t25.5 -3l-173 -719q-12 -2 -28 -3t-29 -1q-14 0 -31 1t-31 3l-142 563l-144 -563q-14 -2 -30.5 -3t-30.5 -1
q-12 0 -27.5 1t-27.5 3zM474 779q-13 -2 -27 -3t-28 -1t-26 1t-26 3l106 108q16 2 34 3.5t36 1.5q19 0 36 -1.5t31 -3.5z" />
    <glyph glyph-name="wacute" unicode="&#x1e83;" horiz-adv-x="775" 
d="M22 513q14 2 28 3t25 1q14 0 28.5 -1t25.5 -3l100 -419l113 419q11 2 24 3t27 1q16 -1 27.5 -1.5t22.5 -2.5l112 -412l100 412q11 2 22 3t24 1q11 0 24.5 -1t27.5 -3l-153 -513q-13 -2 -26.5 -3t-24.5 -1t-24 1t-26 3l-110 388l-115 -388q-14 -2 -27.5 -3t-24.5 -1
t-24.5 1t-24.5 3zM395 594q-11 -2 -24 -3t-29 -1q-11 0 -22.5 1t-23.5 3l115 127q15 2 31 3t33 1q18 0 33 -1t29 -3z" />
    <glyph glyph-name="Wdieresis" unicode="&#x1e84;" horiz-adv-x="921" 
d="M27 719q11 2 27.5 3t30.5 1t28.5 -1t26.5 -3l123 -599l148 599q12 2 26.5 3t27.5 1q12 0 27 -1t26 -3l149 -605l125 605q11 2 23.5 3t24.5 1q14 0 28.5 -1t25.5 -3l-173 -719q-12 -2 -28 -3t-29 -1q-14 0 -31 1t-31 3l-142 563l-144 -563q-14 -2 -30.5 -3t-30.5 -1
q-12 0 -27.5 1t-27.5 3zM300 789q-3 25 -3 50t3 51q14 2 27 3t25 1q13 0 27 -1t26 -3q4 -23 4 -50q0 -28 -4 -51q-12 -2 -25.5 -3t-26.5 -1q-12 0 -25.5 1t-27.5 3zM515 789q-2 13 -3.5 25t-1.5 25q0 23 5 51q12 2 25.5 3t26.5 1q12 0 25.5 -1t27.5 -3q3 -26 3 -50
q0 -26 -3 -51q-14 -2 -27 -3t-26 -1q-12 0 -26 1t-26 3z" />
    <glyph glyph-name="wdieresis" unicode="&#x1e85;" horiz-adv-x="775" 
d="M22 513q14 2 28 3t25 1q14 0 28.5 -1t25.5 -3l100 -419l113 419q11 2 24 3t27 1q16 -1 27.5 -1.5t22.5 -2.5l112 -412l100 412q11 2 22 3t24 1q11 0 24.5 -1t27.5 -3l-153 -513q-13 -2 -26.5 -3t-24.5 -1t-24 1t-26 3l-110 388l-115 -388q-14 -2 -27.5 -3t-24.5 -1
t-24.5 1t-24.5 3zM234 604q-2 13 -3 25t-1 25q0 12 1 24.5t3 25.5q12 2 25.5 3t25.5 1q11 0 24.5 -1t26.5 -3q4 -23 4 -50q0 -12 -1 -24.5t-3 -25.5q-26 -3 -51 -3q-11 0 -25 0.5t-26 2.5zM438 604q-4 23 -4 50q0 12 1 24.5t3 25.5q12 2 25.5 3t24.5 1q12 0 25.5 -1t26.5 -3
q3 -26 3 -50q0 -25 -3 -50q-26 -3 -51 -3q-11 0 -25 0.5t-26 2.5z" />
    <glyph glyph-name="Ygrave" unicode="&#x1ef2;" horiz-adv-x="592" 
d="M246 263l-228 456q13 2 28 3t30 1q13 0 28.5 -1t27.5 -3l168 -357l166 357q13 2 26 3t27 1t28 -1t27 -3l-225 -456v-263q-13 -2 -26 -3t-26 -1t-26.5 1t-24.5 3v263zM142 887q14 2 31.5 3.5t35.5 1.5t36.5 -1.5t34.5 -3.5l105 -108q-23 -4 -51 -4q-14 0 -28 1t-27 3z" />
    <glyph glyph-name="ygrave" unicode="&#x1ef3;" horiz-adv-x="527" 
d="M255 -1q-8 0 -16.5 -0.5t-16.5 -0.5q-10 0 -21 0.5t-18 1.5l-170 513q13 2 27 2.5t26 0.5q13 0 29 -0.5t27 -2.5l142 -477l147 477q21 3 49 3q11 0 25 -0.5t28 -2.5l-199 -617q-14 -41 -29 -69t-34 -45t-42.5 -24t-54.5 -7q-23 0 -45.5 3.5t-39.5 8.5q0 23 4 41t12 36
q9 -3 24.5 -6.5t33.5 -3.5q13 0 24.5 2.5t21.5 10t18.5 21.5t16.5 38zM104 721q15 2 30 3t33 1q16 0 32.5 -1t31.5 -3l115 -127q-23 -4 -47 -4q-15 0 -28.5 1t-24.5 3z" />
    <glyph glyph-name="endash" unicode="&#x2013;" horiz-adv-x="500" 
d="M500 326q2 -11 3 -22t1 -23q0 -13 -1 -24.5t-3 -21.5h-500q-2 11 -3 22.5t-1 22.5q0 12 1 23.5t3 22.5h500z" />
    <glyph glyph-name="emdash" unicode="&#x2014;" horiz-adv-x="1000" 
d="M1000 326q2 -11 3 -22t1 -23q0 -13 -1 -24.5t-3 -21.5h-1000q-2 11 -3 22.5t-1 22.5q0 12 1 23.5t3 22.5h1000z" />
    <glyph glyph-name="quoteleft" unicode="&#x2018;" horiz-adv-x="258" 
d="M50 718q12 2 25.5 3t24.5 1t23.5 -1t24.5 -3l59 -223q-11 -2 -23 -3t-24 -1q-25 0 -48 4z" />
    <glyph glyph-name="quoteright" unicode="&#x2019;" horiz-adv-x="258" 
d="M109 719q12 2 24.5 3t23.5 1q12 0 25.5 -1t25.5 -3l-62 -223q-13 -3 -25.5 -3.5t-23.5 -0.5q-12 0 -23.5 0.5t-23.5 3.5z" />
    <glyph glyph-name="quotesinglbase" unicode="&#x201a;" horiz-adv-x="258" 
d="M109 110q12 2 24.5 3.5t23.5 1.5q12 0 25.5 -1.5t25.5 -3.5l-62 -223q-13 -2 -25.5 -2.5t-23.5 -0.5q-12 0 -23.5 0.5t-23.5 2.5z" />
    <glyph glyph-name="quotedblleft" unicode="&#x201c;" horiz-adv-x="453" 
d="M50 718q12 2 25.5 3t24.5 1t23.5 -1t24.5 -3l59 -223q-11 -2 -23 -3t-24 -1q-25 0 -48 4zM245 718q12 2 25.5 3t24.5 1t23.5 -1t24.5 -3l59 -223q-11 -2 -23 -3t-24 -1q-25 0 -48 4z" />
    <glyph glyph-name="quotedblright" unicode="&#x201d;" horiz-adv-x="453" 
d="M109 719q12 2 24.5 3t23.5 1q12 0 25.5 -1t25.5 -3l-62 -223q-13 -3 -25.5 -3.5t-23.5 -0.5q-12 0 -23.5 0.5t-23.5 3.5zM304 719q12 2 24.5 3t23.5 1q12 0 25.5 -1t25.5 -3l-62 -223q-13 -3 -25.5 -3.5t-23.5 -0.5q-12 0 -23.5 0.5t-23.5 3.5z" />
    <glyph glyph-name="quotedblbase" unicode="&#x201e;" horiz-adv-x="453" 
d="M109 110q12 2 24.5 3.5t23.5 1.5q12 0 25.5 -1.5t25.5 -3.5l-62 -223q-13 -2 -25.5 -2.5t-23.5 -0.5q-12 0 -23.5 0.5t-23.5 2.5zM304 110q12 2 24.5 3.5t23.5 1.5q12 0 25.5 -1.5t25.5 -3.5l-62 -223q-13 -2 -25.5 -2.5t-23.5 -0.5q-12 0 -23.5 0.5t-23.5 2.5z" />
    <glyph glyph-name="dagger" unicode="&#x2020;" horiz-adv-x="491" 
d="M198 369h-144q-2 9 -3 21t-1 23q0 12 1 23.5t3 20.5h144v262q11 2 23 3t25 1q12 0 24.5 -1t23.5 -3v-262h143q2 -9 3 -20.5t1 -22.5q0 -13 -1 -24.5t-3 -20.5h-143v-540q-20 -4 -48 -4q-13 0 -25 1t-23 3v540z" />
    <glyph glyph-name="daggerdbl" unicode="&#x2021;" horiz-adv-x="491" 
d="M198 73h-144q-2 10 -3 21.5t-1 23.5t1 23.5t3 20.5h144v245h-144q-2 10 -3 21.5t-1 23.5t1 23t3 21h144v223q11 2 23 3t25 1q12 0 24.5 -1t23.5 -3v-223h143q2 -10 3 -21t1 -23t-1 -23.5t-3 -21.5h-143v-245h143q2 -9 3 -20.5t1 -23.5t-1 -23.5t-3 -21.5h-143v-244
q-20 -4 -48 -4q-13 0 -25 1t-23 3v244z" />
    <glyph glyph-name="bullet" unicode="&#x2022;" horiz-adv-x="407" 
d="M75 374q0 27 10 50.5t27.5 41t41 27.5t50.5 10t50 -10t40.5 -27.5t27.5 -41t10 -50.5t-10 -50.5t-27.5 -41t-40.5 -27.5t-50 -10t-50.5 10t-41 27.5t-27.5 41t-10 50.5z" />
    <glyph glyph-name="ellipsis" unicode="&#x2026;" horiz-adv-x="733" 
d="M311 0q-2 14 -3.5 27.5t-1.5 27.5t1.5 28.5t3.5 28.5q14 2 27.5 3t27.5 1t28 -1t28 -3q2 -14 3.5 -28t1.5 -28t-1.5 -28t-3.5 -28q-14 -2 -27.5 -3t-27.5 -1t-28 1t-28 3zM557 0q-2 14 -3.5 27.5t-1.5 27.5t1.5 28.5t3.5 28.5q14 2 27.5 3t27.5 1t28 -1t28 -3
q2 -14 3.5 -28t1.5 -28t-1.5 -28t-3.5 -28q-14 -2 -27.5 -3t-27.5 -1t-28 1t-28 3zM65 0q-2 14 -3.5 27.5t-1.5 27.5t1.5 28.5t3.5 28.5q14 2 27.5 3t27.5 1t28 -1t28 -3q2 -14 3.5 -28t1.5 -28t-1.5 -28t-3.5 -28q-14 -2 -27.5 -3t-27.5 -1t-28 1t-28 3z" />
    <glyph glyph-name="perthousand" unicode="&#x2030;" horiz-adv-x="1493" 
d="M718 708q12 2 24.5 3t24.5 1q13 0 26.5 -1t25.5 -3l-483 -707q-14 -2 -26 -3t-24 -1q-28 0 -51 4zM908 201q0 66 -22.5 102.5t-73.5 36.5q-49 0 -72.5 -36.5t-23.5 -102.5q0 -67 22.5 -103.5t73.5 -36.5q49 0 72.5 36.5t23.5 103.5zM624 201q0 43 11.5 81.5t34.5 67.5
t58.5 46t83.5 17t83 -17t58.5 -46t35 -67.5t11.5 -81.5q0 -44 -11.5 -82.5t-35 -67t-58.5 -45.5t-83 -17t-83.5 17t-58.5 45.5t-34.5 67t-11.5 82.5zM1351 201q0 66 -22.5 102.5t-73.5 36.5q-49 0 -72.5 -36.5t-23.5 -102.5q0 -67 22.5 -103.5t73.5 -36.5q49 0 72.5 36.5
t23.5 103.5zM1067 201q0 43 11.5 81.5t34.5 67.5t58.5 46t83.5 17t83 -17t58.5 -46t35 -67.5t11.5 -81.5q0 -44 -11.5 -82.5t-35 -67t-58.5 -45.5t-83 -17t-83.5 17t-58.5 45.5t-34.5 67t-11.5 82.5zM328 507q0 66 -22.5 102.5t-73.5 36.5q-49 0 -72.5 -36.5t-23.5 -102.5
q0 -67 22.5 -103.5t73.5 -36.5q49 0 72.5 36.5t23.5 103.5zM44 507q0 43 11.5 81.5t34.5 67.5t58.5 46t83.5 17t83 -17t58.5 -46t35 -67.5t11.5 -81.5q0 -44 -11.5 -82.5t-35 -67t-58.5 -45.5t-83 -17t-83.5 17t-58.5 45.5t-34.5 67t-11.5 82.5z" />
    <glyph glyph-name="guilsinglleft" unicode="&#x2039;" horiz-adv-x="365" 
d="M49 267l166 221q12 2 24.5 3t25.5 1q14 0 28 -1t28 -3l-163 -220l163 -223q-14 -2 -27.5 -3t-27.5 -1q-28 0 -51 4z" />
    <glyph glyph-name="guilsinglright" unicode="&#x203a;" horiz-adv-x="365" 
d="M316 266l-167 -221q-12 -2 -24 -3.5t-26 -1.5t-28 1.5t-28 3.5l164 220l-164 223q14 2 27.5 3t27.5 1q13 0 26 -1t25 -3z" />
    <glyph glyph-name="fraction" unicode="&#x2044;" horiz-adv-x="220" 
d="M300 708q12 2 24.5 3t24.5 1q13 0 26.5 -1t25.5 -3l-483 -707q-14 -2 -26 -3t-24 -1q-28 0 -51 4z" />
    <glyph glyph-name="zerosuperior" unicode="&#x2070;" horiz-adv-x="450" 
d="M323 507q0 66 -22.5 102.5t-73.5 36.5q-49 0 -72.5 -36.5t-23.5 -102.5q0 -67 22.5 -103.5t73.5 -36.5q49 0 72.5 36.5t23.5 103.5zM39 507q0 43 11.5 81.5t34.5 67.5t58.5 46t83.5 17t83 -17t58.5 -46t35 -67.5t11.5 -81.5q0 -44 -11.5 -82.5t-35 -67t-58.5 -45.5
t-83 -17t-83.5 17t-58.5 45.5t-34.5 67t-11.5 82.5z" />
    <glyph glyph-name="foursuperior" unicode="&#x2074;" horiz-adv-x="450" 
d="M165 454h98v79q18 3 39 3q20 0 40 -3v-79h48q2 -8 3 -17t1 -20q0 -22 -4 -34h-48v-77q-20 -3 -38 -3q-22 0 -41 3v77h-208l-8 13l164 325q40 -5 73 -24z" />
    <glyph glyph-name="fivesuperior" unicode="&#x2075;" horiz-adv-x="450" 
d="M374 440q0 -38 -14.5 -65.5t-40.5 -45.5t-61.5 -26.5t-77.5 -8.5h-10q-53 2 -102 18q2 19 6 36t15 34q48 -17 92 -17q50 0 78 17t28 56q0 24 -20.5 43t-72.5 19q-20 0 -37 -2.5t-40 -9.5l-11 10l10 208h236q2 -7 2.5 -16t0.5 -17q0 -10 -1 -19t-3 -17h-160l-5 -75
q8 2 17 3t19 1q69 0 110.5 -33t41.5 -93z" />
    <glyph glyph-name="sixsuperior" unicode="&#x2076;" horiz-adv-x="450" 
d="M67 465q0 50 15.5 95t47 79.5t77.5 56t108 25.5q4 -8 5.5 -18t2.5 -20v-15t-1 -14q-60 -5 -105 -35.5t-62 -86.5q17 16 41.5 29t66.5 13q57 0 95.5 -34.5t38.5 -102.5q0 -35 -14 -62t-37 -45t-52.5 -27.5t-61.5 -9.5q-78 0 -121.5 44.5t-43.5 127.5zM237 508
q-37 0 -57.5 -18t-20.5 -52q0 -37 19.5 -56.5t54.5 -19.5q34 0 56 18.5t22 56.5t-21.5 54.5t-52.5 16.5z" />
    <glyph glyph-name="sevensuperior" unicode="&#x2077;" horiz-adv-x="450" 
d="M91 637q-2 7 -2.5 16t-0.5 18q0 19 3 36h302l6 -9l-186 -401q-22 4 -40 12t-38 19l146 309h-190z" />
    <glyph glyph-name="eightsuperior" unicode="&#x2078;" horiz-adv-x="450" 
d="M378 615q0 -34 -18 -56.5t-44 -36.5q14 -7 28.5 -17t26.5 -24t19.5 -31.5t7.5 -39.5q0 -32 -14 -53.5t-37 -35.5t-52 -20t-59 -6q-32 0 -62 6t-53 20t-37 35.5t-14 53.5q0 41 25.5 69.5t56.5 42.5q-23 14 -42.5 37.5t-19.5 55.5q0 46 41 75.5t105 29.5q30 0 56 -8t45 -22
t30 -33t11 -42zM313 416q0 29 -24.5 47t-54.5 27q-31 -9 -54.5 -26.5t-23.5 -48.5q0 -23 20 -39.5t60 -16.5q37 0 57 16t20 41zM171 609q0 -26 20 -39t45 -21q10 3 21 8t20 12.5t14.5 17t5.5 22.5q0 19 -15.5 33t-45.5 14q-34 0 -49.5 -14t-15.5 -33z" />
    <glyph glyph-name="ninesuperior" unicode="&#x2079;" horiz-adv-x="450" 
d="M388 547q0 -50 -15.5 -95t-47 -79.5t-78 -56t-107.5 -25.5q-4 8 -5.5 17.5t-2.5 20.5v14.5t1 14.5q60 5 105 35.5t62 86.5q-17 -16 -41.5 -29t-66.5 -13q-57 0 -95.5 34.5t-38.5 102.5q0 34 14 61t37 45.5t52.5 28t61.5 9.5q78 0 121.5 -44.5t43.5 -127.5zM218 504
q37 0 57.5 18t20.5 52q0 36 -19.5 56t-54.5 20q-34 0 -55.5 -19t-21.5 -56q0 -38 21 -54.5t52 -16.5z" />
    <glyph glyph-name="zeroinferior" unicode="&#x2080;" horiz-adv-x="450" 
d="M323 202q0 66 -22.5 102.5t-73.5 36.5q-49 0 -72.5 -36.5t-23.5 -102.5q0 -67 22.5 -103.5t73.5 -36.5q49 0 72.5 36.5t23.5 103.5zM39 202q0 43 11.5 81.5t34.5 67.5t58.5 46t83.5 17t83 -17t58.5 -46t35 -67.5t11.5 -81.5q0 -44 -11.5 -82.5t-35 -67t-58.5 -45.5
t-83 -17t-83.5 17t-58.5 45.5t-34.5 67t-11.5 82.5z" />
    <glyph glyph-name="oneinferior" unicode="&#x2081;" horiz-adv-x="450" 
d="M112 263q-13 13 -20.5 29t-12.5 35l193 79h17v-334h93q4 -17 4 -35q0 -19 -4 -36h-273q-3 9 -4 17t-1 19q0 9 1 17.5t4 17.5h96v229z" />
    <glyph glyph-name="twoinferior" unicode="&#x2082;" horiz-adv-x="450" 
d="M227 73h153q1 -8 1.5 -17t0.5 -19t-0.5 -19t-1.5 -17h-309l-5 12q32 34 68 70.5t66 71t49.5 65.5t19.5 56q0 32 -24 43.5t-59 11.5q-30 0 -49 -5t-36 -12q-5 13 -10.5 31.5t-8.5 39.5q31 11 58 16.5t60 5.5q71 0 114 -32t43 -92q0 -45 -23 -85.5t-68 -85.5z" />
    <glyph glyph-name="threeinferior" unicode="&#x2083;" horiz-adv-x="450" 
d="M361 402l8 -15l-98 -142q27 -3 47.5 -14.5t34 -27t20.5 -34.5t7 -37q0 -34 -14 -60.5t-38.5 -45t-58.5 -28t-73 -9.5q-18 0 -32.5 1t-28 3t-27 5t-30.5 8q2 18 7.5 36t12.5 32q26 -8 49 -12.5t46 -4.5q41 0 70.5 17.5t29.5 55.5q0 32 -26 47t-59 15q-10 0 -19 -0.5
t-20 -3.5l-11 12l87 133h-140q-3 18 -3 34q0 17 3 35h256z" />
    <glyph glyph-name="fourinferior" unicode="&#x2084;" horiz-adv-x="450" 
d="M165 149h98v79q18 3 39 3q20 0 40 -3v-79h48q2 -8 3 -17t1 -20q0 -22 -4 -34h-48v-77q-20 -3 -38 -3q-22 0 -41 3v77h-208l-8 13l164 325q40 -5 73 -24z" />
    <glyph glyph-name="fiveinferior" unicode="&#x2085;" horiz-adv-x="450" 
d="M374 135q0 -38 -14.5 -65.5t-40.5 -45.5t-61.5 -26.5t-77.5 -8.5h-10q-53 2 -102 18q2 19 6 36t15 34q48 -17 92 -17q50 0 78 17t28 56q0 24 -20.5 43t-72.5 19q-20 0 -37 -2.5t-40 -9.5l-11 10l10 208h236q2 -7 2.5 -16t0.5 -17q0 -10 -1 -19t-3 -17h-160l-5 -75
q8 2 17 3t19 1q69 0 110.5 -33t41.5 -93z" />
    <glyph glyph-name="sixinferior" unicode="&#x2086;" horiz-adv-x="450" 
d="M67 160q0 50 15.5 95t47 79.5t77.5 56t108 25.5q4 -8 5.5 -18t2.5 -20v-15t-1 -14q-60 -5 -105 -35.5t-62 -86.5q17 16 41.5 29t66.5 13q57 0 95.5 -34.5t38.5 -102.5q0 -35 -14 -62t-37 -45t-52.5 -27.5t-61.5 -9.5q-78 0 -121.5 44.5t-43.5 127.5zM237 203
q-37 0 -57.5 -18t-20.5 -52q0 -37 19.5 -56.5t54.5 -19.5q34 0 56 18.5t22 56.5t-21.5 54.5t-52.5 16.5z" />
    <glyph glyph-name="seveninferior" unicode="&#x2087;" horiz-adv-x="450" 
d="M91 332q-2 7 -2.5 16t-0.5 18q0 19 3 36h302l6 -9l-186 -401q-22 4 -40 12t-38 19l146 309h-190z" />
    <glyph glyph-name="eightinferior" unicode="&#x2088;" horiz-adv-x="450" 
d="M378 310q0 -34 -18 -56.5t-44 -36.5q14 -7 28.5 -17t26.5 -24t19.5 -31.5t7.5 -39.5q0 -32 -14 -53.5t-37 -35.5t-52 -20t-59 -6q-32 0 -62 6t-53 20t-37 35.5t-14 53.5q0 41 25.5 69.5t56.5 42.5q-23 14 -42.5 37.5t-19.5 55.5q0 46 41 75.5t105 29.5q30 0 56 -8t45 -22
t30 -33t11 -42zM313 111q0 29 -24.5 47t-54.5 27q-31 -9 -54.5 -26.5t-23.5 -48.5q0 -23 20 -39.5t60 -16.5q37 0 57 16t20 41zM171 304q0 -26 20 -39t45 -21q10 3 21 8t20 12.5t14.5 17t5.5 22.5q0 19 -15.5 33t-45.5 14q-34 0 -49.5 -14t-15.5 -33z" />
    <glyph glyph-name="nineinferior" unicode="&#x2089;" horiz-adv-x="450" 
d="M388 242q0 -50 -15.5 -95t-47 -79.5t-78 -56t-107.5 -25.5q-4 8 -5.5 17.5t-2.5 20.5v14.5t1 14.5q60 5 105 35.5t62 86.5q-17 -16 -41.5 -29t-66.5 -13q-57 0 -95.5 34.5t-38.5 102.5q0 34 14 61t37 45.5t52.5 28t61.5 9.5q78 0 121.5 -44.5t43.5 -127.5zM218 199
q37 0 57.5 18t20.5 52q0 36 -19.5 56t-54.5 20q-34 0 -55.5 -19t-21.5 -56q0 -38 21 -54.5t52 -16.5z" />
    <glyph glyph-name="Euro" unicode="&#x20ac;" 
d="M107 467q23 118 96.5 185t199.5 67q57 0 98 -8t73 -19q-2 -23 -8.5 -42.5t-15.5 -41.5q-33 12 -67.5 17t-71.5 5q-82 0 -129 -41.5t-65 -121.5h255q2 -7 3 -15.5t1 -16.5q0 -10 -1 -19.5t-3 -17.5h-264q-1 -12 -1.5 -24.5t-0.5 -26.5v-21.5t1 -20.5h265q2 -7 3 -15t1 -17
q0 -10 -1 -19.5t-3 -17.5h-256q19 -82 68.5 -120t133.5 -38q42 0 76 7t64 20q20 -39 28 -83q-42 -18 -86.5 -26t-94.5 -8q-130 0 -204 64.5t-96 183.5h-81q-5 15 -5 34q0 18 5 35h73q-1 10 -1 20.5v21.5v25.5t1 25.5h-73q-5 15 -5 33q0 19 5 36h83z" />
    <glyph glyph-name="afii61289" unicode="&#x2113;" horiz-adv-x="458" 
d="M186 295q49 56 76 121t27 125q0 48 -13 66.5t-34 18.5q-28 0 -42 -37t-14 -120v-174zM186 198q0 -36 4.5 -60.5t13.5 -39t22 -20.5t29 -6q32 0 59.5 21t47.5 46l49 -48q-28 -42 -71 -70.5t-97 -28.5q-64 0 -100.5 36.5t-39.5 114.5q-13 -8 -24.5 -16t-23.5 -17
q-8 16 -16 31l-16 30q20 14 39 28t38 29v214q0 73 9.5 123t27.5 80.5t45.5 43.5t63.5 13q57 0 90 -38t33 -120q0 -86 -42 -170.5t-141 -175.5z" />
    <glyph glyph-name="trademark" unicode="&#x2122;" horiz-adv-x="826" 
d="M139 634h-113q-3 18 -3 35t3 38h302q2 -10 3 -18.5t1 -18.5q0 -9 -1 -18t-3 -18h-112v-327q-11 -2 -20 -3t-20 -1q-9 0 -18.5 1t-18.5 3v327zM393 707q12 1 22 2t20 1q9 0 19.5 -1t22.5 -2l99 -219l98 219q11 1 20.5 2t19.5 1t20.5 -1t21.5 -2l20 -400q-12 -2 -20.5 -3
t-18.5 -1q-8 0 -17.5 0.5t-20.5 3.5l-15 255l-86 -179q-8 -2 -14 -2.5t-14 -0.5q-10 0 -29 3l-79 176l-13 -252q-19 -4 -37 -4q-19 0 -39 4z" />
    <glyph glyph-name="Omega" unicode="&#x3a9;" horiz-adv-x="730" 
d="M362 726q74 0 130.5 -24.5t95 -69.5t58 -108.5t19.5 -141.5q0 -89 -28.5 -165.5t-70.5 -127.5h116q2 -10 2.5 -22.5t0.5 -23.5t-0.5 -22t-2.5 -21h-266l-5 14q21 22 46.5 58.5t47.5 84t37 104t15 119.5q0 128 -49.5 192t-145.5 64t-145.5 -64t-49.5 -192q0 -65 15 -122
t37 -103.5t47.5 -82.5t46.5 -58l-5 -14h-266q-2 10 -2.5 21t-0.5 22t0.5 23.5t2.5 22.5h116q-42 51 -70.5 127.5t-28.5 165.5q0 78 19.5 141.5t58 108.5t95 69.5t130.5 24.5z" />
    <glyph glyph-name="estimated" unicode="&#x212e;" horiz-adv-x="657" 
d="M149 118q0 -25 20.5 -44t49 -32t59.5 -19.5t52 -6.5q57 0 103.5 23t81.5 63h42q-38 -48 -96.5 -75t-130.5 -27q-60 0 -112.5 20.5t-92 56t-62.5 83.5t-23 102t23 101.5t62.5 83t92 56t112.5 20.5q61 0 114 -21t92 -57.5t61 -85.5t22 -104h-464q-6 0 -6 -8v-129zM149 275
q0 -7 5 -7h350q6 0 6 7v131q0 25 -19.5 44.5t-48 32.5t-59.5 19.5t-53 6.5q-98 0 -168 -69q-5 -7 -9 -16t-4 -18v-131z" />
    <glyph glyph-name="onequarter" unicode="&#xbc;" horiz-adv-x="1050" 
d="M735 708q12 2 24.5 3t24.5 1q13 0 26.5 -1t25.5 -3l-483 -707q-14 -2 -26 -3t-24 -1q-28 0 -51 4zM98 568q-13 13 -20.5 29t-12.5 35l193 79h17v-334h93q4 -17 4 -35q0 -19 -4 -36h-273q-3 9 -4 17t-1 19q0 9 1 17.5t4 17.5h96v229zM745 149h98v79q18 3 39 3q20 0 40 -3
v-79h48q2 -8 3 -17t1 -20q0 -22 -4 -34h-48v-77q-20 -3 -38 -3q-22 0 -41 3v77h-208l-8 13l164 325q40 -5 73 -24z" />
    <glyph glyph-name="onehalf" unicode="&#xbd;" horiz-adv-x="1050" 
d="M718 708q12 2 24.5 3t24.5 1q13 0 26.5 -1t25.5 -3l-483 -707q-14 -2 -26 -3t-24 -1q-28 0 -51 4zM95 568q-13 13 -20.5 29t-12.5 35l193 79h17v-334h93q4 -17 4 -35q0 -19 -4 -36h-273q-3 9 -4 17t-1 19q0 9 1 17.5t4 17.5h96v229zM821 73h153q1 -8 1.5 -17t0.5 -19
t-0.5 -19t-1.5 -17h-309l-5 12q32 34 68 70.5t66 71t49.5 65.5t19.5 56q0 32 -24 43.5t-59 11.5q-30 0 -49 -5t-36 -12q-5 13 -10.5 31.5t-8.5 39.5q31 11 58 16.5t60 5.5q71 0 114 -32t43 -92q0 -45 -23 -85.5t-68 -85.5z" />
    <glyph glyph-name="threequarters" unicode="&#xbe;" horiz-adv-x="1050" 
d="M741 708q12 2 24.5 3t24.5 1q13 0 26.5 -1t25.5 -3l-483 -707q-14 -2 -26 -3t-24 -1q-28 0 -51 4zM754 157h98v79q18 3 39 3q20 0 40 -3v-79h48q2 -8 3 -17t1 -20q0 -22 -4 -34h-48v-77q-20 -3 -38 -3q-22 0 -41 3v77h-208l-8 13l164 325q40 -5 73 -24zM368 707l8 -15
l-98 -142q27 -3 47.5 -14.5t34 -27t20.5 -34.5t7 -37q0 -34 -14 -60.5t-38.5 -45t-58.5 -28t-73 -9.5q-18 0 -32.5 1t-28 3t-27 5t-30.5 8q2 18 7.5 36t12.5 32q26 -8 49 -12.5t46 -4.5q41 0 70.5 17.5t29.5 55.5q0 32 -26 47t-59 15q-10 0 -19 -0.5t-20 -3.5l-11 12l87 133
h-140q-3 18 -3 34q0 17 3 35h256z" />
    <glyph glyph-name="onethird" unicode="&#x2153;" horiz-adv-x="1080" 
d="M743 708q12 2 24.5 3t24.5 1q13 0 26.5 -1t25.5 -3l-483 -707q-14 -2 -26 -3t-24 -1q-28 0 -51 4zM113 568q-13 13 -20.5 29t-12.5 35l193 79h17v-334h93q4 -17 4 -35q0 -19 -4 -36h-273q-3 9 -4 17t-1 19q0 9 1 17.5t4 17.5h96v229zM978 402l8 -15l-98 -142
q27 -3 47.5 -14.5t34 -27t20.5 -34.5t7 -37q0 -34 -14 -60.5t-38.5 -45t-58.5 -28t-73 -9.5q-18 0 -32.5 1t-28 3t-27 5t-30.5 8q2 18 7.5 36t12.5 32q26 -8 49 -12.5t46 -4.5q41 0 70.5 17.5t29.5 55.5q0 32 -26 47t-59 15q-10 0 -19 -0.5t-20 -3.5l-11 12l87 133h-140
q-3 18 -3 34q0 17 3 35h256z" />
    <glyph glyph-name="twothirds" unicode="&#x2154;" horiz-adv-x="1080" 
d="M746 708q12 2 24.5 3t24.5 1q13 0 26.5 -1t25.5 -3l-483 -707q-14 -2 -26 -3t-24 -1q-28 0 -51 4zM227 378h153q1 -8 1.5 -17t0.5 -19t-0.5 -19t-1.5 -17h-309l-5 12q32 34 68 70.5t66 71t49.5 65.5t19.5 56q0 32 -24 43.5t-59 11.5q-30 0 -49 -5t-36 -12
q-5 13 -10.5 31.5t-8.5 39.5q31 11 58 16.5t60 5.5q71 0 114 -32t43 -92q0 -45 -23 -85.5t-68 -85.5zM991 402l8 -15l-98 -142q27 -3 47.5 -14.5t34 -27t20.5 -34.5t7 -37q0 -34 -14 -60.5t-38.5 -45t-58.5 -28t-73 -9.5q-18 0 -32.5 1t-28 3t-27 5t-30.5 8q2 18 7.5 36
t12.5 32q26 -8 49 -12.5t46 -4.5q41 0 70.5 17.5t29.5 55.5q0 32 -26 47t-59 15q-10 0 -19 -0.5t-20 -3.5l-11 12l87 133h-140q-3 18 -3 34q0 17 3 35h256z" />
    <glyph glyph-name="oneeighth" unicode="&#x215b;" horiz-adv-x="1080" 
d="M746 708q12 2 24.5 3t24.5 1q13 0 26.5 -1t25.5 -3l-483 -707q-14 -2 -26 -3t-24 -1q-28 0 -51 4zM107 568q-13 13 -20.5 29t-12.5 35l193 79h17v-334h93q4 -17 4 -35q0 -19 -4 -36h-273q-3 9 -4 17t-1 19q0 9 1 17.5t4 17.5h96v229zM990 310q0 -34 -18 -56.5t-44 -36.5
q14 -7 28.5 -17t26.5 -24t19.5 -31.5t7.5 -39.5q0 -32 -14 -53.5t-37 -35.5t-52 -20t-59 -6q-32 0 -62 6t-53 20t-37 35.5t-14 53.5q0 41 25.5 69.5t56.5 42.5q-23 14 -42.5 37.5t-19.5 55.5q0 46 41 75.5t105 29.5q30 0 56 -8t45 -22t30 -33t11 -42zM925 111q0 29 -24.5 47
t-54.5 27q-31 -9 -54.5 -26.5t-23.5 -48.5q0 -23 20 -39.5t60 -16.5q37 0 57 16t20 41zM783 304q0 -26 20 -39t45 -21q10 3 21 8t20 12.5t14.5 17t5.5 22.5q0 19 -15.5 33t-45.5 14q-34 0 -49.5 -14t-15.5 -33z" />
    <glyph glyph-name="threeeighths" unicode="&#x215c;" horiz-adv-x="1080" 
d="M722 708q12 2 24.5 3t24.5 1q13 0 26.5 -1t25.5 -3l-483 -707q-14 -2 -26 -3t-24 -1q-28 0 -51 4zM986 310q0 -34 -18 -56.5t-44 -36.5q14 -7 28.5 -17t26.5 -24t19.5 -31.5t7.5 -39.5q0 -32 -14 -53.5t-37 -35.5t-52 -20t-59 -6q-32 0 -62 6t-53 20t-37 35.5t-14 53.5
q0 41 25.5 69.5t56.5 42.5q-23 14 -42.5 37.5t-19.5 55.5q0 46 41 75.5t105 29.5q30 0 56 -8t45 -22t30 -33t11 -42zM921 111q0 29 -24.5 47t-54.5 27q-31 -9 -54.5 -26.5t-23.5 -48.5q0 -23 20 -39.5t60 -16.5q37 0 57 16t20 41zM779 304q0 -26 20 -39t45 -21q10 3 21 8
t20 12.5t14.5 17t5.5 22.5q0 19 -15.5 33t-45.5 14q-34 0 -49.5 -14t-15.5 -33zM360 707l8 -15l-98 -142q27 -3 47.5 -14.5t34 -27t20.5 -34.5t7 -37q0 -34 -14 -60.5t-38.5 -45t-58.5 -28t-73 -9.5q-18 0 -32.5 1t-28 3t-27 5t-30.5 8q2 18 7.5 36t12.5 32q26 -8 49 -12.5
t46 -4.5q41 0 70.5 17.5t29.5 55.5q0 32 -26 47t-59 15q-10 0 -19 -0.5t-20 -3.5l-11 12l87 133h-140q-3 18 -3 34q0 17 3 35h256z" />
    <glyph glyph-name="fiveeighths" unicode="&#x215d;" horiz-adv-x="1080" 
d="M722 708q12 2 24.5 3t24.5 1q13 0 26.5 -1t25.5 -3l-483 -707q-14 -2 -26 -3t-24 -1q-28 0 -51 4zM374 440q0 -38 -14.5 -65.5t-40.5 -45.5t-61.5 -26.5t-77.5 -8.5h-10q-53 2 -102 18q2 19 6 36t15 34q48 -17 92 -17q50 0 78 17t28 56q0 24 -20.5 43t-72.5 19
q-20 0 -37 -2.5t-40 -9.5l-11 10l10 208h236q2 -7 2.5 -16t0.5 -17q0 -10 -1 -19t-3 -17h-160l-5 -75q8 2 17 3t19 1q69 0 110.5 -33t41.5 -93zM990 310q0 -34 -18 -56.5t-44 -36.5q14 -7 28.5 -17t26.5 -24t19.5 -31.5t7.5 -39.5q0 -32 -14 -53.5t-37 -35.5t-52 -20t-59 -6
q-32 0 -62 6t-53 20t-37 35.5t-14 53.5q0 41 25.5 69.5t56.5 42.5q-23 14 -42.5 37.5t-19.5 55.5q0 46 41 75.5t105 29.5q30 0 56 -8t45 -22t30 -33t11 -42zM925 111q0 29 -24.5 47t-54.5 27q-31 -9 -54.5 -26.5t-23.5 -48.5q0 -23 20 -39.5t60 -16.5q37 0 57 16t20 41z
M783 304q0 -26 20 -39t45 -21q10 3 21 8t20 12.5t14.5 17t5.5 22.5q0 19 -15.5 33t-45.5 14q-34 0 -49.5 -14t-15.5 -33z" />
    <glyph glyph-name="seveneighths" unicode="&#x215e;" horiz-adv-x="1080" 
d="M684 708q12 2 24.5 3t24.5 1q13 0 26.5 -1t25.5 -3l-483 -707q-14 -2 -26 -3t-24 -1q-28 0 -51 4zM973 310q0 -34 -18 -56.5t-44 -36.5q14 -7 28.5 -17t26.5 -24t19.5 -31.5t7.5 -39.5q0 -32 -14 -53.5t-37 -35.5t-52 -20t-59 -6q-32 0 -62 6t-53 20t-37 35.5t-14 53.5
q0 41 25.5 69.5t56.5 42.5q-23 14 -42.5 37.5t-19.5 55.5q0 46 41 75.5t105 29.5q30 0 56 -8t45 -22t30 -33t11 -42zM908 111q0 29 -24.5 47t-54.5 27q-31 -9 -54.5 -26.5t-23.5 -48.5q0 -23 20 -39.5t60 -16.5q37 0 57 16t20 41zM766 304q0 -26 20 -39t45 -21q10 3 21 8
t20 12.5t14.5 17t5.5 22.5q0 19 -15.5 33t-45.5 14q-34 0 -49.5 -14t-15.5 -33zM91 637q-2 7 -2.5 16t-0.5 18q0 19 3 36h302l6 -9l-186 -401q-22 4 -40 12t-38 19l146 309h-190z" />
    <glyph glyph-name="onefifth" unicode="&#x2155;" horiz-adv-x="1080" 
d="M754 708q12 2 24.5 3t24.5 1q13 0 26.5 -1t25.5 -3l-483 -707q-14 -2 -26 -3t-24 -1q-28 0 -51 4zM112 568q-13 13 -20.5 29t-12.5 35l193 79h17v-334h93q4 -17 4 -35q0 -19 -4 -36h-273q-3 9 -4 17t-1 19q0 9 1 17.5t4 17.5h96v229zM1003 135q0 -38 -14.5 -65.5
t-40.5 -45.5t-61.5 -26.5t-77.5 -8.5h-10q-53 2 -102 18q2 19 6 36t15 34q48 -17 92 -17q50 0 78 17t28 56q0 24 -20.5 43t-72.5 19q-20 0 -37 -2.5t-40 -9.5l-11 10l10 208h236q2 -7 2.5 -16t0.5 -17q0 -10 -1 -19t-3 -17h-160l-5 -75q8 2 17 3t19 1q69 0 110.5 -33
t41.5 -93z" />
    <glyph glyph-name="twofifths" unicode="&#x2156;" horiz-adv-x="1080" 
d="M751 708q12 2 24.5 3t24.5 1q13 0 26.5 -1t25.5 -3l-483 -707q-14 -2 -26 -3t-24 -1q-28 0 -51 4zM231 378h153q1 -8 1.5 -17t0.5 -19t-0.5 -19t-1.5 -17h-309l-5 12q32 34 68 70.5t66 71t49.5 65.5t19.5 56q0 32 -24 43.5t-59 11.5q-30 0 -49 -5t-36 -12
q-5 13 -10.5 31.5t-8.5 39.5q31 11 58 16.5t60 5.5q71 0 114 -32t43 -92q0 -45 -23 -85.5t-68 -85.5zM1002 135q0 -38 -14.5 -65.5t-40.5 -45.5t-61.5 -26.5t-77.5 -8.5h-10q-53 2 -102 18q2 19 6 36t15 34q48 -17 92 -17q50 0 78 17t28 56q0 24 -20.5 43t-72.5 19
q-20 0 -37 -2.5t-40 -9.5l-11 10l10 208h236q2 -7 2.5 -16t0.5 -17q0 -10 -1 -19t-3 -17h-160l-5 -75q8 2 17 3t19 1q69 0 110.5 -33t41.5 -93z" />
    <glyph glyph-name="threefifths" unicode="&#x2157;" horiz-adv-x="1080" 
d="M730 708q12 2 24.5 3t24.5 1q13 0 26.5 -1t25.5 -3l-483 -707q-14 -2 -26 -3t-24 -1q-28 0 -51 4zM999 135q0 -38 -14.5 -65.5t-40.5 -45.5t-61.5 -26.5t-77.5 -8.5h-10q-53 2 -102 18q2 19 6 36t15 34q48 -17 92 -17q50 0 78 17t28 56q0 24 -20.5 43t-72.5 19
q-20 0 -37 -2.5t-40 -9.5l-11 10l10 208h236q2 -7 2.5 -16t0.5 -17q0 -10 -1 -19t-3 -17h-160l-5 -75q8 2 17 3t19 1q69 0 110.5 -33t41.5 -93zM364 707l8 -15l-98 -142q27 -3 47.5 -14.5t34 -27t20.5 -34.5t7 -37q0 -34 -14 -60.5t-38.5 -45t-58.5 -28t-73 -9.5
q-18 0 -32.5 1t-28 3t-27 5t-30.5 8q2 18 7.5 36t12.5 32q26 -8 49 -12.5t46 -4.5q41 0 70.5 17.5t29.5 55.5q0 32 -26 47t-59 15q-10 0 -19 -0.5t-20 -3.5l-11 12l87 133h-140q-3 18 -3 34q0 17 3 35h256z" />
    <glyph glyph-name="fourfifths" unicode="&#x2158;" horiz-adv-x="1080" 
d="M756 708q12 2 24.5 3t24.5 1q13 0 26.5 -1t25.5 -3l-483 -707q-14 -2 -26 -3t-24 -1q-28 0 -51 4zM1012 135q0 -38 -14.5 -65.5t-40.5 -45.5t-61.5 -26.5t-77.5 -8.5h-10q-53 2 -102 18q2 19 6 36t15 34q48 -17 92 -17q50 0 78 17t28 56q0 24 -20.5 43t-72.5 19
q-20 0 -37 -2.5t-40 -9.5l-11 10l10 208h236q2 -7 2.5 -16t0.5 -17q0 -10 -1 -19t-3 -17h-160l-5 -75q8 2 17 3t19 1q69 0 110.5 -33t41.5 -93zM174 454h98v79q18 3 39 3q20 0 40 -3v-79h48q2 -8 3 -17t1 -20q0 -22 -4 -34h-48v-77q-20 -3 -38 -3q-22 0 -41 3v77h-208l-8 13
l164 325q40 -5 73 -24z" />
    <glyph glyph-name="onesixth" unicode="&#x2159;" horiz-adv-x="1080" 
d="M751 708q12 2 24.5 3t24.5 1q13 0 26.5 -1t25.5 -3l-483 -707q-14 -2 -26 -3t-24 -1q-28 0 -51 4zM106 568q-13 13 -20.5 29t-12.5 35l193 79h17v-334h93q4 -17 4 -35q0 -19 -4 -36h-273q-3 9 -4 17t-1 19q0 9 1 17.5t4 17.5h96v229zM674 160q0 50 15.5 95t47 79.5
t77.5 56t108 25.5q4 -8 5.5 -18t2.5 -20v-15t-1 -14q-60 -5 -105 -35.5t-62 -86.5q17 16 41.5 29t66.5 13q57 0 95.5 -34.5t38.5 -102.5q0 -35 -14 -62t-37 -45t-52.5 -27.5t-61.5 -9.5q-78 0 -121.5 44.5t-43.5 127.5zM844 203q-37 0 -57.5 -18t-20.5 -52q0 -37 19.5 -56.5
t54.5 -19.5q34 0 56 18.5t22 56.5t-21.5 54.5t-52.5 16.5z" />
    <glyph glyph-name="fivesixths" unicode="&#x215a;" horiz-adv-x="1080" 
d="M732 708q12 2 24.5 3t24.5 1q13 0 26.5 -1t25.5 -3l-483 -707q-14 -2 -26 -3t-24 -1q-28 0 -51 4zM678 160q0 50 15.5 95t47 79.5t77.5 56t108 25.5q4 -8 5.5 -18t2.5 -20v-15t-1 -14q-60 -5 -105 -35.5t-62 -86.5q17 16 41.5 29t66.5 13q57 0 95.5 -34.5t38.5 -102.5
q0 -35 -14 -62t-37 -45t-52.5 -27.5t-61.5 -9.5q-78 0 -121.5 44.5t-43.5 127.5zM848 203q-37 0 -57.5 -18t-20.5 -52q0 -37 19.5 -56.5t54.5 -19.5q34 0 56 18.5t22 56.5t-21.5 54.5t-52.5 16.5zM375 440q0 -38 -14.5 -65.5t-40.5 -45.5t-61.5 -26.5t-77.5 -8.5h-10
q-53 2 -102 18q2 19 6 36t15 34q48 -17 92 -17q50 0 78 17t28 56q0 24 -20.5 43t-72.5 19q-20 0 -37 -2.5t-40 -9.5l-11 10l10 208h236q2 -7 2.5 -16t0.5 -17q0 -10 -1 -19t-3 -17h-160l-5 -75q8 2 17 3t19 1q69 0 110.5 -33t41.5 -93z" />
    <glyph glyph-name="oneseventh" unicode="&#xf506;" horiz-adv-x="1080" 
d="M728 708q12 2 24.5 3t24.5 1q13 0 26.5 -1t25.5 -3l-483 -707q-14 -2 -26 -3t-24 -1q-28 0 -51 4zM101 568q-13 13 -20.5 29t-12.5 35l193 79h17v-334h93q4 -17 4 -35q0 -19 -4 -36h-273q-3 9 -4 17t-1 19q0 9 1 17.5t4 17.5h96v229zM711 332q-2 7 -2.5 16t-0.5 18
q0 19 3 36h302l6 -9l-186 -401q-22 4 -40 12t-38 19l146 309h-190z" />
    <glyph glyph-name="twosevenths" unicode="&#xf507;" horiz-adv-x="1080" 
d="M741 708q12 2 24.5 3t24.5 1q13 0 26.5 -1t25.5 -3l-483 -707q-14 -2 -26 -3t-24 -1q-28 0 -51 4zM225 378h153q1 -8 1.5 -17t0.5 -19t-0.5 -19t-1.5 -17h-309l-5 12q32 34 68 70.5t66 71t49.5 65.5t19.5 56q0 32 -24 43.5t-59 11.5q-30 0 -49 -5t-36 -12
q-5 13 -10.5 31.5t-8.5 39.5q31 11 58 16.5t60 5.5q71 0 114 -32t43 -92q0 -45 -23 -85.5t-68 -85.5zM715 332q-2 7 -2.5 16t-0.5 18q0 19 3 36h302l6 -9l-186 -401q-22 4 -40 12t-38 19l146 309h-190z" />
    <glyph glyph-name="threesevenths" unicode="&#xf508;" horiz-adv-x="1080" 
d="M715 708q12 2 24.5 3t24.5 1q13 0 26.5 -1t25.5 -3l-483 -707q-14 -2 -26 -3t-24 -1q-28 0 -51 4zM707 332q-2 7 -2.5 16t-0.5 18q0 19 3 36h302l6 -9l-186 -401q-22 4 -40 12t-38 19l146 309h-190zM355 707l8 -15l-98 -142q27 -3 47.5 -14.5t34 -27t20.5 -34.5t7 -37
q0 -34 -14 -60.5t-38.5 -45t-58.5 -28t-73 -9.5q-18 0 -32.5 1t-28 3t-27 5t-30.5 8q2 18 7.5 36t12.5 32q26 -8 49 -12.5t46 -4.5q41 0 70.5 17.5t29.5 55.5q0 32 -26 47t-59 15q-10 0 -19 -0.5t-20 -3.5l-11 12l87 133h-140q-3 18 -3 34q0 17 3 35h256z" />
    <glyph glyph-name="foursevenths" unicode="&#xf509;" horiz-adv-x="1080" 
d="M732 708q12 2 24.5 3t24.5 1q13 0 26.5 -1t25.5 -3l-483 -707q-14 -2 -26 -3t-24 -1q-28 0 -51 4zM165 454h98v79q18 3 39 3q20 0 40 -3v-79h48q2 -8 3 -17t1 -20q0 -22 -4 -34h-48v-77q-20 -3 -38 -3q-22 0 -41 3v77h-208l-8 13l164 325q40 -5 73 -24zM718 332
q-2 7 -2.5 16t-0.5 18q0 19 3 36h302l6 -9l-186 -401q-22 4 -40 12t-38 19l146 309h-190z" />
    <glyph glyph-name="fivesevenths" unicode="&#xf50a;" horiz-adv-x="1080" 
d="M713 708q12 2 24.5 3t24.5 1q13 0 26.5 -1t25.5 -3l-483 -707q-14 -2 -26 -3t-24 -1q-28 0 -51 4zM382 440q0 -38 -14.5 -65.5t-40.5 -45.5t-61.5 -26.5t-77.5 -8.5h-10q-53 2 -102 18q2 19 6 36t15 34q48 -17 92 -17q50 0 78 17t28 56q0 24 -20.5 43t-72.5 19
q-20 0 -37 -2.5t-40 -9.5l-11 10l10 208h236q2 -7 2.5 -16t0.5 -17q0 -10 -1 -19t-3 -17h-160l-5 -75q8 2 17 3t19 1q69 0 110.5 -33t41.5 -93zM711 332q-2 7 -2.5 16t-0.5 18q0 19 3 36h302l6 -9l-186 -401q-22 4 -40 12t-38 19l146 309h-190z" />
    <glyph glyph-name="sixsevenths" unicode="&#xf50b;" horiz-adv-x="1080" 
d="M721 708q12 2 24.5 3t24.5 1q13 0 26.5 -1t25.5 -3l-483 -707q-14 -2 -26 -3t-24 -1q-28 0 -51 4zM64 465q0 50 15.5 95t47 79.5t77.5 56t108 25.5q4 -8 5.5 -18t2.5 -20v-15t-1 -14q-60 -5 -105 -35.5t-62 -86.5q17 16 41.5 29t66.5 13q57 0 95.5 -34.5t38.5 -102.5
q0 -35 -14 -62t-37 -45t-52.5 -27.5t-61.5 -9.5q-78 0 -121.5 44.5t-43.5 127.5zM234 508q-37 0 -57.5 -18t-20.5 -52q0 -37 19.5 -56.5t54.5 -19.5q34 0 56 18.5t22 56.5t-21.5 54.5t-52.5 16.5zM712 332q-2 7 -2.5 16t-0.5 18q0 19 3 36h302l6 -9l-186 -401q-22 4 -40 12
t-38 19l146 309h-190z" />
    <glyph glyph-name="oneninth" unicode="&#xf50c;" horiz-adv-x="1080" 
d="M733 708q12 2 24.5 3t24.5 1q13 0 26.5 -1t25.5 -3l-483 -707q-14 -2 -26 -3t-24 -1q-28 0 -51 4zM102 568q-13 13 -20.5 29t-12.5 35l193 79h17v-334h93q4 -17 4 -35q0 -19 -4 -36h-273q-3 9 -4 17t-1 19q0 9 1 17.5t4 17.5h96v229zM999 242q0 -50 -15.5 -95t-47 -79.5
t-78 -56t-107.5 -25.5q-4 8 -5.5 17.5t-2.5 20.5v14.5t1 14.5q60 5 105 35.5t62 86.5q-17 -16 -41.5 -29t-66.5 -13q-57 0 -95.5 34.5t-38.5 102.5q0 34 14 61t37 45.5t52.5 28t61.5 9.5q78 0 121.5 -44.5t43.5 -127.5zM829 199q37 0 57.5 18t20.5 52q0 36 -19.5 56
t-54.5 20q-34 0 -55.5 -19t-21.5 -56q0 -38 21 -54.5t52 -16.5z" />
    <glyph glyph-name="twoninths" unicode="&#xf50d;" horiz-adv-x="1080" 
d="M746 708q12 2 24.5 3t24.5 1q13 0 26.5 -1t25.5 -3l-483 -707q-14 -2 -26 -3t-24 -1q-28 0 -51 4zM227 378h153q1 -8 1.5 -17t0.5 -19t-0.5 -19t-1.5 -17h-309l-5 12q32 34 68 70.5t66 71t49.5 65.5t19.5 56q0 32 -24 43.5t-59 11.5q-30 0 -49 -5t-36 -12
q-5 13 -10.5 31.5t-8.5 39.5q31 11 58 16.5t60 5.5q71 0 114 -32t43 -92q0 -45 -23 -85.5t-68 -85.5zM1009 242q0 -50 -15.5 -95t-47 -79.5t-78 -56t-107.5 -25.5q-4 8 -5.5 17.5t-2.5 20.5v14.5t1 14.5q60 5 105 35.5t62 86.5q-17 -16 -41.5 -29t-66.5 -13
q-57 0 -95.5 34.5t-38.5 102.5q0 34 14 61t37 45.5t52.5 28t61.5 9.5q78 0 121.5 -44.5t43.5 -127.5zM839 199q37 0 57.5 18t20.5 52q0 36 -19.5 56t-54.5 20q-34 0 -55.5 -19t-21.5 -56q0 -38 21 -54.5t52 -16.5z" />
    <glyph glyph-name="fourninths" unicode="&#xf50e;" horiz-adv-x="1080" 
d="M743 708q12 2 24.5 3t24.5 1q13 0 26.5 -1t25.5 -3l-483 -707q-14 -2 -26 -3t-24 -1q-28 0 -51 4zM167 454h98v79q18 3 39 3q20 0 40 -3v-79h48q2 -8 3 -17t1 -20q0 -22 -4 -34h-48v-77q-20 -3 -38 -3q-22 0 -41 3v77h-208l-8 13l164 325q40 -5 73 -24zM1015 242
q0 -50 -15.5 -95t-47 -79.5t-78 -56t-107.5 -25.5q-4 8 -5.5 17.5t-2.5 20.5v14.5t1 14.5q60 5 105 35.5t62 86.5q-17 -16 -41.5 -29t-66.5 -13q-57 0 -95.5 34.5t-38.5 102.5q0 34 14 61t37 45.5t52.5 28t61.5 9.5q78 0 121.5 -44.5t43.5 -127.5zM845 199q37 0 57.5 18
t20.5 52q0 36 -19.5 56t-54.5 20q-34 0 -55.5 -19t-21.5 -56q0 -38 21 -54.5t52 -16.5z" />
    <glyph glyph-name="fiveninths" unicode="&#xf50f;" horiz-adv-x="1080" 
d="M721 708q12 2 24.5 3t24.5 1q13 0 26.5 -1t25.5 -3l-483 -707q-14 -2 -26 -3t-24 -1q-28 0 -51 4zM376 440q0 -38 -14.5 -65.5t-40.5 -45.5t-61.5 -26.5t-77.5 -8.5h-10q-53 2 -102 18q2 19 6 36t15 34q48 -17 92 -17q50 0 78 17t28 56q0 24 -20.5 43t-72.5 19
q-20 0 -37 -2.5t-40 -9.5l-11 10l10 208h236q2 -7 2.5 -16t0.5 -17q0 -10 -1 -19t-3 -17h-160l-5 -75q8 2 17 3t19 1q69 0 110.5 -33t41.5 -93zM1000 242q0 -50 -15.5 -95t-47 -79.5t-78 -56t-107.5 -25.5q-4 8 -5.5 17.5t-2.5 20.5v14.5t1 14.5q60 5 105 35.5t62 86.5
q-17 -16 -41.5 -29t-66.5 -13q-57 0 -95.5 34.5t-38.5 102.5q0 34 14 61t37 45.5t52.5 28t61.5 9.5q78 0 121.5 -44.5t43.5 -127.5zM830 199q37 0 57.5 18t20.5 52q0 36 -19.5 56t-54.5 20q-34 0 -55.5 -19t-21.5 -56q0 -38 21 -54.5t52 -16.5z" />
    <glyph glyph-name="sevenninths" unicode="&#xf510;" horiz-adv-x="1080" 
d="M681 708q12 2 24.5 3t24.5 1q13 0 26.5 -1t25.5 -3l-483 -707q-14 -2 -26 -3t-24 -1q-28 0 -51 4zM985 242q0 -50 -15.5 -95t-47 -79.5t-78 -56t-107.5 -25.5q-4 8 -5.5 17.5t-2.5 20.5v14.5t1 14.5q60 5 105 35.5t62 86.5q-17 -16 -41.5 -29t-66.5 -13q-57 0 -95.5 34.5
t-38.5 102.5q0 34 14 61t37 45.5t52.5 28t61.5 9.5q78 0 121.5 -44.5t43.5 -127.5zM815 199q37 0 57.5 18t20.5 52q0 36 -19.5 56t-54.5 20q-34 0 -55.5 -19t-21.5 -56q0 -38 21 -54.5t52 -16.5zM89 637q-2 7 -2.5 16t-0.5 18q0 19 3 36h302l6 -9l-186 -401q-22 4 -40 12
t-38 19l146 309h-190z" />
    <glyph glyph-name="eightninths" unicode="&#xf511;" horiz-adv-x="1080" 
d="M732 708q12 2 24.5 3t24.5 1q13 0 26.5 -1t25.5 -3l-483 -707q-14 -2 -26 -3t-24 -1q-28 0 -51 4zM1007 242q0 -50 -15.5 -95t-47 -79.5t-78 -56t-107.5 -25.5q-4 8 -5.5 17.5t-2.5 20.5v14.5t1 14.5q60 5 105 35.5t62 86.5q-17 -16 -41.5 -29t-66.5 -13
q-57 0 -95.5 34.5t-38.5 102.5q0 34 14 61t37 45.5t52.5 28t61.5 9.5q78 0 121.5 -44.5t43.5 -127.5zM837 199q37 0 57.5 18t20.5 52q0 36 -19.5 56t-54.5 20q-34 0 -55.5 -19t-21.5 -56q0 -38 21 -54.5t52 -16.5zM378 615q0 -34 -18 -56.5t-44 -36.5q14 -7 28.5 -17
t26.5 -24t19.5 -31.5t7.5 -39.5q0 -32 -14 -53.5t-37 -35.5t-52 -20t-59 -6q-32 0 -62 6t-53 20t-37 35.5t-14 53.5q0 41 25.5 69.5t56.5 42.5q-23 14 -42.5 37.5t-19.5 55.5q0 46 41 75.5t105 29.5q30 0 56 -8t45 -22t30 -33t11 -42zM313 416q0 29 -24.5 47t-54.5 27
q-31 -9 -54.5 -26.5t-23.5 -48.5q0 -23 20 -39.5t60 -16.5q37 0 57 16t20 41zM171 609q0 -26 20 -39t45 -21q10 3 21 8t20 12.5t14.5 17t5.5 22.5q0 19 -15.5 33t-45.5 14q-34 0 -49.5 -14t-15.5 -33z" />
    <glyph glyph-name="partialdiff" unicode="&#x2202;" horiz-adv-x="609" 
d="M103 675q71 44 176 44q78 0 132 -29t87 -79.5t48 -117t15 -141.5q0 -176 -65 -270t-208 -94q-40 0 -81.5 11t-75 38t-54.5 72.5t-21 114.5q0 62 21 108t55 76t78 44.5t91 14.5q48 0 85 -8.5t67 -23.5q-4 37 -15.5 72t-33.5 63t-55.5 45t-81.5 17q-41 0 -72.5 -8.5
t-65.5 -25.5q-9 18 -17 37.5t-9 39.5zM459 344q-44 22 -80 29.5t-71 7.5q-74 0 -110.5 -45t-36.5 -114q0 -42 11.5 -70.5t30.5 -46t43 -24.5t50 -7q48 0 79.5 20t50 55.5t26 85t7.5 109.5z" />
    <glyph glyph-name="Delta" unicode="&#x2206;" horiz-adv-x="603" 
d="M244 707q13 2 28 3t31 1q14 0 29 -1t29 -3l234 -707h-585zM460 89l-161 512l-159 -512h320z" />
    <glyph glyph-name="product" unicode="&#x220f;" horiz-adv-x="750" 
d="M144 618h-115q-2 10 -3 22t-1 23t1 22.5t3 21.5h692q2 -10 3 -21.5t1 -22.5t-1 -23t-3 -22h-114v-798q-23 -3 -50 -3q-28 0 -52 3v798h-259v-798q-24 -3 -52 -3t-50 3v798z" />
    <glyph glyph-name="summation" unicode="&#x2211;" horiz-adv-x="552" 
d="M21 -171l232 450l-216 419l6 9h470q2 -10 3 -22t1 -23t-1 -23t-3 -21h-324l176 -341l-193 -368h343q2 -10 3 -22t1 -23t-1 -23t-3 -21h-488z" />
    <glyph glyph-name="minus" unicode="&#x2212;" 
d="M512 398q2 -10 3 -22.5t1 -23.5t-1 -23.5t-3 -21.5h-424q-2 9 -2.5 21.5t-0.5 23.5t0.5 23.5t2.5 22.5h424z" />
    <glyph glyph-name="uni2215" unicode="&#x2215;" horiz-adv-x="410" 
d="M278 719q12 2 23.5 3t24.5 1q11 0 23.5 -1t25.5 -3l-244 -719q-12 -2 -24 -3t-25 -1q-11 0 -23 1t-24 3z" />
    <glyph glyph-name="uni2219" unicode="&#x2219;" horiz-adv-x="241" 
d="M66 221q-2 14 -3 27t-1 27t1 27.5t3 27.5q14 2 27 3t27 1t27.5 -1t27.5 -3q2 -14 3 -27t1 -27t-1 -27.5t-3 -27.5q-14 -2 -27 -3t-27 -1t-27.5 1t-27.5 3z" />
    <glyph glyph-name="radical" unicode="&#x221a;" 
d="M138 325h-85q-2 10 -3 21.5t-1 22.5t1 23t3 21h160l105 -311l198 603q12 2 26 2.5t27 0.5q12 0 26 -0.5t25 -2.5l-252 -705q-14 -2 -26.5 -3t-26.5 -1t-26.5 1t-26.5 3z" />
    <glyph glyph-name="infinity" unicode="&#x221e;" horiz-adv-x="792" 
d="M341 272q-22 29 -39.5 47.5t-32 29t-27 14t-24.5 3.5q-36 0 -59 -26.5t-23 -68.5q0 -43 23 -68.5t58 -25.5q13 0 26 3t27.5 13t31.5 29t39 50zM445 269q22 -29 40 -47.5t32.5 -29t27 -14t24.5 -3.5q36 0 59 26.5t23 68.5q0 43 -23 68.5t-58 25.5q-14 0 -27 -3t-27 -13
t-31.5 -29t-39.5 -50zM392 208q-52 -68 -95 -92.5t-83 -24.5q-35 0 -65 13t-52.5 37t-35 57t-12.5 73q0 39 13 72t35.5 57t53 37.5t65.5 13.5q42 0 85.5 -26.5t93.5 -90.5q52 66 94.5 91t83.5 25q35 0 65 -13t52.5 -37t35 -57t12.5 -73q0 -39 -13 -72t-35.5 -57t-53 -37.5
t-65.5 -13.5q-41 0 -85 26.5t-94 91.5z" />
    <glyph glyph-name="integral" unicode="&#x222b;" horiz-adv-x="369" 
d="M98 526q-5 98 45 145.5t141 47.5q25 0 44 -2t36 -7q-2 -25 -5.5 -43.5t-10.5 -37.5q-9 2 -22.5 4.5t-32.5 2.5q-22 0 -40.5 -4.5t-32 -17t-20 -34.5t-4.5 -57l30 -571q3 -51 -10.5 -88t-39.5 -60.5t-63 -34.5t-82 -11q-25 0 -39.5 2.5t-31.5 7.5q2 25 5.5 43t9.5 38
q10 -2 23.5 -4.5t32.5 -2.5q22 0 40.5 4.5t31.5 17t19.5 34.5t4.5 57z" />
    <glyph glyph-name="approxequal" unicode="&#x2248;" 
d="M79 443q20 24 56.5 42t76.5 18q22 0 44.5 -6.5t44.5 -14t44 -13.5t45 -6q21 0 41.5 7t44.5 30q16 -15 26.5 -33t16.5 -36q-23 -23 -54.5 -38t-73.5 -15q-22 0 -44.5 6t-45.5 13.5t-45 14t-42 6.5q-24 0 -45.5 -8t-46.5 -31q-31 28 -43 64zM81 266q20 25 56.5 42.5
t76.5 17.5q22 0 44.5 -6.5t44.5 -14t44 -13.5t45 -6q21 0 41.5 7t45.5 30q15 -15 25.5 -33t16.5 -36q-23 -23 -54.5 -38t-73.5 -15q-22 0 -44.5 6t-44.5 13.5t-44 14t-44 6.5q-24 0 -45.5 -8t-46.5 -31q-31 28 -43 64z" />
    <glyph glyph-name="notequal" unicode="&#x2260;" 
d="M330 490l62 130q10 2 18 3t16 1q9 0 18.5 -1t18.5 -3l-62 -130h111q2 -10 3 -22.5t1 -23.5t-1 -23.5t-3 -21.5h-153l-50 -103h203q2 -9 3 -21.5t1 -23.5t-1 -23.5t-3 -21.5h-245l-60 -126q-17 -3 -35 -3q-16 0 -35 3l60 126h-109q-2 9 -2.5 21t-0.5 23t0.5 24t2.5 22h151
l49 103h-200q-2 9 -2.5 21.5t-0.5 23.5t0.5 23.5t2.5 22.5h242z" />
    <glyph glyph-name="lessequal" unicode="&#x2264;" 
d="M505 590q5 -28 5 -46q0 -14 -1 -26.5t-3 -22.5l-328 -127l328 -122q2 -11 3 -23t1 -24q0 -15 -1 -28t-4 -25l-416 169q-6 25 -6 55q0 27 6 51zM512 92q2 -10 3 -22.5t1 -23.5t-1 -23.5t-3 -21.5h-424q-2 9 -2.5 21.5t-0.5 23.5t0.5 23.5t2.5 22.5h424z" />
    <glyph glyph-name="greaterequal" unicode="&#x2265;" 
d="M512 92q2 -10 3 -22.5t1 -23.5t-1 -23.5t-3 -21.5h-424q-2 9 -2.5 21.5t-0.5 23.5t0.5 23.5t2.5 22.5h424zM87 146q-2 14 -3 25.5t-1 20.5q0 14 1 26.5t3 22.5l327 127l-327 122q-3 11 -4 23.5t-1 23.5q0 16 1.5 29t3.5 24l417 -169l4 -26t2 -29q0 -27 -6 -51z" />
    <glyph glyph-name="lozenge" unicode="&#x25ca;" horiz-adv-x="539" 
d="M407 362l-136 270l-138 -270l137 -270zM30 362l191 361q12 2 25 3t24 1t24 -1t25 -3l190 -361l-191 -362q-12 -2 -25.5 -3t-24.5 -1t-23.5 1t-24.5 3z" />
    <glyph glyph-name="zero.alt" unicode="&#xf800;" horiz-adv-x="638" 
d="M318 -12q-67 0 -117.5 25t-85 69t-52 105.5t-17.5 133.5q0 73 17.5 134t52 105.5t86 69.5t118.5 25t117.5 -25t85 -69.5t52 -105.5t17.5 -134q0 -72 -18 -133.5t-52.5 -105.5t-85.5 -69t-118 -25zM319 76q75 0 120 60.5t45 184.5t-45 185t-120 61q-76 0 -121.5 -61
t-45.5 -185t45.5 -184.5t121.5 -60.5z" />
    <glyph glyph-name="one.alt" unicode="&#xf801;" horiz-adv-x="488" 
d="M79 449q-14 17 -22 34t-16 40l266 127h15v-565h143q3 -23 3 -42q0 -21 -3 -43h-391q-4 20 -4 43q0 22 4 42h150v430z" />
    <glyph glyph-name="two.alt" unicode="&#xf802;" horiz-adv-x="506" 
d="M21 0l-6 13l196 229q26 31 48.5 58.5t39 53.5t26 51t9.5 52q0 53 -34 81t-97 28q-48 0 -81 -11t-64 -25q-8 20 -15.5 41t-9.5 43q35 15 77.5 28t99.5 13q51 0 93 -11.5t72.5 -34.5t47 -58.5t16.5 -83.5q0 -67 -37 -130t-105 -140l-96 -109h265q2 -11 3 -22t1 -23
q0 -11 -1 -22t-3 -21h-445z" />
    <glyph glyph-name="three.alt" unicode="&#xf803;" horiz-adv-x="529" 
d="M193 15q38 0 71.5 8t58 26t39 46.5t14.5 69.5q0 62 -41 92t-107 30q-20 0 -40.5 -1.5t-40.5 -6.5l-8 14l167 263h-257q-4 20 -4 43q0 11 1 23t3 23h405l7 -12l-182 -277q3 1 7 1h8q47 0 81.5 -16.5t57 -43t33.5 -59t11 -64.5q0 -64 -22.5 -110.5t-60.5 -77t-89 -45
t-109 -14.5q-50 0 -94 8t-87 25q3 22 11.5 43t19.5 41q32 -13 67 -21t80 -8z" />
    <glyph glyph-name="four.alt" unicode="&#xf804;" horiz-adv-x="604" 
d="M40 78l-8 11l293 574q21 -2 43.5 -10.5t43.5 -22.5l-233 -464h202v190q12 2 24 3t23 1q13 0 25.5 -1t24.5 -3v-190h92q2 -11 3 -22t1 -22t-1 -22.5t-3 -21.5h-92v-137q-13 -2 -24.5 -2.5t-23.5 -0.5t-24.5 0.5t-24.5 2.5v137h-341z" />
    <glyph glyph-name="five.alt" unicode="&#xf805;" horiz-adv-x="534" 
d="M481 171q0 -63 -22 -109t-60.5 -76t-91 -44.5t-113.5 -14.5q-38 0 -81.5 7t-79.5 22q3 22 10 42.5t18 41.5q31 -11 61 -17.5t72 -6.5q87 0 134.5 36.5t47.5 113.5q0 28 -8.5 53t-27.5 43.5t-49.5 29t-74.5 10.5q-31 0 -61 -5t-53 -13l-10 9q3 88 6.5 175.5t7.5 176.5h340
q2 -11 2.5 -21.5t0.5 -21.5q0 -12 -0.5 -23.5t-2.5 -22.5h-250l-6 -178q19 4 38.5 5t30.5 1q50 0 91 -14t70 -41.5t45 -67t16 -90.5z" />
    <glyph glyph-name="six.alt" unicode="&#xf806;" horiz-adv-x="586" 
d="M53 277q0 88 22.5 166t69 139t118.5 99.5t171 46.5q8 -24 8 -46q0 -10 -1 -20t-3 -18q-63 -6 -111.5 -29.5t-83.5 -60.5t-56.5 -85.5t-30.5 -103.5q22 38 64.5 65.5t106.5 27.5q40 0 78.5 -13.5t68.5 -41.5t48 -71.5t18 -103.5q0 -59 -20.5 -104t-54.5 -75t-77.5 -45.5
t-89.5 -15.5q-57 0 -102.5 16.5t-77 51.5t-48.5 89.5t-17 131.5zM302 374q-29 0 -55 -10t-45 -29.5t-30 -47.5t-11 -64q0 -75 35.5 -112t98.5 -37q30 0 55.5 10t44.5 29t30 47t11 65q0 40 -10.5 68t-28.5 46t-42.5 26.5t-52.5 8.5z" />
    <glyph glyph-name="seven.alt" unicode="&#xf807;" horiz-adv-x="504" 
d="M191 -74q-27 6 -49.5 15.5t-43.5 26.5l256 588h-338q-2 10 -3 20.5t-1 21.5q0 12 1 24t3 23h475l4 -7z" />
    <glyph glyph-name="eight.alt" unicode="&#xf808;" horiz-adv-x="586" 
d="M392 381q26 -11 52.5 -27t48 -40t35 -56t13.5 -74q0 -53 -21 -90.5t-56 -61t-79.5 -34t-90.5 -10.5q-47 0 -91 10.5t-79 34t-56 61t-21 90.5q0 42 13.5 73.5t35 55.5t47.5 40.5t52 27.5q-48 23 -81.5 63.5t-33.5 101.5q0 39 16.5 71t45 54.5t67.5 35t85 12.5t85 -12.5
t67.5 -35t45 -54.5t16.5 -71q0 -62 -33.5 -102t-82.5 -63zM294 339q-30 -9 -56 -22.5t-44.5 -31.5t-29.5 -41t-11 -51q0 -56 36 -88t105 -32q70 0 105.5 32t35.5 88q0 28 -11 51t-30 41t-44.5 31.5t-55.5 22.5zM294 419q24 7 45 17.5t37 24.5t25.5 33.5t9.5 44.5
q0 45 -29.5 72t-87.5 27t-87.5 -27t-29.5 -72q0 -25 9.5 -44.5t25.5 -33.5t37.5 -24.5t44.5 -17.5z" />
    <glyph glyph-name="nine.alt" unicode="&#xf809;" horiz-adv-x="586" 
d="M532 364q0 -88 -22.5 -166t-69 -139t-118.5 -99.5t-171 -46.5q-8 19 -8 47q0 8 1 18.5t3 19.5q61 5 110.5 28.5t85.5 60.5t57.5 85.5t27.5 103.5q-21 -38 -63.5 -66t-106.5 -28q-41 0 -79 13.5t-68 41.5t-48 71.5t-18 103.5q0 59 20.5 104t54.5 75.5t77.5 46t89.5 15.5
q57 0 102.5 -16.5t77 -51.5t48.5 -90t17 -131zM283 267q29 0 55 10t45 29.5t30 47.5t11 63q0 75 -35.5 112.5t-98.5 37.5q-60 0 -100.5 -38.5t-40.5 -113.5q0 -40 10.5 -68t28.5 -46t42.5 -26t52.5 -8z" />
    <glyph glyph-name="zero.sups" unicode="&#xf80a;" horiz-adv-x="450" 
d="M323 627q0 66 -22.5 102.5t-73.5 36.5q-49 0 -72.5 -36.5t-23.5 -102.5q0 -67 22.5 -103.5t73.5 -36.5q49 0 72.5 36.5t23.5 103.5zM39 627q0 43 11.5 81.5t34.5 67.5t58.5 46t83.5 17t83 -17t58.5 -46t35 -67.5t11.5 -81.5q0 -44 -11.5 -82.5t-35 -67t-58.5 -45.5
t-83 -17t-83.5 17t-58.5 45.5t-34.5 67t-11.5 82.5z" />
    <glyph glyph-name="one.sups" unicode="&#xf80b;" horiz-adv-x="450" 
d="M112 688q-13 13 -20.5 29t-12.5 35l193 79h17v-334h93q4 -17 4 -35q0 -19 -4 -36h-273q-3 9 -4 17t-1 19q0 9 1 17.5t4 17.5h96v229z" />
    <glyph glyph-name="two.sups" unicode="&#xf80c;" horiz-adv-x="450" 
d="M227 498h153q1 -8 1.5 -17t0.5 -19t-0.5 -19t-1.5 -17h-309l-5 12q32 34 68 70.5t66 71t49.5 65.5t19.5 56q0 32 -24 43.5t-59 11.5q-30 0 -49 -5t-36 -12q-5 13 -10.5 31.5t-8.5 39.5q31 11 58 16.5t60 5.5q71 0 114 -32t43 -92q0 -45 -23 -85.5t-68 -85.5z" />
    <glyph glyph-name="three.sups" unicode="&#xf80d;" horiz-adv-x="450" 
d="M361 827l8 -15l-98 -142q27 -3 47.5 -14.5t34 -27t20.5 -34.5t7 -37q0 -34 -14 -60.5t-38.5 -45t-58.5 -28t-73 -9.5q-18 0 -32.5 1t-28 3t-27 5t-30.5 8q2 18 7.5 36t12.5 32q26 -8 49 -12.5t46 -4.5q41 0 70.5 17.5t29.5 55.5q0 32 -26 47t-59 15q-10 0 -19 -0.5
t-20 -3.5l-11 12l87 133h-140q-3 18 -3 34q0 17 3 35h256z" />
    <glyph glyph-name="four.sups" unicode="&#xf80e;" horiz-adv-x="450" 
d="M165 574h98v79q18 3 39 3q20 0 40 -3v-79h48q2 -8 3 -17t1 -20q0 -22 -4 -34h-48v-77q-20 -3 -38 -3q-22 0 -41 3v77h-208l-8 13l164 325q40 -5 73 -24z" />
    <glyph glyph-name="five.sups" unicode="&#xf80f;" horiz-adv-x="450" 
d="M374 560q0 -38 -14.5 -65.5t-40.5 -45.5t-61.5 -26.5t-77.5 -8.5h-10q-53 2 -102 18q2 19 6 36t15 34q48 -17 92 -17q50 0 78 17t28 56q0 24 -20.5 43t-72.5 19q-20 0 -37 -2.5t-40 -9.5l-11 10l10 208h236q2 -7 2.5 -16t0.5 -17q0 -10 -1 -19t-3 -17h-160l-5 -75
q8 2 17 3t19 1q69 0 110.5 -33t41.5 -93z" />
    <glyph glyph-name="six.sups" unicode="&#xf810;" horiz-adv-x="450" 
d="M67 585q0 50 15.5 95t47 79.5t77.5 56t108 25.5q4 -8 5.5 -18t2.5 -20v-15t-1 -14q-60 -5 -105 -35.5t-62 -86.5q17 16 41.5 29t66.5 13q57 0 95.5 -34.5t38.5 -102.5q0 -35 -14 -62t-37 -45t-52.5 -27.5t-61.5 -9.5q-78 0 -121.5 44.5t-43.5 127.5zM237 628
q-37 0 -57.5 -18t-20.5 -52q0 -37 19.5 -56.5t54.5 -19.5q34 0 56 18.5t22 56.5t-21.5 54.5t-52.5 16.5z" />
    <glyph glyph-name="seven.sups" unicode="&#xf811;" horiz-adv-x="450" 
d="M91 757q-2 7 -2.5 16t-0.5 18q0 19 3 36h302l6 -9l-186 -401q-22 4 -40 12t-38 19l146 309h-190z" />
    <glyph glyph-name="eight.sups" unicode="&#xf812;" horiz-adv-x="450" 
d="M378 735q0 -34 -18 -56.5t-44 -36.5q14 -7 28.5 -17t26.5 -24t19.5 -31.5t7.5 -39.5q0 -32 -14 -53.5t-37 -35.5t-52 -20t-59 -6q-32 0 -62 6t-53 20t-37 35.5t-14 53.5q0 41 25.5 69.5t56.5 42.5q-23 14 -42.5 37.5t-19.5 55.5q0 46 41 75.5t105 29.5q30 0 56 -8t45 -22
t30 -33t11 -42zM313 536q0 29 -24.5 47t-54.5 27q-31 -9 -54.5 -26.5t-23.5 -48.5q0 -23 20 -39.5t60 -16.5q37 0 57 16t20 41zM171 729q0 -26 20 -39t45 -21q10 3 21 8t20 12.5t14.5 17t5.5 22.5q0 19 -15.5 33t-45.5 14q-34 0 -49.5 -14t-15.5 -33z" />
    <glyph glyph-name="nine.sups" unicode="&#xf813;" horiz-adv-x="450" 
d="M388 667q0 -50 -15.5 -95t-47 -79.5t-78 -56t-107.5 -25.5q-4 8 -5.5 17.5t-2.5 20.5v14.5t1 14.5q60 5 105 35.5t62 86.5q-17 -16 -41.5 -29t-66.5 -13q-57 0 -95.5 34.5t-38.5 102.5q0 34 14 61t37 45.5t52.5 28t61.5 9.5q78 0 121.5 -44.5t43.5 -127.5zM218 624
q37 0 57.5 18t20.5 52q0 36 -19.5 56t-54.5 20q-34 0 -55.5 -19t-21.5 -56q0 -38 21 -54.5t52 -16.5z" />
    <glyph glyph-name="zero.sinf" unicode="&#xf814;" horiz-adv-x="450" 
d="M323 82q0 66 -22.5 102.5t-73.5 36.5q-49 0 -72.5 -36.5t-23.5 -102.5q0 -67 22.5 -103.5t73.5 -36.5q49 0 72.5 36.5t23.5 103.5zM39 82q0 43 11.5 81.5t34.5 67.5t58.5 46t83.5 17t83 -17t58.5 -46t35 -67.5t11.5 -81.5q0 -44 -11.5 -82.5t-35 -67t-58.5 -45.5t-83 -17
t-83.5 17t-58.5 45.5t-34.5 67t-11.5 82.5z" />
    <glyph glyph-name="one.sinf" unicode="&#xf815;" horiz-adv-x="450" 
d="M112 143q-13 13 -20.5 29t-12.5 35l193 79h17v-334h93q4 -17 4 -35q0 -19 -4 -36h-273q-3 9 -4 17t-1 19q0 9 1 17.5t4 17.5h96v229z" />
    <glyph glyph-name="two.sinf" unicode="&#xf816;" horiz-adv-x="450" 
d="M227 -47h153q1 -8 1.5 -17t0.5 -19t-0.5 -19t-1.5 -17h-309l-5 12q32 34 68 70.5t66 71t49.5 65.5t19.5 56q0 32 -24 43.5t-59 11.5q-30 0 -49 -5t-36 -12q-5 13 -10.5 31.5t-8.5 39.5q31 11 58 16.5t60 5.5q71 0 114 -32t43 -92q0 -45 -23 -85.5t-68 -85.5z" />
    <glyph glyph-name="three.sinf" unicode="&#xf817;" horiz-adv-x="450" 
d="M361 282l8 -15l-98 -142q27 -3 47.5 -14.5t34 -27t20.5 -34.5t7 -37q0 -34 -14 -60.5t-38.5 -45t-58.5 -28t-73 -9.5q-18 0 -32.5 1t-28 3t-27 5t-30.5 8q2 18 7.5 36t12.5 32q26 -8 49 -12.5t46 -4.5q41 0 70.5 17.5t29.5 55.5q0 32 -26 47t-59 15q-10 0 -19 -0.5
t-20 -3.5l-11 12l87 133h-140q-3 18 -3 34q0 17 3 35h256z" />
    <glyph glyph-name="four.sinf" unicode="&#xf818;" horiz-adv-x="450" 
d="M165 29h98v79q18 3 39 3q20 0 40 -3v-79h48q2 -8 3 -17t1 -20q0 -22 -4 -34h-48v-77q-20 -3 -38 -3q-22 0 -41 3v77h-208l-8 13l164 325q40 -5 73 -24z" />
    <glyph glyph-name="five.sinf" unicode="&#xf819;" horiz-adv-x="450" 
d="M374 15q0 -38 -14.5 -65.5t-40.5 -45.5t-61.5 -26.5t-77.5 -8.5h-10q-53 2 -102 18q2 19 6 36t15 34q48 -17 92 -17q50 0 78 17t28 56q0 24 -20.5 43t-72.5 19q-20 0 -37 -2.5t-40 -9.5l-11 10l10 208h236q2 -7 2.5 -16t0.5 -17q0 -10 -1 -19t-3 -17h-160l-5 -75
q8 2 17 3t19 1q69 0 110.5 -33t41.5 -93z" />
    <glyph glyph-name="six.sinf" unicode="&#xf81a;" horiz-adv-x="450" 
d="M67 40q0 50 15.5 95t47 79.5t77.5 56t108 25.5q4 -8 5.5 -18t2.5 -20v-15t-1 -14q-60 -5 -105 -35.5t-62 -86.5q17 16 41.5 29t66.5 13q57 0 95.5 -34.5t38.5 -102.5q0 -35 -14 -62t-37 -45t-52.5 -27.5t-61.5 -9.5q-78 0 -121.5 44.5t-43.5 127.5zM237 83
q-37 0 -57.5 -18t-20.5 -52q0 -37 19.5 -56.5t54.5 -19.5q34 0 56 18.5t22 56.5t-21.5 54.5t-52.5 16.5z" />
    <glyph glyph-name="seven.sinf" unicode="&#xf81b;" horiz-adv-x="450" 
d="M91 212q-2 7 -2.5 16t-0.5 18q0 19 3 36h302l6 -9l-186 -401q-22 4 -40 12t-38 19l146 309h-190z" />
    <glyph glyph-name="eight.sinf" unicode="&#xf81c;" horiz-adv-x="450" 
d="M378 190q0 -34 -18 -56.5t-44 -36.5q14 -7 28.5 -17t26.5 -24t19.5 -31.5t7.5 -39.5q0 -32 -14 -53.5t-37 -35.5t-52 -20t-59 -6q-32 0 -62 6t-53 20t-37 35.5t-14 53.5q0 41 25.5 69.5t56.5 42.5q-23 14 -42.5 37.5t-19.5 55.5q0 46 41 75.5t105 29.5q30 0 56 -8t45 -22
t30 -33t11 -42zM313 -9q0 29 -24.5 47t-54.5 27q-31 -9 -54.5 -26.5t-23.5 -48.5q0 -23 20 -39.5t60 -16.5q37 0 57 16t20 41zM171 184q0 -26 20 -39t45 -21q10 3 21 8t20 12.5t14.5 17t5.5 22.5q0 19 -15.5 33t-45.5 14q-34 0 -49.5 -14t-15.5 -33z" />
    <glyph glyph-name="nine.sinf" unicode="&#xf81d;" horiz-adv-x="450" 
d="M388 122q0 -50 -15.5 -95t-47 -79.5t-78 -56t-107.5 -25.5q-4 8 -5.5 17.5t-2.5 20.5v14.5t1 14.5q60 5 105 35.5t62 86.5q-17 -16 -41.5 -29t-66.5 -13q-57 0 -95.5 34.5t-38.5 102.5q0 34 14 61t37 45.5t52.5 28t61.5 9.5q78 0 121.5 -44.5t43.5 -127.5zM218 79
q37 0 57.5 18t20.5 52q0 36 -19.5 56t-54.5 20q-34 0 -55.5 -19t-21.5 -56q0 -38 21 -54.5t52 -16.5z" />
    <glyph glyph-name="hungarumlaut.cap" horiz-adv-x="500" 
d="M154 778q-12 -2 -26 -3t-29 -1q-11 0 -23 1t-26 3l100 110q16 3 32 3.5t30 0.5t29 -1t31 -3zM359 778q-11 -2 -25.5 -3t-28.5 -1q-11 0 -23 1t-26 3l99 110q17 3 32.5 3.5t29.5 0.5t29.5 -1t31.5 -3z" />
    <glyph glyph-name="cedilla.cap" horiz-adv-x="500" 
d="M239 -54q5 1 9.5 1h9.5q55 0 80.5 -26t25.5 -63q0 -49 -39 -74t-107 -25q-15 0 -37 2t-43 10q1 14 3.5 30t11.5 30q33 -12 63 -12q70 0 70 40q0 18 -17 26t-47 8q-14 0 -28 -2t-29 -6l-8 8l50 132h65z" />
    <glyph glyph-name="tilde.cap" horiz-adv-x="500" 
d="M68 859q16 18 42 34.5t59 16.5q21 0 42 -8t41 -17t39.5 -17t39.5 -8q19 0 33.5 7.5t34.5 26.5q23 -28 33 -59q-17 -17 -42.5 -32.5t-57.5 -15.5q-22 0 -43 7.5t-41 17t-39.5 17t-38.5 7.5q-21 0 -35.5 -8.5t-33.5 -25.5q-11 14 -20 27.5t-13 29.5z" />
    <glyph glyph-name="ogonek.cap" horiz-adv-x="500" 
d="M321 0q-36 -25 -61 -57.5t-25 -66.5q0 -23 14 -36.5t42 -13.5q9 0 22 2t30 7q8 -13 11.5 -31.5t3.5 -33.5q-14 -5 -35 -8.5t-51 -3.5q-24 0 -47 5.5t-41.5 17.5t-30 31t-11.5 47q0 37 24 74.5t64 66.5h91z" />
    <glyph glyph-name="ring.cap" horiz-adv-x="504" 
d="M135 849q0 25 8.5 46t24.5 36t37 23.5t47 8.5q25 0 46.5 -8.5t37.5 -23.5t24.5 -36t8.5 -46t-8.5 -46t-24.5 -36.5t-37.5 -24t-46.5 -8.5q-26 0 -47 8.5t-37 24t-24.5 36.5t-8.5 46zM252 786q26 0 40 17t14 46q0 28 -14 45t-40 17t-40 -17t-14 -45q0 -29 14 -46t40 -17z
" />
    <glyph glyph-name="caron.cap" horiz-adv-x="498" 
d="M74 887q9 1 20 2.5t21 1.5h22q11 0 24.5 -1.5t21.5 -2.5q17 -16 33 -31t32 -31l65 62q9 1 23 2.5t24 1.5h23q10 0 20.5 -1.5t20.5 -2.5l-118 -108q-11 -2 -26 -3t-32 -1t-31.5 1t-27.5 3z" />
    <glyph glyph-name="macron.cap" horiz-adv-x="500" 
d="M410 869q2 -8 2.5 -18.5t0.5 -19.5t-0.5 -19t-2.5 -18h-319q-2 8 -3 18t-1 19t1 19.5t3 18.5h319z" />
    <glyph glyph-name="dieresis.cap" horiz-adv-x="500" 
d="M90 789q-3 25 -3 50t3 51q14 2 27 3t25 1q13 0 27 -1t26 -3q4 -23 4 -50q0 -28 -4 -51q-12 -2 -25.5 -3t-26.5 -1q-12 0 -25.5 1t-27.5 3zM305 789q-2 13 -3.5 25t-1.5 25q0 23 5 51q12 2 25.5 3t26.5 1q12 0 25.5 -1t27.5 -3q3 -26 3 -50q0 -26 -3 -51q-14 -2 -27 -3
t-26 -1q-12 0 -26 1t-26 3z" />
    <glyph glyph-name="dotaccent.cap" horiz-adv-x="307" 
d="M99 788q-4 23 -4 51q0 13 1 26t3 26q14 3 27.5 4t26.5 1t27 -1t28 -4q4 -23 4 -51q0 -13 -1 -26t-3 -26q-14 -3 -27.5 -4t-26.5 -1t-27 1t-28 4z" />
    <glyph glyph-name="circumflex.cap" horiz-adv-x="498" 
d="M423 779q-9 -2 -20 -3t-21 -1h-22q-11 0 -24.5 1t-21.5 3l-65 61l-65 -61q-9 -2 -23 -3t-24 -1h-23q-10 0 -20.5 1t-20.5 3l118 108q11 2 26 3t32 1t31.5 -1t27.5 -3z" />
    <glyph glyph-name="acute.cap" horiz-adv-x="500" 
d="M235 779q-13 -2 -27 -3t-28 -1t-26 1t-26 3l106 108q16 2 34 3.5t36 1.5q19 0 36 -1.5t31 -3.5z" />
    <glyph glyph-name="grave.cap" horiz-adv-x="500" 
d="M128 887q14 2 31.5 3.5t35.5 1.5t36.5 -1.5t34.5 -3.5l105 -108q-23 -4 -51 -4q-14 0 -28 1t-27 3z" />
    <glyph glyph-name="breve.cap" horiz-adv-x="498" 
d="M249 773q-23 0 -50.5 4t-52 17t-42.5 36t-22 61q11 2 21.5 3.5t21.5 1.5q12 0 23 -1.5t22 -3.5q3 -22 20 -38t59 -16t59 16t20 38q25 5 46 5q11 0 21 -1.5t22 -3.5q-4 -38 -22.5 -61t-43 -36t-52 -17t-50.5 -4z" />
    <glyph glyph-name="commaaccent.cap" horiz-adv-x="500" 
d="M263 -238q-23 -5 -43 -5q-11 0 -21.5 1.5t-22.5 3.5l45 173q11 2 24 3t25 1h10q11 0 21.5 -1t21.5 -3z" />
    <glyph glyph-name="caron.alt" horiz-adv-x="500" 
d="M203 733q16 4 46 4q12 0 24.5 -1t23.5 -3l-14 -203q-8 -2 -18 -3t-20 -1t-20.5 1t-21.5 3v203z" />
    <glyph glyph-name="commaaccent" horiz-adv-x="500" 
d="M263 -238q-11 -2 -20.5 -3.5t-20.5 -1.5t-22 1.5t-22 3.5l44 173q9 1 19 2.5t21 1.5h20q10 0 19 -1t20 -3z" />
    <glyph glyph-name="revcommaaccent" horiz-adv-x="500" 
d="M266 579q-13 -3 -25 -4t-24 -1q-14 0 -27.5 1t-28.5 4l83 143q12 2 23.5 3t23.5 1q26 0 49 -4z" />
    <glyph glyph-name="a.smcp" unicode="&#xf605;" horiz-adv-x="524" 
d="M205 548q14 2 30.5 3t28.5 1q11 0 27 -1t28 -3l197 -548q-8 -2 -25 -3t-26 -1q-14 0 -28 1t-27 3l-38 114h-225l-36 -114q-13 -2 -28 -3t-28 -1q-11 0 -23.5 1t-24.5 3zM348 193l-89 272l-88 -272h177z" />
    <glyph glyph-name="b.smcp" unicode="&#xf606;" horiz-adv-x="522" 
d="M85 548q26 4 65 6.5t83 2.5q47 0 87 -8.5t68.5 -26t44.5 -43.5t16 -62q0 -52 -29 -85.5t-69 -42.5q24 -3 47.5 -12.5t42 -26.5t30 -41.5t11.5 -57.5q0 -44 -17.5 -74.5t-49 -50t-74.5 -28t-93 -8.5q-17 0 -37.5 0.5t-42 2l-43 3t-40.5 4.5v548zM181 73q13 -2 34 -3t37 -1
q27 0 51 4.5t41.5 15t27.5 27.5t10 41q0 47 -36 69t-96 22h-69v-175zM246 324q53 0 80.5 22.5t27.5 60.5q0 39 -31 58t-91 19q-13 0 -27.5 -0.5t-23.5 -2.5v-157h65z" />
    <glyph glyph-name="c.smcp" unicode="&#xf607;" horiz-adv-x="507" 
d="M434 457q-26 9 -49.5 14t-59.5 5q-44 0 -75.5 -15.5t-51.5 -42.5t-29.5 -64t-9.5 -79q0 -92 43.5 -146.5t128.5 -54.5q32 0 58 5.5t52 16.5q10 -20 16.5 -39t8.5 -39q-38 -17 -72.5 -22.5t-75.5 -5.5q-66 0 -115.5 21.5t-82.5 59.5t-49.5 90t-16.5 114q0 61 17.5 113
t51.5 90.5t83 60t112 21.5q40 0 74.5 -6.5t64.5 -18.5q-2 -19 -7.5 -37t-15.5 -41z" />
    <glyph glyph-name="d.smcp" unicode="&#xf608;" horiz-adv-x="594" 
d="M85 548q15 1 34.5 3t40.5 3l42 2t39 1q74 0 130.5 -20t94 -57t56.5 -88.5t19 -114.5q0 -134 -77 -210.5t-229 -76.5q-39 0 -80 2.5t-70 7.5v548zM183 79q11 -2 28.5 -3.5t32.5 -1.5q43 0 79 11.5t61.5 36t40 63t14.5 93.5q0 49 -14.5 85.5t-40 60.5t-61 36t-78.5 12
q-13 0 -31 -1t-31 -3v-389z" />
    <glyph glyph-name="e.smcp" unicode="&#xf609;" horiz-adv-x="489" 
d="M85 548h352q2 -11 3 -20.5t1 -20.5t-1 -22t-3 -22h-255v-134h208q4 -20 4 -42q0 -24 -4 -43h-208v-160h261q4 -19 4 -42q0 -11 -1 -21.5t-3 -20.5h-358v548z" />
    <glyph glyph-name="f.smcp" unicode="&#xf60a;" horiz-adv-x="473" 
d="M85 548h351q3 -21 3 -41q0 -23 -3 -44h-253v-151h206q2 -11 3 -21t1 -21t-1 -21.5t-3 -21.5h-206v-227q-12 -2 -24 -3t-24 -1t-24.5 1t-25.5 3v548z" />
    <glyph glyph-name="g.smcp" unicode="&#xf60b;" horiz-adv-x="561" 
d="M404 281q25 3 49 3t48 -3v-262q-38 -16 -82 -22.5t-85 -6.5q-66 0 -118 18t-88.5 54t-56 89.5t-19.5 123.5q0 61 19 113t54.5 90.5t86.5 60t115 21.5q81 0 145 -25q-2 -18 -7.5 -36t-15.5 -41q-26 8 -50.5 13t-61.5 5q-47 0 -81 -15.5t-56.5 -42.5t-33.5 -64t-11 -79
q0 -98 47.5 -149t136.5 -51q17 0 34 1.5t31 5.5v199z" />
    <glyph glyph-name="h.smcp" unicode="&#xf60c;" horiz-adv-x="613" 
d="M85 548q12 2 24.5 3t24.5 1q13 0 25.5 -1t23.5 -3v-224h247v224q11 2 23.5 3t24.5 1q13 0 26 -1t24 -3v-548q-11 -2 -24 -3t-25 -1t-24.5 1t-24.5 3v238h-247v-238q-11 -2 -23.5 -3t-24.5 -1q-14 0 -26.5 1t-23.5 3v548z" />
    <glyph glyph-name="i.smcp" unicode="&#xf60d;" horiz-adv-x="268" 
d="M85 548q12 2 24.5 3t24.5 1q13 0 25.5 -1t23.5 -3v-548q-11 -2 -23.5 -3t-24.5 -1q-14 0 -26.5 1t-23.5 3v548z" />
    <glyph glyph-name="j.smcp" unicode="&#xf60e;" horiz-adv-x="370" 
d="M195 464h-119q-3 18 -3 42q0 23 3 41h215v-367q0 -101 -45 -145.5t-129 -44.5q-17 0 -40.5 3t-40.5 8q0 14 2.5 35.5t10.5 44.5q11 -3 25.5 -5t27.5 -2q20 0 37 3t29.5 13t19.5 27.5t7 47.5v299z" />
    <glyph glyph-name="k.smcp" unicode="&#xf60f;" horiz-adv-x="548" 
d="M208 279l197 269q15 2 28 3t24 1q14 0 28.5 -1.5t29.5 -2.5l-197 -262l217 -286q-14 -2 -29 -3t-29 -1q-12 0 -26 0.5t-29 3.5zM85 548q12 2 24.5 3t25.5 1q12 0 24 -1t24 -3v-548q-12 -2 -24 -3t-25 -1q-11 0 -24 1t-25 3v548z" />
    <glyph glyph-name="l.smcp" unicode="&#xf610;" horiz-adv-x="440" 
d="M85 548q11 2 23.5 3t25.5 1q12 0 24.5 -1t23.5 -3v-463h240q3 -23 3 -42q0 -21 -3 -43h-337v548z" />
    <glyph glyph-name="m.smcp" unicode="&#xf611;" horiz-adv-x="717" 
d="M91 548q13 2 26.5 3t27.5 1t27 -1t26 -3l155 -349l159 349q10 2 23.5 3t27.5 1q13 0 27 -1t25 -3l29 -548q-12 -2 -24 -3t-24 -1t-23.5 1t-21.5 3l-20 405l-142 -302q-19 -4 -43 -4q-21 0 -38 4l-137 304l-18 -407q-11 -2 -21.5 -3t-21.5 -1q-12 0 -23.5 1t-21.5 3z" />
    <glyph glyph-name="n.smcp" unicode="&#xf612;" horiz-adv-x="617" 
d="M85 547q11 2 22 3t22 1q25 0 45 -4l269 -395v395q10 2 20.5 3t24.5 1q17 0 27 -1t16 -3v-547q-9 -2 -20.5 -3t-20.5 -1q-26 0 -46 4l-270 392v-392q-11 -2 -22 -3t-23 -1q-11 0 -22.5 1t-21.5 3v547z" />
    <glyph glyph-name="o.smcp" unicode="&#xf613;" horiz-adv-x="604" 
d="M302 -12q-59 0 -105.5 21.5t-78.5 59.5t-49 90t-17 114t17 114.5t49 91t78.5 60t105.5 21.5t105.5 -21.5t78.5 -60t49 -91t17 -114.5t-17 -114t-49 -90t-78.5 -59.5t-105.5 -21.5zM302 71q69 0 108 53.5t39 148.5q0 97 -39 149.5t-108 52.5t-108.5 -52.5t-39.5 -149.5
q0 -95 39.5 -148.5t108.5 -53.5z" />
    <glyph glyph-name="p.smcp" unicode="&#xf614;" horiz-adv-x="514" 
d="M85 548q31 4 70.5 7t80.5 3q49 0 92.5 -10t76 -32.5t51 -58.5t18.5 -89t-19.5 -91t-52.5 -63t-76 -37t-89 -12h-27.5t-26.5 2v-167q-23 -4 -48 -4q-11 0 -24.5 1t-25.5 3v548zM183 250q25 -3 48 -3q67 0 105 27t38 93q0 53 -34.5 80.5t-99.5 27.5q-36 0 -57 -3v-222z" />
    <glyph glyph-name="q.smcp" unicode="&#xf615;" horiz-adv-x="611" 
d="M583 -54q-1 -23 -3.5 -41t-10.5 -39l-196 36q3 44 17 78zM305 -12q-59 0 -105 21.5t-78 59.5t-49 90t-17 114t17 114.5t49 91t78 60t105 21.5t105.5 -21.5t78.5 -60t49 -91t17 -114.5t-17 -114t-49 -90t-78.5 -59.5t-105.5 -21.5zM305 71q69 0 108.5 53.5t39.5 148.5
q0 97 -39.5 149.5t-108.5 52.5t-108 -52.5t-39 -149.5q0 -95 39 -148.5t108 -53.5z" />
    <glyph glyph-name="r.smcp" unicode="&#xf616;" horiz-adv-x="527" 
d="M85 548q37 5 74 7.5t76 2.5q47 0 88.5 -10t73 -30.5t49.5 -53t18 -77.5q0 -33 -9.5 -58.5t-24.5 -44t-34 -32.5t-38 -24q-3 -2 -6 -3t-6 -3l163 -222q-12 -2 -26.5 -2h-30.5h-27t-26 2l-180 244v4q24 8 49.5 18.5t47 25.5t35.5 36t14 51q0 46 -35 72t-93 26
q-14 0 -27.5 -1t-27.5 -3v-473q-23 -3 -47 -3q-25 0 -50 3v548z" />
    <glyph glyph-name="s.smcp" unicode="&#xf617;" horiz-adv-x="467" 
d="M44 19q2 20 8 40.5t14 40.5q29 -11 65.5 -20t71.5 -9q66 0 93.5 23t27.5 58q0 33 -20 51.5t-55 31.5l-57 21q-36 13 -61 27t-41.5 31t-24 39t-7.5 51q0 33 12.5 61t37 49t60.5 33t82 12q35 0 77.5 -7.5t75.5 -21.5q-2 -19 -7.5 -39.5t-13.5 -38.5q-25 11 -61 19.5
t-66 8.5q-50 0 -74 -18t-24 -49t19 -45t50 -26l71 -28q26 -10 49 -22.5t40.5 -30t27.5 -41.5t10 -57q0 -38 -14.5 -70t-43 -55t-69.5 -36t-95 -13q-46 0 -84.5 8t-73.5 22z" />
    <glyph glyph-name="t.smcp" unicode="&#xf618;" horiz-adv-x="477" 
d="M189 464h-173q-4 17 -4 42q0 11 1 21t3 20h445q3 -20 3 -41q0 -23 -3 -42h-174v-464h-24q-3 -1 -7 -1h-7h-30.5t-29.5 1v464z" />
    <glyph glyph-name="u.smcp" unicode="&#xf619;" horiz-adv-x="594" 
d="M73 548q25 3 50 3q24 0 48 -3v-270q0 -106 28.5 -154.5t97.5 -48.5q70 0 98 48.5t28 154.5v269q14 2 26 3t23 1q25 0 49 -3v-290q0 -62 -12 -112t-39 -84.5t-69.5 -53t-103.5 -18.5t-103.5 18.5t-69.5 53t-39 84.5t-12 112v290z" />
    </font>
</defs>
</svg>
