<?xml version="1.0" encoding="UTF-8" standalone="no"?>
<!-- Generator: Adobe Illustrator 19.0.0, SVG Export Plug-In . SVG Version: 6.00 Build 0)  -->

<svg
   xmlns:dc="http://purl.org/dc/elements/1.1/"
   xmlns:cc="http://creativecommons.org/ns#"
   xmlns:rdf="http://www.w3.org/1999/02/22-rdf-syntax-ns#"
   xmlns:svg="http://www.w3.org/2000/svg"
   xmlns="http://www.w3.org/2000/svg"
   xmlns:sodipodi="http://sodipodi.sourceforge.net/DTD/sodipodi-0.dtd"
   xmlns:inkscape="http://www.inkscape.org/namespaces/inkscape"
   version="1.1"
   id="Capa_1"
   x="0px"
   y="0px"
   viewBox="0 0 60 60"
   style="enable-background:new 0 0 60 60;"
   xml:space="preserve"
   width="512px"
   height="512px"
   inkscape:version="0.91 r13725"
   sodipodi:docname="camera.svg"><metadata
     id="metadata4181"><rdf:RDF><cc:Work
         rdf:about=""><dc:format>image/svg+xml</dc:format><dc:type
           rdf:resource="http://purl.org/dc/dcmitype/StillImage" /></cc:Work></rdf:RDF></metadata><defs
     id="defs4179" /><sodipodi:namedview
     pagecolor="#ffffff"
     bordercolor="#666666"
     borderopacity="1"
     objecttolerance="10"
     gridtolerance="10"
     guidetolerance="10"
     inkscape:pageopacity="0"
     inkscape:pageshadow="2"
     inkscape:window-width="1366"
     inkscape:window-height="768"
     id="namedview4177"
     showgrid="false"
     inkscape:zoom="0.83002183"
     inkscape:cx="263.37296"
     inkscape:cy="293.85845"
     inkscape:window-x="0"
     inkscape:window-y="0"
     inkscape:window-maximized="0"
     inkscape:current-layer="g4137" /><g
     id="g4137"><path
       style="fill:#e6e3c6;fill-rule:evenodd;stroke:none;stroke-width:0.1171875px;stroke-linecap:butt;stroke-linejoin:miter;stroke-opacity:1;fill-opacity:1"
       d="m 2.9649069,16.373511 11.0125111,0 4.235582,-10.1653946 23.295697,0 4.800326,10.5889536 10.024209,0 2.258977,1.553046 0.282373,32.613977 -2.400163,2.541349 L 4.0943953,53.787814 0.56474419,50.681721 1.2706744,19.761977 Z"
       id="path4199"
       inkscape:connector-curvature="0" /><path
       d="M55.201,15.5h-8.524l-4-10H17.323l-4,10H12v-5H6v5H4.799C2.152,15.5,0,17.652,0,20.299v29.368   C0,52.332,2.168,54.5,4.833,54.5h50.334c2.665,0,4.833-2.168,4.833-4.833V20.299C60,17.652,57.848,15.5,55.201,15.5z M8,12.5h2v3H8   V12.5z M58,49.667c0,1.563-1.271,2.833-2.833,2.833H4.833C3.271,52.5,2,51.229,2,49.667V20.299C2,18.756,3.256,17.5,4.799,17.5H6h6   h2.677l4-10h22.646l4,10h9.878c1.543,0,2.799,1.256,2.799,2.799V49.667z"
       fill="#303030"
       id="path4139"
       style="stroke:none;stroke-opacity:1" /><path
       d="M30,14.5c-9.925,0-18,8.075-18,18s8.075,18,18,18s18-8.075,18-18S39.925,14.5,30,14.5z M30,48.5c-8.822,0-16-7.178-16-16   s7.178-16,16-16s16,7.178,16,16S38.822,48.5,30,48.5z"
       fill="#303030"
       id="path4141" /><path
       d="M30,20.5c-6.617,0-12,5.383-12,12s5.383,12,12,12s12-5.383,12-12S36.617,20.5,30,20.5z M30,42.5c-5.514,0-10-4.486-10-10   s4.486-10,10-10s10,4.486,10,10S35.514,42.5,30,42.5z"
       fill="#303030"
       id="path4143" /><path
       d="M52,19.5c-2.206,0-4,1.794-4,4s1.794,4,4,4s4-1.794,4-4S54.206,19.5,52,19.5z M52,25.5c-1.103,0-2-0.897-2-2s0.897-2,2-2   s2,0.897,2,2S53.103,25.5,52,25.5z"
       fill="#303030"
       id="path4145" /></g><g
     id="g4147" /><g
     id="g4149" /><g
     id="g4151" /><g
     id="g4153" /><g
     id="g4155" /><g
     id="g4157" /><g
     id="g4159" /><g
     id="g4161" /><g
     id="g4163" /><g
     id="g4165" /><g
     id="g4167" /><g
     id="g4169" /><g
     id="g4171" /><g
     id="g4173" /><g
     id="g4175" /></svg>